G04 EasyPC Gerber Version 20.0.2 Build 4112 *
%FSLAX35Y35*%
%MOIN*%
%ADD74C,0.00500*%
%ADD75C,0.00787*%
%ADD11C,0.01000*%
%ADD21C,0.01969*%
%ADD86R,0.04331X0.03740*%
%ADD80C,0.08661*%
X0Y0D02*
D02*
D11*
X13152Y230535D02*
X11152D01*
X13152Y317150D02*
X11152D01*
X13636Y230051D02*
Y228051D01*
Y231020D02*
Y233020D01*
Y316665D02*
Y314665D01*
Y317634D02*
Y319634D01*
X14120Y230535D02*
X16120D01*
X14120Y317150D02*
X16120D01*
X109502Y93339D02*
Y91339D01*
X110486Y189795D02*
Y187795D01*
X111167Y94709D02*
X113167D01*
X111470Y292157D02*
Y290157D01*
X112152Y191165D02*
X114152D01*
X115514Y222268D02*
X113514D01*
X115998Y221783D02*
Y219783D01*
Y222752D02*
Y224752D01*
X116301Y94709D02*
X114301D01*
X116301Y119906D02*
X114301D01*
X116301Y191165D02*
X114301D01*
X116482Y222268D02*
X118482D01*
X116785Y94224D02*
Y92224D01*
Y95193D02*
Y97193D01*
Y120390D02*
Y122390D01*
Y190681D02*
Y188681D01*
Y191650D02*
Y193650D01*
Y293043D02*
Y291043D01*
Y294012D02*
Y296012D01*
X117270Y191165D02*
X119270D01*
X117270Y293528D02*
X119270D01*
X136380Y47858D02*
X134380D01*
X136864Y47374D02*
Y45374D01*
Y48343D02*
Y50343D01*
X137348Y47858D02*
X139348D01*
X161774Y30732D02*
X159774D01*
X162896Y16709D02*
X161481Y18123D01*
X162900Y47516D02*
X161485Y46102D01*
X162900Y48201D02*
X161485Y49615D01*
X163585Y47516D02*
X164999Y46102D01*
X163585Y48201D02*
X164999Y49615D01*
X165120Y21087D02*
X163120D01*
X165120Y39197D02*
X163120D01*
X165604Y34563D02*
Y36563D01*
Y38713D02*
Y36713D01*
Y39681D02*
Y41681D01*
X166089Y21087D02*
X168089D01*
X166089Y39197D02*
X168089D01*
X168313Y16709D02*
X169727Y18123D01*
X196222Y85654D02*
X194222D01*
X196707Y85169D02*
Y83169D01*
Y86138D02*
Y88138D01*
X197191Y85654D02*
X199191D01*
X210002Y21087D02*
X208002D01*
X210486Y20602D02*
Y18602D01*
X212167Y191165D02*
X210167D01*
X213833Y189795D02*
Y187795D01*
Y292157D02*
Y290157D01*
X215498Y191165D02*
X217498D01*
X218663Y89984D02*
X216663D01*
X218663Y289197D02*
X216663D01*
X219148Y90469D02*
Y92469D01*
Y288713D02*
Y286713D01*
Y294012D02*
Y296012D01*
X219632Y289197D02*
X221632D01*
X219632Y293528D02*
X221632D01*
X316195Y87433D02*
Y85433D01*
Y292157D02*
Y290157D01*
X317860Y88803D02*
X319860D01*
X317860Y293528D02*
X319860D01*
X320238Y17543D02*
X318238D01*
X320238Y222268D02*
X318238D01*
X320722Y17059D02*
Y15059D01*
Y18028D02*
Y20028D01*
Y191650D02*
Y193650D01*
Y221783D02*
Y219783D01*
Y222752D02*
Y224752D01*
X321026Y230535D02*
X319026D01*
X321207Y17543D02*
X323207D01*
X321207Y191165D02*
X323207D01*
X321207Y222268D02*
X323207D01*
X321510Y230051D02*
Y228051D01*
Y231020D02*
Y233020D01*
X321994Y230535D02*
X323994D01*
X322994Y128173D02*
X320994D01*
X322994Y216756D02*
X320994D01*
X323478Y127689D02*
Y125689D01*
Y128657D02*
Y130657D01*
Y216272D02*
Y214272D01*
Y217240D02*
Y219240D01*
X323963Y128173D02*
X325963D01*
X323963Y216756D02*
X325963D01*
D02*
D21*
X13636Y230535D03*
Y317150D03*
X115998Y222268D03*
X116785Y94709D03*
Y119906D03*
Y191165D03*
Y197465D03*
Y293528D03*
Y299827D03*
X119541Y71874D03*
Y117937D03*
X122297Y115181D03*
X135683Y91953D03*
X136864Y47858D03*
X140014Y77386D03*
X145132Y103764D03*
X146707Y80142D03*
X153006Y101008D03*
X155368Y80142D03*
X155762Y115181D03*
X158911Y38803D03*
Y60850D03*
X163242Y47858D03*
X165604Y21087D03*
Y39197D03*
X170722Y60850D03*
X173478Y40772D03*
X176234Y43528D03*
X180959Y79748D03*
X183715Y76992D03*
X192770Y60850D03*
X196707Y85654D03*
X199463Y38016D03*
Y60850D03*
X203793Y38016D03*
Y55339D03*
X205368Y83291D03*
Y104945D03*
X208124Y107701D03*
X208518Y55339D03*
X210486Y21087D03*
X214030Y19906D03*
X218360Y206520D03*
X219148Y15575D03*
Y80142D03*
Y89984D03*
Y289197D03*
Y293528D03*
Y299827D03*
X320722Y17543D03*
Y104157D03*
Y191165D03*
Y222268D03*
X321510Y230535D03*
Y299827D03*
X323478Y128173D03*
Y188409D03*
Y216756D03*
Y297071D03*
D02*
D74*
X1750Y337303D02*
Y5657D01*
X333396*
Y337303*
X1750*
X2756Y12031D02*
X2771Y12433D01*
X2816Y12831*
X2891Y13226*
X2994Y13614*
X3127Y13993*
X3288Y14360*
X3475Y14715*
X3689Y15055*
X3927Y15378*
X4189Y15682*
X4472Y15966*
X4777Y16228*
X5100Y16466*
X5439Y16679*
X5794Y16867*
X6162Y17028*
X6541Y17160*
X6928Y17264*
X7323Y17339*
X7722Y17384*
X8123Y17399*
X8524Y17384*
X8923Y17339*
X9317Y17265*
X9705Y17161*
X10084Y17028*
X10452Y16868*
X10806Y16681*
X11146Y16467*
X11469Y16229*
X11773Y15967*
X12057Y15683*
X12319Y15380*
X12557Y15057*
X12771Y14717*
X12959Y14362*
X13120Y13994*
X13252Y13616*
X13356Y13228*
X13431Y12834*
X13476Y12435*
X13492Y12031*
X13477Y11630*
X13432Y11231*
X13357Y10837*
X13254Y10449*
X13121Y10070*
X12960Y9703*
X12773Y9348*
X12559Y9008*
X12321Y8685*
X12059Y8381*
X11776Y8097*
X11471Y7835*
X11148Y7597*
X10809Y7384*
X10454Y7196*
X10086Y7035*
X9707Y6903*
X9320Y6799*
X8925Y6724*
X8526Y6679*
X8125Y6664*
X7724Y6679*
X7325Y6724*
X6931Y6798*
X6543Y6902*
X6164Y7035*
X5796Y7195*
X5442Y7382*
X5102Y7596*
X4779Y7834*
X4475Y8096*
X4191Y8380*
X3929Y8683*
X3691Y9006*
X3477Y9346*
X3289Y9701*
X3128Y10069*
X2996Y10447*
X2892Y10835*
X2817Y11229*
X2772Y11628*
X2756Y12031*
Y330929D02*
X2771Y331330D01*
X2816Y331729*
X2891Y332124*
X2994Y332511*
X3127Y332890*
X3288Y333258*
X3475Y333613*
X3689Y333952*
X3927Y334275*
X4189Y334580*
X4472Y334863*
X4777Y335125*
X5100Y335363*
X5439Y335577*
X5794Y335765*
X6162Y335925*
X6541Y336058*
X6928Y336162*
X7323Y336237*
X7722Y336281*
X8123Y336296*
X8524Y336281*
X8923Y336237*
X9317Y336162*
X9705Y336058*
X10084Y335926*
X10452Y335766*
X10806Y335578*
X11146Y335365*
X11469Y335127*
X11773Y334865*
X12057Y334581*
X12319Y334277*
X12557Y333954*
X12771Y333615*
X12959Y333260*
X13120Y332892*
X13252Y332513*
X13356Y332126*
X13431Y331731*
X13476Y331333*
X13492Y330929*
X13477Y330528*
X13432Y330129*
X13357Y329735*
X13254Y329347*
X13121Y328968*
X12960Y328600*
X12773Y328246*
X12559Y327906*
X12321Y327583*
X12059Y327279*
X11776Y326995*
X11471Y326733*
X11148Y326495*
X10809Y326281*
X10454Y326094*
X10086Y325933*
X9707Y325800*
X9320Y325696*
X8925Y325622*
X8526Y325577*
X8125Y325562*
X7724Y325577*
X7325Y325622*
X6931Y325696*
X6543Y325800*
X6164Y325932*
X5796Y326093*
X5442Y326280*
X5102Y326493*
X4779Y326731*
X4475Y326993*
X4191Y327277*
X3929Y327581*
X3691Y327904*
X3477Y328244*
X3289Y328598*
X3128Y328966*
X2996Y329345*
X2892Y329733*
X2817Y330127*
X2772Y330526*
X2756Y330929*
X11402Y230535D02*
X11417Y230795D01*
X11462Y231051*
X11536Y231300*
X11639Y231538*
X11769Y231763*
X11924Y231972*
X12102Y232161*
X12302Y232328*
X12519Y232470*
X12751Y232587*
X12995Y232676*
X13248Y232736*
X13506Y232766*
X13765*
X14023Y232736*
X14276Y232676*
X14520Y232587*
X14752Y232471*
X14969Y232328*
X15169Y232161*
X15347Y231972*
X15502Y231764*
X15632Y231539*
X15735Y231301*
X15810Y231052*
X15855Y230796*
X15870Y230535*
X15855Y230276*
X15810Y230020*
X15735Y229771*
X15633Y229533*
X15503Y229307*
X15348Y229099*
X15169Y228910*
X14970Y228743*
X14753Y228600*
X14521Y228484*
X14277Y228395*
X14024Y228335*
X13766Y228305*
X13506*
X13248Y228335*
X12996Y228394*
X12752Y228483*
X12519Y228600*
X12302Y228743*
X12103Y228909*
X11925Y229098*
X11770Y229307*
X11640Y229531*
X11537Y229770*
X11462Y230019*
X11417Y230275*
X11402Y230535*
Y317150D02*
X11417Y317409D01*
X11462Y317665*
X11536Y317914*
X11639Y318152*
X11769Y318378*
X11924Y318586*
X12102Y318775*
X12302Y318942*
X12519Y319085*
X12751Y319201*
X12995Y319290*
X13248Y319350*
X13506Y319380*
X13765*
X14023Y319350*
X14276Y319291*
X14520Y319202*
X14752Y319085*
X14969Y318943*
X15169Y318776*
X15347Y318587*
X15502Y318378*
X15632Y318154*
X15735Y317915*
X15810Y317666*
X15855Y317410*
X15870Y317150*
X15855Y316890*
X15810Y316634*
X15735Y316385*
X15633Y316147*
X15503Y315922*
X15348Y315713*
X15169Y315524*
X14970Y315357*
X14753Y315215*
X14521Y315098*
X14277Y315009*
X14024Y314949*
X13766Y314919*
X13506*
X13248Y314949*
X12996Y315009*
X12752Y315098*
X12519Y315214*
X12302Y315357*
X12103Y315524*
X11925Y315713*
X11770Y315921*
X11640Y316146*
X11537Y316384*
X11462Y316633*
X11417Y316889*
X11402Y317150*
X323896Y299450D02*
X324148Y299391D01*
X324393Y299306*
X324628Y299195*
X324849Y299059*
X325054Y298901*
X325242Y298722*
X325409Y298523*
X325553Y298307*
X325674Y298078*
X325769Y297837*
X325838Y297587*
X325880Y297331*
X325894Y297071*
X325880Y296809*
X325837Y296550*
X325767Y296296*
X325669Y296053*
X325545Y295821*
X325397Y295604*
X325227Y295404*
X325035Y295224*
X324826Y295066*
X324600Y294932*
X324361Y294823*
X324112Y294740*
X323855Y294685*
X323594Y294658*
X323331Y294660*
X323070Y294690*
X322814Y294748*
X322565Y294834*
X322328Y294946*
X322104Y295084*
X321896Y295246*
X319610*
Y290407*
X313098*
Y228567*
X313083Y228329*
X313036Y228094*
X312959Y227869*
X312854Y227654*
X312721Y227456*
X312564Y227276*
X312384Y227119*
X312186Y226986*
X311972Y226881*
X311746Y226804*
X311511Y226757*
X311274Y226742*
X210486*
X210248Y226758*
X210014Y226804*
X209788Y226881*
X209574Y226987*
X209375Y227119*
X209196Y227277*
X209038Y227456*
X208906Y227655*
X208800Y227869*
X208723Y228095*
X208677Y228329*
X208661Y228567*
Y299827*
X208677Y300064*
X208723Y300297*
X208799Y300522*
X208904Y300735*
X209035Y300933*
X209191Y301113*
X209369Y301270*
X209566Y301403*
X209778Y301509*
X210003Y301587*
X210236Y301634*
Y303325*
X217429*
Y301652*
X217565*
X217773Y301813*
X217996Y301950*
X218234Y302063*
X218482Y302148*
X218738Y302207*
X218999Y302237*
X219261Y302239*
X219523Y302213*
X219780Y302158*
X220029Y302076*
X220268Y301967*
X220493Y301832*
X220703Y301674*
X220894Y301494*
X221065Y301295*
X221213Y301078*
X221337Y300846*
X221435Y300602*
X221506Y300350*
X221548Y300091*
X221563Y299827*
X221549Y299565*
X221506Y299306*
X221436Y299052*
X221338Y298809*
X221215Y298577*
X221067Y298360*
X220896Y298160*
X220705Y297980*
X220495Y297822*
X220269Y297688*
X220030Y297579*
X219781Y297496*
X219524Y297441*
X219263Y297414*
X219000Y297416*
X218739Y297446*
X218483Y297504*
X218235Y297590*
X217997Y297702*
X217773Y297840*
X217565Y298002*
X217429*
Y296722*
X212311*
Y296648*
X217248*
Y294704*
X217399Y294918*
X217574Y295114*
X217771Y295287*
X217987Y295437*
X218219Y295559*
X218464Y295654*
X218719Y295720*
X218979Y295755*
X219241Y295759*
X219502Y295733*
X219759Y295676*
X220006Y295589*
X220242Y295474*
X220463Y295333*
X220666Y295166*
X220848Y294976*
X221006Y294767*
X221139Y294541*
X221244Y294300*
X221320Y294049*
X221366Y293791*
X221382Y293528*
X221369Y293282*
X221328Y293039*
X221261Y292803*
X221169Y292575*
X221052Y292358*
X220911Y292156*
X220750Y291970*
X220569Y291804*
X220371Y291658*
X220158Y291535*
X219933Y291436*
X219698Y291362*
X219933Y291289*
X220158Y291190*
X220371Y291067*
X220569Y290921*
X220750Y290754*
X220911Y290569*
X221051Y290367*
X221168Y290151*
X221261Y289923*
X221328Y289686*
X221368Y289444*
X221382Y289197*
X221367Y288937*
X221322Y288681*
X221247Y288433*
X221144Y288194*
X221015Y287969*
X220859Y287761*
X220681Y287572*
X220482Y287405*
X220265Y287262*
X220033Y287145*
X219789Y287056*
X219536Y286996*
X219278Y286966*
X219018*
X218760Y286996*
X218507Y287056*
X218263Y287145*
X218031Y287261*
X217814Y287404*
X217615Y287571*
X217437Y287760*
X217281Y287968*
X217152Y288193*
X217048Y288431*
X216974Y288680*
X216928Y288936*
X216913Y289197*
X216927Y289443*
X216967Y289685*
X217034Y289922*
X217127Y290150*
X217244Y290366*
X217384Y290569*
X217545Y290754*
X217726Y290920*
X217924Y291066*
X218137Y291189*
X218362Y291289*
X218597Y291362*
X218364Y291435*
X218139Y291534*
X217927Y291656*
X217730Y291801*
X217550Y291967*
X217388Y292151*
X217248Y292352*
Y290407*
X212311*
Y230392*
X229072*
X229065Y230535*
Y317150*
X229072Y317293*
X208436*
X208443Y317150*
Y230535*
X208428Y230322*
X208382Y230113*
X208307Y229913*
X208205Y229725*
X208076Y229554*
X207925Y229402*
X207754Y229274*
X207566Y229171*
X207366Y229096*
X207157Y229051*
X206943Y229035*
X128203*
X128059Y229043*
Y216280*
X128203Y216287*
X206943*
X207156Y216272*
X207365Y216226*
X207566Y216152*
X207754Y216049*
X207925Y215921*
X208076Y215770*
X208204Y215598*
X208307Y215411*
X208382Y215210*
X208428Y215001*
X208443Y214787*
Y128173*
X208428Y127960*
X208382Y127751*
X208307Y127550*
X208205Y127363*
X208076Y127191*
X207925Y127040*
X207754Y126912*
X207566Y126809*
X207366Y126734*
X207157Y126689*
X206943Y126673*
X128203*
X128059Y126680*
Y105589*
X143550*
X143765Y105755*
X143998Y105896*
X144245Y106011*
X144504Y106096*
X144770Y106152*
X145041Y106178*
X145313Y106172*
X145583Y106137*
X145848Y106071*
X146103Y105976*
X146346Y105852*
X146573Y105702*
X146782Y105528*
X146970Y105331*
X147135Y105114*
X147274Y104880*
X147386Y104632*
X147470Y104373*
X147524Y104106*
X147547Y103835*
X147540Y103563*
X147502Y103293*
X147433Y103030*
X151684*
X151911Y103161*
X152150Y103267*
X152399Y103346*
X152655Y103398*
X152915Y103422*
X153177Y103417*
X153436Y103385*
X153691Y103324*
X153937Y103237*
Y113599*
X153785Y113793*
X153654Y114002*
X153545Y114222*
X153459Y114453*
X153397Y114691*
X153359Y114935*
X153346Y115181*
X153362Y115452*
X153407Y115719*
X153482Y115979*
X153585Y116229*
X153717Y116466*
X153873Y116687*
X154054Y116889*
X154256Y117069*
X154476Y117226*
X154713Y117357*
X154964Y117461*
X155224Y117536*
X155491Y117581*
X155761Y117596*
X156032Y117581*
X156299Y117536*
X156559Y117461*
X156809Y117358*
X157046Y117227*
X157267Y117070*
X157469Y116890*
X157650Y116688*
X157807Y116467*
X157938Y116230*
X158042Y115980*
X158117Y115719*
X158162Y115452*
X158177Y115181*
X158165Y114935*
X158127Y114692*
X158065Y114453*
X157979Y114222*
X157870Y114002*
X157739Y113793*
X157587Y113599*
Y81097*
X157671Y80870*
X157733Y80636*
X157770Y80396*
X157783Y80155*
X157772Y79913*
X157737Y79674*
X157679Y79439*
X157597Y79211*
X178604*
X178559Y79478*
X178543Y79748*
X178559Y80019*
X178604Y80285*
X178679Y80546*
X178782Y80796*
X178913Y81033*
X179070Y81254*
X179250Y81456*
X179452Y81636*
X179673Y81793*
X179910Y81924*
X180161Y82028*
X180421Y82103*
X180688Y82148*
X180958Y82163*
X181229Y82148*
X181496Y82103*
X181756Y82028*
X182006Y81925*
X182243Y81794*
X182464Y81637*
X182666Y81457*
X182847Y81255*
X183004Y81034*
X183135Y80797*
X183239Y80546*
X183314Y80286*
X183359Y80019*
X183374Y79748*
X183367Y79563*
X183346Y79379*
X183612Y79405*
X183879Y79402*
X184144Y79369*
X184405Y79306*
X184656Y79216*
X184896Y79098*
X185122Y78954*
X185330Y78787*
X185519Y78597*
X185685Y78387*
X185828Y78161*
X185944Y77920*
X186033Y77668*
X186093Y77407*
X186125Y77141*
X186126Y76874*
X186098Y76608*
X186041Y76346*
X185956Y76093*
X185842Y75850*
X185703Y75622*
X185539Y75410*
Y63606*
X185529Y63411*
X185498Y63219*
X185446Y63030*
X185374Y62848*
X185284Y62675*
X191187*
X191395Y62836*
X191619Y62974*
X191856Y63086*
X192104Y63172*
X192360Y63231*
X192621Y63261*
X192883Y63263*
X193145Y63236*
X193402Y63181*
X193651Y63099*
X193890Y62990*
X194115Y62856*
X194325Y62698*
X194517Y62518*
X194687Y62319*
X194835Y62102*
X194959Y61870*
X195057Y61626*
X195128Y61373*
X195170Y61114*
X195185Y60850*
X195171Y60588*
X195128Y60329*
X195058Y60076*
X194960Y59832*
X194837Y59600*
X194689Y59383*
X194518Y59184*
X194327Y59004*
X194117Y58846*
X193891Y58711*
X193652Y58602*
X193403Y58520*
X193146Y58465*
X192885Y58438*
X192622Y58439*
X192361Y58470*
X192105Y58528*
X191857Y58614*
X191619Y58726*
X191395Y58863*
X191187Y59026*
X172305*
X172091Y58861*
X171861Y58720*
X171617Y58607*
X171361Y58521*
X171097Y58464*
X170829Y58437*
X170559Y58441*
X170291Y58474*
X170029Y58537*
X169776Y58628*
X169534Y58748*
X169307Y58893*
X169097Y59063*
X168908Y59256*
X168742Y59468*
X168600Y59697*
X168485Y59941*
X168397Y60196*
X168339Y60459*
X168310Y60728*
X168311Y60997*
X168343Y61265*
X168404Y61528*
X168494Y61781*
X161140*
X161230Y61529*
X161291Y61268*
X161322Y61002*
X161324Y60733*
X161296Y60467*
X161239Y60205*
X161153Y59951*
X161040Y59708*
X160900Y59480*
X160736Y59268*
Y40385*
X160901Y40172*
X161041Y39942*
X161155Y39697*
X161241Y39442*
X161298Y39178*
X161324Y38909*
X161321Y38640*
X161288Y38372*
X161225Y38110*
X161133Y37856*
X161014Y37615*
X160869Y37387*
X160698Y37178*
X160506Y36989*
X160294Y36822*
X160065Y36681*
X159821Y36565*
X159566Y36478*
X159302Y36420*
X159034Y36391*
X158765Y36392*
X158497Y36424*
X158234Y36485*
X157980Y36574*
Y26848*
X161597*
X161335Y27138*
X161094Y27445*
X160875Y27769*
X160680Y28106*
X160508Y28457*
X160361Y28819*
X160241Y29190*
X160146Y29569*
X160078Y29954*
X160037Y30342*
X160024Y30732*
X160039Y31148*
X160085Y31562*
X160163Y31971*
X160270Y32374*
X160407Y32767*
X160574Y33149*
X160768Y33517*
X160989Y33870*
X161236Y34206*
X161507Y34522*
X161801Y34817*
X162116Y35089*
X162451Y35337*
X162803Y35559*
X163170Y35754*
X163552Y35922*
X163944Y36060*
X164346Y36169*
X164755Y36248*
X165169Y36296*
X165585Y36313*
X166001Y36299*
X166415Y36254*
X166824Y36178*
X167227Y36071*
X167621Y35935*
X168003Y35770*
X168372Y35578*
X168726Y35358*
X169062Y35112*
X169379Y34842*
X169675Y34549*
X169948Y34235*
X170197Y33902*
X170421Y33550*
X170641Y33911*
X170887Y34255*
X171158Y34580*
X171452Y34884*
X171767Y35166*
X172102Y35424*
X172455Y35656*
X172824Y35863*
X173207Y36041*
X173602Y36191*
X170722*
X170484Y36207*
X170250Y36253*
X170024Y36330*
X169810Y36435*
X169611Y36568*
X169432Y36726*
X169274Y36905*
X169142Y37104*
X169036Y37318*
X168959Y37544*
X168913Y37778*
X168898Y38016*
Y43528*
X168913Y43766*
X168960Y44000*
X169037Y44226*
X169142Y44440*
X169275Y44639*
X169432Y44818*
X169612Y44976*
X169810Y45108*
X170024Y45214*
X170250Y45291*
X170485Y45337*
X170722Y45352*
X174652*
X174865Y45517*
X175096Y45657*
X175340Y45771*
X175596Y45857*
X175859Y45914*
X176128Y45941*
X176398Y45937*
X176665Y45904*
X176928Y45841*
X177181Y45750*
X177423Y45630*
X177650Y45485*
X177859Y45315*
X178048Y45122*
X178215Y44910*
X178357Y44681*
X178472Y44437*
X178559Y44182*
X178618Y43919*
X178646Y43650*
X178645Y43381*
X178614Y43113*
X178553Y42850*
X178463Y42596*
X185289*
X185528Y42581*
X185762Y42534*
X185988Y42457*
X186202Y42352*
X186400Y42219*
X186580Y42062*
X186737Y41882*
X186870Y41684*
X186976Y41470*
X187052Y41244*
X187099Y41009*
X187114Y40772*
Y36198*
X187493Y36056*
X187861Y35889*
X188216Y35696*
X188556Y35478*
X188881Y35238*
X189188Y34975*
X189476Y34691*
X189743Y34388*
X189988Y34067*
X190211Y33729*
X190443Y34080*
X190700Y34414*
X190981Y34728*
X191284Y35020*
X191607Y35290*
X191950Y35535*
X192309Y35755*
X192684Y35948*
X193071Y36113*
X193470Y36249*
X193877Y36356*
X194291Y36432*
X194710Y36478*
X195131Y36494*
X195552Y36478*
X195971Y36432*
X196385Y36356*
X196793Y36249*
X197191Y36113*
X197579Y35948*
X197954Y35755*
X198313Y35535*
X198656Y35290*
X198979Y35020*
X199282Y34728*
X199563Y34414*
X199820Y34081*
X200053Y33729*
X200286Y34081*
X200544Y34416*
X200826Y34731*
X201131Y35024*
X201456Y35294*
X201800Y35540*
X202161Y35760*
X202537Y35953*
X202312Y36108*
X202107Y36287*
X201922Y36488*
X201762Y36709*
X201628Y36946*
X201495Y36711*
X201337Y36492*
X201156Y36293*
X200953Y36115*
X200731Y35960*
X200494Y35831*
X200244Y35730*
X199985Y35657*
X199718Y35613*
X199448Y35600*
X199179Y35617*
X198913Y35663*
X198654Y35739*
X198406Y35843*
X198170Y35975*
X197950Y36132*
X197749Y36312*
X197570Y36514*
X197414Y36734*
X197284Y36971*
X197181Y37220*
X197107Y37480*
X197062Y37746*
X197047Y38016*
X197060Y38262*
X197097Y38505*
X197159Y38744*
X197246Y38974*
X197355Y39195*
X197486Y39404*
X197638Y39598*
Y59268*
X197486Y59462*
X197355Y59671*
X197246Y59892*
X197160Y60122*
X197098Y60361*
X197060Y60604*
X197047Y60850*
X197063Y61121*
X197108Y61388*
X197183Y61648*
X197286Y61898*
X197417Y62135*
X197574Y62356*
X197754Y62558*
X197956Y62739*
X198177Y62895*
X198414Y63026*
X198665Y63130*
X198925Y63205*
X199192Y63250*
X199462Y63266*
X199733Y63251*
X200000Y63206*
X200260Y63131*
X200510Y63027*
X200747Y62896*
X200968Y62739*
X201170Y62559*
X201351Y62357*
X201507Y62136*
X201639Y61899*
X201743Y61649*
X201818Y61389*
X201863Y61122*
X201878Y60850*
X201865Y60604*
X201828Y60361*
X201766Y60122*
X201680Y59892*
X201570Y59671*
X201439Y59462*
X201287Y59268*
Y39598*
X201415Y39437*
X201529Y39266*
X201628Y39086*
X201758Y39317*
X201913Y39531*
X202090Y39728*
X202287Y39904*
X202503Y40058*
X202734Y40187*
X202978Y40289*
X203232Y40365*
X203492Y40412*
X203756Y40431*
X204021Y40420*
X204283Y40381*
X204539Y40313*
X204785Y40218*
X205020Y40096*
X205241Y39949*
X205444Y39779*
X205670Y39703*
X205885Y39597*
X206084Y39465*
X206264Y39307*
X206422Y39128*
X206554Y38929*
X206660Y38715*
X206737Y38488*
X206783Y38254*
X206799Y38016*
Y36198*
X207196Y36048*
X207581Y35870*
X207952Y35665*
X208307Y35432*
X208644Y35174*
X208961Y34893*
X209256Y34588*
X209528Y34262*
X209775Y33918*
X209996Y33556*
X210191Y33179*
X210356Y32788*
X210493Y32387*
X210600Y31976*
X210676Y31559*
X210721Y31137*
X210735Y30713*
X210719Y30289*
X210670Y29868*
X210591Y29451*
X210482Y29041*
X210343Y28641*
X210174Y28251*
X209978Y27875*
X209754Y27515*
X209504Y27172*
X209230Y26848*
X214030*
X214268Y26833*
X214502Y26786*
X214728Y26709*
X214942Y26604*
X215141Y26471*
X215320Y26314*
X215478Y26134*
X215610Y25936*
X215716Y25722*
X215793Y25496*
X215839Y25261*
X215854Y25024*
Y21488*
X216006Y21294*
X216137Y21085*
X216246Y20864*
X216332Y20633*
X216394Y20395*
X216432Y20152*
X216445Y19906*
X216429Y19630*
X216382Y19359*
X216305Y19094*
X216198Y18840*
X216062Y18600*
X215900Y18377*
X215714Y18174*
X215506Y17993*
X215278Y17837*
X215035Y17709*
X214778Y17609*
X214511Y17538*
X214239Y17499*
X213963Y17491*
X213688Y17514*
X213418Y17568*
X213156Y17653*
X212905Y17767*
X212669Y17909*
X212450Y18078*
X212252Y18269*
X212078Y18482*
X211928Y18714*
X211806Y18961*
X211714Y19220*
X211495Y19093*
X211263Y18992*
X211021Y18917*
X210772Y18871*
X210520Y18853*
X210267Y18863*
X210017Y18902*
X209774Y18969*
X209539Y19063*
X209317Y19183*
X209109Y19328*
X208919Y19495*
X208750Y19682*
X208602Y19887*
X208478Y20108*
X208381Y20341*
X208310Y20584*
X208267Y20833*
X208252Y21087*
X208266Y21338*
X208308Y21586*
X208378Y21828*
X208475Y22060*
X208597Y22280*
X208743Y22484*
X208911Y22671*
X209099Y22838*
X209305Y22983*
X209525Y23104*
X209758Y23199*
X166333*
X166574Y23100*
X166802Y22973*
X167014Y22820*
X167206Y22644*
X167377Y22447*
X167523Y22231*
X167644Y22000*
X167736Y21756*
X167800Y21503*
X167833Y21244*
X167836Y20984*
X167809Y20724*
X167752Y20470*
X167665Y20224*
X167551Y19990*
X167410Y19770*
X167244Y19569*
X167056Y19389*
X167433Y19272*
X167802Y19130*
X168159Y18962*
X168503Y18769*
X168833Y18552*
X169147Y18312*
X169443Y18051*
X169720Y17770*
X169976Y17469*
X170210Y17152*
X170421Y16818*
X170637Y17172*
X170877Y17509*
X171141Y17828*
X171426Y18127*
X171733Y18405*
X172059Y18660*
X172402Y18891*
X172761Y19097*
X173134Y19276*
X173519Y19429*
X173913Y19553*
X174315Y19649*
X174724Y19715*
X175136Y19752*
X175550Y19760*
X175963Y19738*
X176373Y19686*
X176779Y19605*
X177178Y19494*
X177568Y19356*
X177947Y19190*
X178313Y18997*
X178664Y18778*
X178999Y18535*
X179315Y18269*
X179612Y17980*
X179887Y17671*
X180139Y17343*
X180368Y16996*
X180600Y17348*
X180857Y17681*
X181138Y17995*
X181441Y18288*
X181765Y18557*
X182107Y18803*
X182467Y19022*
X182841Y19215*
X183229Y19380*
X183627Y19517*
X184035Y19623*
X184449Y19700*
X184868Y19746*
X185289Y19761*
X185709Y19746*
X186128Y19700*
X186543Y19624*
X186950Y19517*
X187349Y19381*
X187737Y19216*
X188111Y19023*
X188470Y18803*
X188813Y18558*
X189137Y18288*
X189440Y17996*
X189720Y17682*
X189978Y17348*
X190211Y16996*
X190443Y17348*
X190700Y17681*
X190981Y17995*
X191284Y18288*
X191607Y18557*
X191950Y18803*
X192309Y19022*
X192684Y19215*
X193071Y19380*
X193470Y19517*
X193877Y19623*
X194291Y19700*
X194710Y19746*
X195131Y19761*
X195552Y19746*
X195971Y19700*
X196385Y19624*
X196793Y19517*
X197191Y19381*
X197579Y19216*
X197954Y19023*
X198313Y18803*
X198656Y18558*
X198979Y18288*
X199282Y17996*
X199563Y17682*
X199820Y17348*
X200053Y16996*
X200281Y17343*
X200534Y17672*
X200810Y17982*
X201108Y18272*
X201426Y18539*
X201762Y18783*
X202115Y19002*
X202482Y19194*
X202863Y19361*
X203254Y19499*
X203654Y19608*
X204061Y19689*
X204473Y19739*
X204888Y19761*
X205303Y19752*
X205716Y19713*
X206126Y19645*
X206529Y19548*
X206924Y19421*
X207310Y19267*
X207683Y19085*
X208042Y18877*
X208385Y18643*
X208711Y18386*
X209017Y18106*
X209302Y17804*
X209565Y17482*
X209804Y17143*
X210017Y16787*
X210205Y16417*
X210365Y16034*
X210497Y15641*
X210601Y15239*
X210676Y14830*
X210720Y14418*
X210736Y14000*
X210722Y13600*
X210681Y13203*
X210612Y12809*
X210516Y12420*
X210393Y12040*
X210244Y11669*
X210069Y11309*
X209870Y10962*
X209648Y10630*
X209402Y10313*
X309449*
Y24318*
X309305Y24311*
X230565*
X230352Y24326*
X230143Y24372*
X229942Y24447*
X229754Y24549*
X229583Y24678*
X229432Y24829*
X229304Y25000*
X229201Y25188*
X229126Y25388*
X229080Y25597*
X229065Y25811*
Y112425*
X229080Y112639*
X229126Y112848*
X229201Y113048*
X229303Y113236*
X229431Y113407*
X229583Y113558*
X229754Y113687*
X229942Y113789*
X230142Y113864*
X230351Y113910*
X230565Y113925*
X309305*
X309449Y113918*
Y126680*
X309305Y126673*
X230565*
X230352Y126689*
X230143Y126734*
X229942Y126809*
X229754Y126911*
X229583Y127040*
X229432Y127191*
X229304Y127362*
X229201Y127550*
X229126Y127750*
X229080Y127959*
X229065Y128173*
Y214787*
X229080Y215001*
X229126Y215210*
X229201Y215410*
X229303Y215598*
X229431Y215769*
X229583Y215920*
X229754Y216049*
X229942Y216152*
X230142Y216226*
X230351Y216272*
X230565Y216287*
X309305*
X309519Y216272*
X309728Y216226*
X309928Y216152*
X310116Y216049*
X310287Y215921*
X310438Y215770*
X310567Y215598*
X310669Y215411*
X310744Y215210*
X310790Y215001*
X310805Y214787*
Y199425*
X311037Y199471*
X311274Y199486*
X312598*
Y200963*
X319791*
Y194360*
X314673*
Y194285*
X319610*
Y193103*
X319843Y193219*
X320087Y193307*
X320339Y193367*
X320597Y193396*
X320857Y193396*
X321115Y193365*
X321367Y193305*
X321611Y193216*
X321843Y193099*
X322059Y192956*
X322257Y192789*
X322435Y192600*
X322590Y192392*
X322720Y192167*
X322822Y191929*
X322897Y191680*
X322942Y191424*
X322957Y191165*
X322947Y190961*
X322919Y190759*
X323187Y190807*
X323459Y190825*
X323731Y190812*
X324000Y190768*
X324262Y190694*
X324514Y190592*
X324753Y190461*
X324976Y190305*
X325180Y190124*
X325362Y189922*
X325520Y189700*
X325653Y189462*
X325757Y189211*
X325833Y188950*
X325879Y188681*
X325894Y188409*
X325879Y188144*
X325835Y187883*
X325763Y187628*
X325664Y187382*
X325538Y187149*
X325387Y186931*
X325214Y186730*
X325019Y186550*
X324806Y186392*
X324577Y186259*
X324335Y186151*
X324082Y186071*
X323822Y186019*
X323558Y185996*
X323293Y186002*
X323030Y186037*
X322772Y186100*
X322523Y186191*
X313098*
Y98600*
X318898*
Y102575*
X318746Y102769*
X318615Y102978*
X318506Y103199*
X318420Y103430*
X318357Y103668*
X318320Y103911*
X318307Y104157*
X318322Y104428*
X318368Y104695*
X318443Y104955*
X318546Y105206*
X318677Y105443*
X318834Y105663*
X319014Y105865*
X319216Y106046*
X319437Y106202*
X319674Y106333*
X319924Y106437*
X320185Y106512*
X320452Y106557*
X320722Y106573*
X320993Y106558*
X321259Y106513*
X321520Y106438*
X321770Y106334*
X322007Y106203*
X322228Y106046*
X322430Y105866*
X322611Y105664*
X322767Y105443*
X322898Y105206*
X323002Y104956*
X323078Y104696*
X323123Y104429*
X323138Y104157*
X323125Y103911*
X323088Y103668*
X323026Y103430*
X322939Y103199*
X322830Y102978*
X322699Y102769*
X322547Y102575*
Y95299*
X322531Y95061*
X322485Y94827*
X322408Y94601*
X322303Y94387*
X322170Y94188*
X322013Y94009*
X321833Y93851*
X321635Y93719*
X321420Y93613*
X321194Y93536*
X320960Y93490*
X320722Y93474*
X319791*
Y91998*
X313098*
Y91923*
X319610*
Y85683*
X313098*
Y8488*
X313083Y8250*
X313036Y8016*
X312959Y7790*
X312854Y7576*
X312721Y7377*
X312564Y7198*
X312384Y7040*
X312186Y6907*
X311972Y6802*
X311746Y6725*
X311511Y6679*
X311274Y6663*
X145919*
X145681Y6679*
X145447Y6726*
X145221Y6802*
X145007Y6908*
X144808Y7041*
X144629Y7198*
X144471Y7378*
X144339Y7576*
X144233Y7790*
X144156Y8016*
X144110Y8250*
X144094Y8488*
Y61781*
X135683*
X135445Y61797*
X135211Y61844*
X134985Y61920*
X134770Y62026*
X134572Y62159*
X134393Y62316*
X134235Y62496*
X134102Y62694*
X133997Y62908*
X133920Y63134*
X133874Y63369*
X133858Y63606*
Y90370*
X133707Y90565*
X133576Y90773*
X133467Y90994*
X133380Y91225*
X133318Y91463*
X133281Y91706*
X133268Y91953*
X133283Y92223*
X133328Y92490*
X133403Y92750*
X133507Y93001*
X133638Y93238*
X133794Y93459*
X133975Y93661*
X134177Y93841*
X134398Y93998*
X134635Y94129*
X134885Y94232*
X135145Y94307*
X135412Y94353*
X135683Y94368*
X135953Y94353*
X136220Y94308*
X136480Y94233*
X136731Y94130*
X136968Y93998*
X137189Y93842*
X137391Y93661*
X137571Y93459*
X137728Y93239*
X137859Y93002*
X137963Y92751*
X138038Y92491*
X138083Y92224*
X138098Y91953*
X138086Y91707*
X138048Y91463*
X137986Y91225*
X137900Y90994*
X137791Y90773*
X137660Y90565*
X137508Y90370*
Y81967*
X145124*
X145338Y82131*
X145568Y82272*
X145813Y82385*
X146068Y82471*
X146332Y82528*
X146600Y82555*
X146870Y82552*
X147138Y82519*
X147400Y82456*
X147654Y82364*
X147895Y82244*
X148122Y82099*
X148332Y81929*
X148521Y81737*
X148687Y81524*
X148829Y81295*
X148944Y81051*
X149032Y80796*
X149090Y80533*
X149119Y80265*
X149118Y79995*
X149086Y79727*
X149025Y79465*
X148935Y79211*
X153139*
X153050Y79463*
X152989Y79724*
X152957Y79991*
X152956Y80259*
X152983Y80525*
X153041Y80787*
X153126Y81041*
X153240Y81284*
X153380Y81513*
X153544Y81724*
X153730Y81917*
X153937Y82087*
Y98779*
X153683Y98689*
X153421Y98628*
X153154Y98597*
X152884Y98595*
X152617Y98624*
X152354Y98682*
X152099Y98769*
X151855Y98884*
X151626Y99025*
X151414Y99191*
X151222Y99380*
X121366*
Y73456*
X121518Y73262*
X121649Y73054*
X121758Y72833*
X121844Y72602*
X121906Y72364*
X121944Y72120*
X121957Y71874*
X121941Y71604*
X121896Y71337*
X121821Y71076*
X121718Y70826*
X121587Y70589*
X121430Y70368*
X121250Y70166*
X121048Y69986*
X120827Y69829*
X120590Y69698*
X120339Y69594*
X120079Y69519*
X119812Y69474*
X119542Y69459*
X119271Y69474*
X119004Y69519*
X118744Y69594*
X118494Y69697*
X118257Y69828*
X118036Y69985*
X117834Y70165*
X117653Y70367*
X117496Y70588*
X117365Y70825*
X117261Y71076*
X117186Y71336*
X117141Y71603*
X117126Y71874*
X117139Y72120*
X117176Y72363*
X117238Y72602*
X117324Y72833*
X117433Y73054*
X117565Y73262*
X117717Y73456*
Y92678*
X117472Y92582*
X117217Y92517*
X116957Y92481*
X116694Y92476*
X116433Y92502*
X116176Y92559*
X115928Y92645*
X115692Y92760*
X115471Y92902*
X115268Y93069*
X115086Y93258*
X114927Y93468*
X114794Y93694*
X114689Y93935*
X114613Y94187*
X114567Y94445*
X114551Y94709*
X114567Y94971*
X114613Y95230*
X114689Y95481*
X114794Y95722*
X114926Y95949*
X115085Y96159*
X115267Y96348*
X115470Y96515*
X115691Y96657*
X115927Y96772*
X116175Y96859*
X116432Y96916*
X116693Y96942*
X116956Y96937*
X117217Y96902*
X117471Y96836*
X117717Y96740*
Y99380*
X113098*
Y97904*
X106081*
Y25811*
X106065Y25598*
X106020Y25389*
X105945Y25188*
X105843Y25000*
X105714Y24829*
X105563Y24678*
X105392Y24550*
X105204Y24447*
X105004Y24372*
X104794Y24326*
X104581Y24311*
X25841*
X25627Y24326*
X25418Y24372*
X25218Y24447*
X25030Y24549*
X24859Y24678*
X24707Y24829*
X24579Y25000*
X24476Y25188*
X24402Y25388*
X24356Y25597*
X24341Y25811*
Y112425*
X24356Y112639*
X24402Y112848*
X24476Y113048*
X24579Y113236*
X24707Y113407*
X24858Y113558*
X25030Y113687*
X25217Y113789*
X25418Y113864*
X25627Y113910*
X25841Y113925*
X104581*
X104794Y113910*
X105003Y113864*
X105204Y113789*
X105391Y113687*
X105563Y113559*
X105714Y113407*
X105842Y113236*
X105945Y113048*
X106020Y112848*
X106065Y112639*
X106081Y112425*
Y104506*
X113098*
Y103030*
X124564*
X124497Y103206*
X124448Y103389*
X124419Y103575*
X124409Y103764*
Y114009*
X124263Y113778*
X124091Y113564*
X123896Y113371*
X123681Y113201*
X123448Y113057*
X123200Y112941*
X122940Y112853*
X122672Y112795*
X122399Y112768*
X122124Y112772*
X121852Y112807*
X121586Y112872*
X121329Y112968*
X121085Y113092*
X120856Y113243*
X120645Y113419*
X120456Y113618*
X120291Y113837*
X120152Y114073*
X120040Y114323*
X119957Y114585*
X119750Y114550*
X119541Y114537*
X106549*
X106311Y114553*
X106077Y114600*
X105851Y114676*
X105637Y114782*
X105438Y114915*
X105259Y115072*
X105101Y115252*
X104969Y115450*
X104863Y115664*
X104786Y115890*
X104740Y116124*
X104724Y116362*
Y126680*
X104581Y126673*
X25841*
X25627Y126689*
X25418Y126734*
X25218Y126809*
X25030Y126911*
X24859Y127040*
X24707Y127191*
X24579Y127362*
X24476Y127550*
X24402Y127750*
X24356Y127959*
X24341Y128173*
Y214787*
X24356Y215001*
X24402Y215210*
X24476Y215410*
X24579Y215598*
X24707Y215769*
X24858Y215920*
X25030Y216049*
X25217Y216152*
X25418Y216226*
X25627Y216272*
X25841Y216287*
X104581*
X104724Y216280*
Y229043*
X104581Y229035*
X25841*
X25627Y229051*
X25418Y229096*
X25218Y229171*
X25030Y229274*
X24859Y229402*
X24707Y229553*
X24579Y229724*
X24476Y229912*
X24402Y230113*
X24356Y230322*
X24341Y230535*
Y317150*
X24356Y317363*
X24402Y317572*
X24476Y317772*
X24579Y317960*
X24707Y318131*
X24858Y318283*
X25030Y318411*
X25217Y318514*
X25418Y318589*
X25627Y318634*
X25841Y318650*
X104581*
X104794Y318634*
X105003Y318589*
X105204Y318514*
X105391Y318411*
X105563Y318283*
X105714Y318132*
X105842Y317961*
X105945Y317773*
X106020Y317572*
X106065Y317363*
X106081Y317150*
Y301591*
X106313Y301636*
X106549Y301652*
X107874*
Y303325*
X115067*
Y301652*
X115203*
X115411Y301813*
X115634Y301950*
X115872Y302063*
X116120Y302148*
X116376Y302207*
X116637Y302237*
X116899Y302239*
X117161Y302213*
X117417Y302158*
X117667Y302076*
X117906Y301967*
X118131Y301832*
X118341Y301674*
X118532Y301494*
X118703Y301295*
X118851Y301078*
X118975Y300846*
X119072Y300602*
X119143Y300350*
X119186Y300091*
X119201Y299827*
X119187Y299565*
X119144Y299306*
X119074Y299052*
X118976Y298809*
X118852Y298577*
X118704Y298360*
X118534Y298160*
X118343Y297980*
X118133Y297822*
X117907Y297688*
X117668Y297579*
X117419Y297496*
X117162Y297441*
X116901Y297414*
X116638Y297416*
X116377Y297446*
X116121Y297504*
X115872Y297590*
X115635Y297702*
X115411Y297840*
X115203Y298002*
X115067*
Y296722*
X108374*
Y296648*
X114886*
Y294704*
X115037Y294918*
X115212Y295114*
X115409Y295287*
X115625Y295437*
X115857Y295559*
X116102Y295654*
X116356Y295720*
X116617Y295755*
X116879Y295759*
X117140Y295733*
X117396Y295676*
X117644Y295589*
X117880Y295474*
X118101Y295333*
X118304Y295166*
X118485Y294976*
X118644Y294767*
X118776Y294541*
X118881Y294300*
X118957Y294049*
X119004Y293791*
X119020Y293528*
X119004Y293265*
X118958Y293007*
X118882Y292756*
X118777Y292515*
X118644Y292288*
X118486Y292079*
X118304Y291889*
X118102Y291722*
X117881Y291580*
X117645Y291465*
X117397Y291379*
X117141Y291322*
X116880Y291296*
X116617Y291300*
X116357Y291335*
X116102Y291400*
X115857Y291495*
X115626Y291618*
X115409Y291767*
X115213Y291941*
X115037Y292136*
X114886Y292352*
Y290407*
X108374*
Y200963*
X114083*
Y199486*
X115464*
X115683Y199614*
X115915Y199718*
X116157Y199797*
X116406Y199850*
X116658Y199877*
X116913*
X117165Y199850*
X117414Y199797*
X117656Y199718*
X117887Y199614*
X118107Y199486*
X122297*
X122535Y199470*
X122770Y199424*
X122996Y199347*
X123210Y199242*
X123408Y199109*
X123588Y198952*
X123745Y198772*
X123878Y198574*
X123983Y198359*
X124060Y198133*
X124107Y197899*
X124122Y197661*
Y116763*
X124276Y116566*
X124409Y116353*
Y319118*
X124425Y319356*
X124472Y319591*
X124548Y319817*
X124654Y320031*
X124787Y320229*
X124944Y320409*
X125124Y320566*
X125322Y320699*
X125536Y320804*
X125762Y320881*
X125996Y320928*
X126234Y320943*
X315998*
X316236Y320927*
X316470Y320881*
X316696Y320804*
X316911Y320698*
X317109Y320566*
X317289Y320408*
X317446Y320229*
X317579Y320030*
X317684Y319816*
X317761Y319590*
X317807Y319356*
X317823Y319118*
Y303325*
X319791*
Y301848*
X320188*
X320418Y301981*
X320660Y302088*
X320913Y302167*
X321173Y302219*
X321437Y302241*
X321702Y302234*
X321965Y302199*
X322222Y302135*
X322471Y302043*
X322708Y301924*
X322930Y301780*
X323136Y301613*
X323322Y301424*
X323486Y301215*
X323626Y300991*
X323741Y300752*
X323829Y300502*
X323889Y300243*
X323920Y299980*
X323922Y299715*
X323896Y299450*
X113764Y222268D02*
X113779Y222527D01*
X113824Y222783*
X113898Y223032*
X114001Y223270*
X114131Y223496*
X114286Y223704*
X114465Y223893*
X114664Y224060*
X114881Y224203*
X115113Y224319*
X115357Y224408*
X115610Y224468*
X115868Y224498*
X116128*
X116385Y224469*
X116638Y224409*
X116882Y224320*
X117115Y224203*
X117331Y224061*
X117531Y223894*
X117709Y223705*
X117864Y223496*
X117994Y223272*
X118097Y223033*
X118172Y222784*
X118217Y222528*
X118232Y222268*
X118217Y222008*
X118172Y221752*
X118098Y221504*
X117995Y221265*
X117865Y221040*
X117710Y220831*
X117531Y220643*
X117332Y220476*
X117115Y220333*
X116883Y220216*
X116639Y220127*
X116386Y220067*
X116128Y220037*
X115869*
X115611Y220067*
X115358Y220127*
X115114Y220216*
X114881Y220332*
X114665Y220475*
X114465Y220642*
X114287Y220831*
X114132Y221039*
X114002Y221264*
X113899Y221502*
X113824Y221751*
X113779Y222007*
X113764Y222268*
X318488D02*
X318503Y222527D01*
X318548Y222783*
X318623Y223032*
X318726Y223270*
X318856Y223496*
X319011Y223704*
X319189Y223893*
X319388Y224060*
X319605Y224203*
X319837Y224319*
X320081Y224408*
X320334Y224468*
X320592Y224498*
X320852*
X321110Y224469*
X321363Y224409*
X321607Y224320*
X321839Y224203*
X322056Y224061*
X322255Y223894*
X322433Y223705*
X322589Y223496*
X322719Y223272*
X322822Y223033*
X322896Y222784*
X322942Y222528*
X322957Y222268*
X322942Y222008*
X322896Y221752*
X322822Y221504*
X322719Y221265*
X322589Y221040*
X322434Y220831*
X322256Y220643*
X322057Y220476*
X321840Y220333*
X321607Y220216*
X321363Y220127*
X321111Y220067*
X320853Y220037*
X320593*
X320335Y220067*
X320082Y220127*
X319838Y220216*
X319606Y220332*
X319389Y220475*
X319190Y220642*
X319011Y220831*
X318856Y221039*
X318726Y221264*
X318623Y221502*
X318548Y221751*
X318503Y222007*
X318488Y222268*
X321244Y216756D02*
X321259Y217015D01*
X321304Y217271*
X321379Y217520*
X321481Y217759*
X321611Y217984*
X321767Y218192*
X321945Y218381*
X322144Y218548*
X322361Y218691*
X322593Y218807*
X322837Y218896*
X323090Y218956*
X323348Y218987*
X323608*
X323866Y218957*
X324119Y218897*
X324363Y218808*
X324595Y218691*
X324812Y218549*
X325011Y218382*
X325189Y218193*
X325344Y217985*
X325474Y217760*
X325578Y217521*
X325652Y217272*
X325698Y217017*
X325713Y216756*
X325698Y216496*
X325652Y216241*
X325578Y215992*
X325475Y215753*
X325345Y215528*
X325190Y215320*
X325012Y215131*
X324813Y214964*
X324596Y214821*
X324363Y214704*
X324119Y214615*
X323867Y214556*
X323609Y214525*
X323349*
X323091Y214555*
X322838Y214615*
X322594Y214704*
X322362Y214820*
X322145Y214963*
X321946Y215130*
X321767Y215319*
X321612Y215527*
X321482Y215752*
X321379Y215991*
X321304Y216239*
X321259Y216495*
X321244Y216756*
X319276Y230535D02*
X319291Y230795D01*
X319336Y231051*
X319410Y231300*
X319513Y231538*
X319643Y231763*
X319798Y231972*
X319976Y232161*
X320176Y232328*
X320393Y232470*
X320625Y232587*
X320869Y232676*
X321122Y232736*
X321380Y232766*
X321639*
X321897Y232736*
X322150Y232676*
X322394Y232587*
X322626Y232471*
X322843Y232328*
X323043Y232161*
X323221Y231972*
X323376Y231764*
X323506Y231539*
X323609Y231301*
X323684Y231052*
X323729Y230796*
X323744Y230535*
X323729Y230276*
X323684Y230020*
X323609Y229771*
X323507Y229533*
X323377Y229307*
X323222Y229099*
X323043Y228910*
X322844Y228743*
X322627Y228600*
X322395Y228484*
X322151Y228395*
X321898Y228335*
X321640Y228305*
X321380*
X321122Y228335*
X320870Y228394*
X320626Y228483*
X320393Y228600*
X320176Y228743*
X319977Y228909*
X319799Y229098*
X319644Y229307*
X319514Y229531*
X319411Y229770*
X319336Y230019*
X319291Y230275*
X319276Y230535*
X221904Y199486D02*
X222142Y199470D01*
X222376Y199424*
X222602Y199347*
X222816Y199242*
X223015Y199109*
X223194Y198952*
X223352Y198772*
X223484Y198574*
X223590Y198359*
X223667Y198133*
X223713Y197899*
X223728Y197661*
Y86047*
X223713Y85809*
X223666Y85575*
X223589Y85349*
X223484Y85135*
X223351Y84936*
X223194Y84757*
X223014Y84599*
X222816Y84467*
X222602Y84361*
X222376Y84284*
X222141Y84238*
X221904Y84222*
X208124*
X207932Y84233*
X207743Y84263*
X207557Y84313*
X207655Y84069*
X207726Y83815*
X207769Y83554*
X207783Y83291*
X207768Y83021*
X207723Y82754*
X207648Y82494*
X207544Y82243*
X207413Y82006*
X207257Y81785*
X207076Y81583*
X206874Y81403*
X206654Y81246*
X206417Y81115*
X206166Y81012*
X205906Y80937*
X205639Y80891*
X205369Y80876*
X205098Y80891*
X204831Y80936*
X204571Y81011*
X204320Y81115*
X204083Y81246*
X203863Y81402*
X203661Y81583*
X203480Y81785*
X203323Y82006*
X203192Y82243*
X203088Y82493*
X203013Y82753*
X202968Y83020*
X202953Y83291*
X202965Y83537*
X203003Y83781*
X203065Y84019*
X203151Y84250*
X203260Y84471*
X203391Y84680*
X203543Y84874*
Y103363*
X203380Y103574*
X203240Y103802*
X203127Y104045*
X203041Y104298*
X202984Y104560*
X202956Y104826*
X202957Y105094*
X202989Y105359*
X203049Y105620*
X203138Y105872*
X203254Y106113*
X203396Y106340*
X203563Y106550*
X203752Y106739*
X203960Y106907*
X204185Y107051*
X204426Y107169*
X204677Y107259*
X204937Y107321*
X205203Y107354*
X205470Y107358*
X205737Y107332*
X205716Y107516*
X205709Y107701*
X205724Y107971*
X205769Y108238*
X205844Y108498*
X205948Y108749*
X206079Y108986*
X206235Y109207*
X206416Y109409*
X206618Y109589*
X206839Y109746*
X207076Y109877*
X207326Y109980*
X207586Y110056*
X207853Y110101*
X208124Y110116*
X208394Y110101*
X208661Y110056*
X208921Y109981*
X209172Y109878*
X209409Y109746*
X209630Y109590*
X209831Y109409*
X210012Y109207*
X210169Y108987*
X210300Y108750*
X210404Y108499*
X210479Y108239*
X210524Y107972*
X210539Y107701*
X210527Y107455*
X210489Y107211*
X210427Y106973*
X210341Y106742*
X210232Y106521*
X210101Y106313*
X209949Y106119*
Y87872*
X218419*
X218187Y87967*
X217966Y88088*
X217761Y88233*
X217572Y88400*
X217404Y88587*
X217258Y88792*
X217136Y89011*
X217040Y89244*
X216970Y89485*
X216928Y89733*
X216913Y89984*
X216929Y90246*
X216975Y90505*
X217051Y90757*
X217156Y90998*
X217289Y91224*
X217447Y91434*
X217629Y91624*
X217832Y91791*
X218053Y91933*
X218289Y92048*
X218537Y92135*
X218794Y92191*
X219056Y92218*
X219319Y92213*
X219579Y92178*
X219833Y92112*
X220079Y92015*
Y195837*
X217429*
Y194360*
X210236*
Y200963*
X216535*
Y204937*
X216384Y205131*
X216253Y205340*
X216144Y205561*
X216057Y205792*
X215995Y206030*
X215958Y206273*
X215945Y206520*
X215960Y206790*
X216006Y207057*
X216080Y207317*
X216184Y207568*
X216315Y207805*
X216472Y208026*
X216652Y208228*
X216854Y208408*
X217075Y208565*
X217312Y208696*
X217562Y208799*
X217822Y208874*
X218089Y208920*
X218360Y208935*
X218630Y208920*
X218897Y208875*
X219157Y208800*
X219408Y208696*
X219645Y208565*
X219866Y208409*
X220068Y208228*
X220248Y208026*
X220405Y207806*
X220536Y207569*
X220640Y207318*
X220715Y207058*
X220761Y206791*
X220776Y206520*
X220763Y206274*
X220726Y206030*
X220663Y205792*
X220577Y205561*
X220468Y205340*
X220337Y205131*
X220185Y204937*
Y199486*
X221904*
X216732Y80142D02*
X216748Y80412D01*
X216793Y80679*
X216868Y80939*
X216971Y81190*
X217102Y81427*
X217259Y81648*
X217439Y81850*
X217641Y82030*
X217862Y82187*
X218099Y82318*
X218350Y82421*
X218610Y82496*
X218877Y82542*
X219147Y82557*
X219418Y82542*
X219685Y82497*
X219945Y82422*
X220195Y82319*
X220432Y82187*
X220653Y82031*
X220855Y81850*
X221036Y81648*
X221193Y81428*
X221324Y81191*
X221428Y80940*
X221503Y80680*
X221548Y80413*
X221563Y80142*
X221550Y79896*
X221513Y79652*
X221451Y79414*
X221365Y79183*
X221256Y78962*
X221124Y78754*
X220972Y78559*
Y17157*
X221124Y16963*
X221255Y16754*
X221364Y16533*
X221450Y16303*
X221513Y16065*
X221550Y15821*
X221563Y15575*
X221548Y15304*
X221502Y15037*
X221428Y14777*
X221324Y14527*
X221193Y14290*
X221036Y14069*
X220856Y13867*
X220654Y13687*
X220433Y13530*
X220196Y13399*
X219946Y13295*
X219685Y13220*
X219419Y13175*
X219148Y13159*
X218878Y13174*
X218611Y13220*
X218350Y13294*
X218100Y13398*
X217863Y13529*
X217642Y13686*
X217440Y13866*
X217259Y14068*
X217103Y14289*
X216972Y14526*
X216868Y14776*
X216793Y15037*
X216747Y15304*
X216732Y15575*
X216745Y15821*
X216782Y16064*
X216844Y16303*
X216931Y16533*
X217040Y16754*
X217171Y16963*
X217323Y17157*
Y78559*
X217171Y78754*
X217040Y78962*
X216931Y79183*
X216845Y79414*
X216783Y79652*
X216745Y79895*
X216732Y80142*
X210417Y194285D02*
X217248D01*
Y188045*
X210417*
Y194285*
X194472Y85654D02*
X194487Y85913D01*
X194533Y86169*
X194607Y86418*
X194710Y86656*
X194840Y86881*
X194995Y87090*
X195173Y87279*
X195372Y87446*
X195589Y87589*
X195822Y87705*
X196066Y87794*
X196319Y87854*
X196576Y87884*
X196836*
X197094Y87854*
X197347Y87794*
X197591Y87706*
X197823Y87589*
X198040Y87446*
X198239Y87280*
X198418Y87091*
X198573Y86882*
X198703Y86657*
X198806Y86419*
X198881Y86170*
X198926Y85914*
X198941Y85654*
X198926Y85394*
X198881Y85138*
X198806Y84889*
X198704Y84651*
X198574Y84426*
X198419Y84217*
X198240Y84028*
X198041Y83861*
X197824Y83719*
X197592Y83602*
X197348Y83513*
X197095Y83453*
X196837Y83423*
X196577*
X196319Y83453*
X196067Y83513*
X195822Y83602*
X195590Y83718*
X195373Y83861*
X195174Y84028*
X194996Y84217*
X194841Y84425*
X194711Y84650*
X194607Y84888*
X194533Y85137*
X194487Y85393*
X194472Y85654*
X161008Y47858D02*
X161023Y48118D01*
X161068Y48374*
X161143Y48622*
X161245Y48861*
X161375Y49086*
X161530Y49294*
X161709Y49483*
X161908Y49650*
X162125Y49793*
X162357Y49910*
X162601Y49999*
X162854Y50059*
X163112Y50089*
X163372*
X163630Y50059*
X163882Y49999*
X164126Y49910*
X164359Y49794*
X164576Y49651*
X164775Y49484*
X164953Y49295*
X165108Y49087*
X165238Y48862*
X165341Y48624*
X165416Y48375*
X165461Y48119*
X165476Y47858*
X165461Y47599*
X165416Y47343*
X165342Y47094*
X165239Y46856*
X165109Y46630*
X164954Y46422*
X164776Y46233*
X164576Y46066*
X164359Y45923*
X164127Y45807*
X163883Y45718*
X163630Y45658*
X163372Y45628*
X163113*
X162855Y45657*
X162602Y45717*
X162358Y45806*
X162126Y45923*
X161909Y46065*
X161709Y46232*
X161531Y46421*
X161376Y46630*
X161246Y46854*
X161143Y47093*
X161068Y47342*
X161023Y47598*
X161008Y47858*
X163370Y39197D02*
X163385Y39456D01*
X163430Y39712*
X163505Y39961*
X163607Y40200*
X163737Y40425*
X163893Y40633*
X164071Y40822*
X164270Y40989*
X164487Y41132*
X164719Y41248*
X164963Y41337*
X165216Y41397*
X165474Y41428*
X165734*
X165992Y41398*
X166244Y41338*
X166489Y41249*
X166721Y41132*
X166938Y40990*
X167137Y40823*
X167315Y40634*
X167470Y40426*
X167600Y40201*
X167704Y39962*
X167778Y39713*
X167824Y39457*
X167839Y39197*
X167824Y38937*
X167778Y38681*
X167704Y38433*
X167601Y38194*
X167471Y37969*
X167316Y37761*
X167138Y37572*
X166939Y37405*
X166722Y37262*
X166489Y37145*
X166245Y37056*
X165993Y36996*
X165735Y36966*
X165475*
X165217Y36996*
X164964Y37056*
X164720Y37145*
X164488Y37261*
X164271Y37404*
X164072Y37571*
X163893Y37760*
X163738Y37968*
X163608Y38193*
X163505Y38431*
X163430Y38680*
X163385Y38936*
X163370Y39197*
X206935Y57163D02*
X207143Y57324D01*
X207367Y57462*
X207604Y57574*
X207852Y57660*
X208108Y57719*
X208369Y57749*
X208631Y57751*
X208893Y57724*
X209150Y57670*
X209399Y57587*
X209638Y57478*
X209863Y57344*
X210073Y57186*
X210265Y57006*
X210435Y56807*
X210583Y56590*
X210707Y56358*
X210805Y56114*
X210876Y55861*
X210919Y55602*
X210933Y55339*
X210919Y55076*
X210876Y54817*
X210806Y54564*
X210708Y54320*
X210585Y54089*
X210437Y53872*
X210266Y53672*
X210075Y53492*
X209865Y53334*
X209639Y53200*
X209400Y53091*
X209151Y53008*
X208894Y52953*
X208633Y52926*
X208370Y52928*
X208109Y52958*
X207853Y53016*
X207605Y53102*
X207367Y53214*
X207143Y53352*
X206935Y53514*
X205376*
X205168Y53353*
X204944Y53215*
X204707Y53103*
X204459Y53017*
X204203Y52958*
X203942Y52928*
X203680Y52926*
X203418Y52953*
X203161Y53007*
X202912Y53090*
X202673Y53199*
X202448Y53333*
X202238Y53491*
X202046Y53671*
X201876Y53870*
X201728Y54087*
X201604Y54319*
X201506Y54563*
X201435Y54816*
X201393Y55075*
X201378Y55339*
X201392Y55601*
X201435Y55860*
X201505Y56113*
X201603Y56357*
X201726Y56589*
X201874Y56806*
X202045Y57005*
X202236Y57185*
X202446Y57343*
X202672Y57478*
X202911Y57587*
X203160Y57669*
X203417Y57724*
X203678Y57751*
X203941Y57750*
X204202Y57719*
X204458Y57661*
X204706Y57575*
X204944Y57463*
X205168Y57326*
X205376Y57163*
X206935*
X321244Y128173D02*
X321259Y128433D01*
X321304Y128689*
X321379Y128937*
X321481Y129176*
X321611Y129401*
X321767Y129609*
X321945Y129798*
X322144Y129965*
X322361Y130108*
X322593Y130225*
X322837Y130314*
X323090Y130374*
X323348Y130404*
X323608*
X323866Y130374*
X324119Y130314*
X324363Y130225*
X324595Y130109*
X324812Y129966*
X325011Y129799*
X325189Y129610*
X325344Y129402*
X325474Y129177*
X325578Y128939*
X325652Y128690*
X325698Y128434*
X325713Y128173*
X325698Y127914*
X325652Y127658*
X325578Y127409*
X325475Y127170*
X325345Y126945*
X325190Y126737*
X325012Y126548*
X324813Y126381*
X324596Y126238*
X324363Y126122*
X324119Y126033*
X323867Y125973*
X323609Y125943*
X323349*
X323091Y125972*
X322838Y126032*
X322594Y126121*
X322362Y126238*
X322145Y126380*
X321946Y126547*
X321767Y126736*
X321612Y126944*
X321482Y127169*
X321379Y127408*
X321304Y127657*
X321259Y127913*
X321244Y128173*
X318488Y17543D02*
X318503Y17803D01*
X318548Y18059*
X318623Y18307*
X318726Y18546*
X318856Y18771*
X319011Y18980*
X319189Y19169*
X319388Y19335*
X319605Y19478*
X319837Y19595*
X320081Y19684*
X320334Y19744*
X320592Y19774*
X320852*
X321110Y19744*
X321363Y19684*
X321607Y19595*
X321839Y19479*
X322056Y19336*
X322255Y19169*
X322433Y18980*
X322589Y18772*
X322719Y18547*
X322822Y18309*
X322896Y18060*
X322942Y17804*
X322957Y17543*
X322942Y17284*
X322896Y17028*
X322822Y16779*
X322719Y16541*
X322589Y16315*
X322434Y16107*
X322256Y15918*
X322057Y15751*
X321840Y15608*
X321607Y15492*
X321363Y15403*
X321111Y15343*
X320853Y15313*
X320593*
X320335Y15343*
X320082Y15402*
X319838Y15491*
X319606Y15608*
X319389Y15750*
X319190Y15917*
X319011Y16106*
X318856Y16315*
X318726Y16539*
X318623Y16778*
X318548Y17027*
X318503Y17283*
X318488Y17543*
X321654Y12031D02*
X321669Y12433D01*
X321713Y12831*
X321788Y13226*
X321892Y13614*
X322025Y13993*
X322185Y14360*
X322373Y14715*
X322586Y15055*
X322824Y15378*
X323086Y15682*
X323370Y15966*
X323674Y16228*
X323997Y16466*
X324337Y16679*
X324692Y16867*
X325059Y17028*
X325438Y17160*
X325826Y17264*
X326220Y17339*
X326619Y17384*
X327020Y17399*
X327422Y17384*
X327820Y17339*
X328215Y17265*
X328603Y17161*
X328981Y17028*
X329349Y16868*
X329704Y16681*
X330044Y16467*
X330367Y16229*
X330671Y15967*
X330955Y15683*
X331217Y15380*
X331455Y15057*
X331669Y14717*
X331857Y14362*
X332017Y13994*
X332150Y13616*
X332254Y13228*
X332329Y12834*
X332374Y12435*
X332390Y12031*
X332375Y11630*
X332330Y11231*
X332255Y10837*
X332151Y10449*
X332019Y10070*
X331858Y9703*
X331670Y9348*
X331457Y9008*
X331219Y8685*
X330957Y8381*
X330673Y8097*
X330369Y7835*
X330046Y7597*
X329706Y7384*
X329352Y7196*
X328984Y7035*
X328605Y6903*
X328217Y6799*
X327823Y6724*
X327424Y6679*
X327023Y6664*
X326622Y6679*
X326223Y6724*
X325828Y6798*
X325441Y6902*
X325062Y7035*
X324694Y7195*
X324339Y7382*
X324000Y7596*
X323677Y7834*
X323372Y8096*
X323089Y8380*
X322827Y8683*
X322588Y9006*
X322374Y9346*
X322187Y9701*
X322026Y10069*
X321893Y10447*
X321789Y10835*
X321715Y11229*
X321669Y11628*
X321654Y12031*
X134630Y47858D02*
X134645Y48118D01*
X134690Y48374*
X134765Y48622*
X134867Y48861*
X134997Y49086*
X135152Y49294*
X135331Y49483*
X135530Y49650*
X135747Y49793*
X135979Y49910*
X136223Y49999*
X136476Y50059*
X136734Y50089*
X136994*
X137252Y50059*
X137504Y49999*
X137748Y49910*
X137981Y49794*
X138198Y49651*
X138397Y49484*
X138575Y49295*
X138730Y49087*
X138860Y48862*
X138963Y48624*
X139038Y48375*
X139083Y48119*
X139098Y47858*
X139083Y47599*
X139038Y47343*
X138964Y47094*
X138861Y46856*
X138731Y46630*
X138576Y46422*
X138398Y46233*
X138198Y46066*
X137981Y45923*
X137749Y45807*
X137505Y45718*
X137252Y45658*
X136994Y45628*
X136735*
X136477Y45657*
X136224Y45717*
X135980Y45806*
X135748Y45923*
X135531Y46065*
X135331Y46232*
X135153Y46421*
X134998Y46630*
X134868Y46854*
X134765Y47093*
X134690Y47342*
X134645Y47598*
X134630Y47858*
X106087Y97829D02*
X112917D01*
Y91589*
X106087*
Y97829*
X321654Y330929D02*
X321669Y331330D01*
X321713Y331729*
X321788Y332124*
X321892Y332511*
X322025Y332890*
X322185Y333258*
X322373Y333613*
X322586Y333952*
X322824Y334275*
X323086Y334580*
X323370Y334863*
X323674Y335125*
X323997Y335363*
X324337Y335577*
X324692Y335765*
X325059Y335925*
X325438Y336058*
X325826Y336162*
X326220Y336237*
X326619Y336281*
X327020Y336296*
X327422Y336281*
X327820Y336237*
X328215Y336162*
X328603Y336058*
X328981Y335926*
X329349Y335766*
X329704Y335578*
X330044Y335365*
X330367Y335127*
X330671Y334865*
X330955Y334581*
X331217Y334277*
X331455Y333954*
X331669Y333615*
X331857Y333260*
X332017Y332892*
X332150Y332513*
X332254Y332126*
X332329Y331731*
X332374Y331333*
X332390Y330929*
X332375Y330528*
X332330Y330129*
X332255Y329735*
X332151Y329347*
X332019Y328968*
X331858Y328600*
X331670Y328246*
X331457Y327906*
X331219Y327583*
X330957Y327279*
X330673Y326995*
X330369Y326733*
X330046Y326495*
X329706Y326281*
X329352Y326094*
X328984Y325933*
X328605Y325800*
X328217Y325696*
X327823Y325622*
X327424Y325577*
X327023Y325562*
X326622Y325577*
X326223Y325622*
X325828Y325696*
X325441Y325800*
X325062Y325932*
X324694Y326093*
X324339Y326280*
X324000Y326493*
X323677Y326731*
X323372Y326993*
X323089Y327277*
X322827Y327581*
X322588Y327904*
X322374Y328244*
X322187Y328598*
X322026Y328966*
X321893Y329345*
X321789Y329733*
X321715Y330127*
X321669Y330526*
X321654Y330929*
X1750Y6112D02*
X333396D01*
X1750Y6610D02*
X333396D01*
X1750Y7108D02*
X5984D01*
X10264D02*
X144725D01*
X312468D02*
X324882D01*
X329161D02*
X333396D01*
X1750Y7606D02*
X5085D01*
X11163D02*
X144322D01*
X312871D02*
X323983D01*
X330061D02*
X333396D01*
X1750Y8104D02*
X4464D01*
X11784D02*
X144135D01*
X313057D02*
X323362D01*
X330681D02*
X333396D01*
X1750Y8602D02*
X3994D01*
X12254D02*
X144094D01*
X313098D02*
X322892D01*
X331152D02*
X333396D01*
X1750Y9100D02*
X3627D01*
X12621D02*
X144094D01*
X313098D02*
X322524D01*
X331519D02*
X333396D01*
X1750Y9598D02*
X3339D01*
X12909D02*
X144094D01*
X313098D02*
X322237D01*
X331807D02*
X333396D01*
X1750Y10096D02*
X3117D01*
X13131D02*
X144094D01*
X313098D02*
X322015D01*
X332029D02*
X333396D01*
X1750Y10594D02*
X2952D01*
X13296D02*
X144094D01*
X209622D02*
X309449D01*
X313098D02*
X321850D01*
X332194D02*
X333396D01*
X1750Y11093D02*
X2839D01*
X13409D02*
X144094D01*
X209949D02*
X309449D01*
X313098D02*
X321736D01*
X332307D02*
X333396D01*
X1750Y11591D02*
X2774D01*
X13474D02*
X144094D01*
X210208D02*
X309449D01*
X313098D02*
X321672D01*
X332372D02*
X333396D01*
X1750Y12089D02*
X2756D01*
X13492D02*
X144094D01*
X210410D02*
X309449D01*
X313098D02*
X321654D01*
X332390D02*
X333396D01*
X1750Y12587D02*
X2785D01*
X13463D02*
X144094D01*
X210560D02*
X309449D01*
X313098D02*
X321682D01*
X332361D02*
X333396D01*
X1750Y13085D02*
X2860D01*
X13388D02*
X144094D01*
X210663D02*
X309449D01*
X313098D02*
X321758D01*
X332285D02*
X333396D01*
X1750Y13583D02*
X2985D01*
X13263D02*
X144094D01*
X210721D02*
X217782D01*
X220513D02*
X309449D01*
X313098D02*
X321883D01*
X332161D02*
X333396D01*
X1750Y14081D02*
X3163D01*
X13085D02*
X144094D01*
X210736D02*
X217250D01*
X221045D02*
X309449D01*
X313098D02*
X322060D01*
X331983D02*
X333396D01*
X1750Y14579D02*
X3399D01*
X12849D02*
X144094D01*
X210707D02*
X216947D01*
X221348D02*
X309449D01*
X313098D02*
X322296D01*
X331747D02*
X333396D01*
X1750Y15077D02*
X3703D01*
X12545D02*
X144094D01*
X210635D02*
X216784D01*
X221511D02*
X309449D01*
X313098D02*
X322601D01*
X331443D02*
X333396D01*
X1750Y15575D02*
X4091D01*
X12157D02*
X144094D01*
X210517D02*
X216732D01*
X221563D02*
X309449D01*
X313098D02*
X319666D01*
X321779D02*
X322989D01*
X331054D02*
X333396D01*
X1750Y16073D02*
X4591D01*
X11657D02*
X144094D01*
X210350D02*
X216784D01*
X221511D02*
X309449D01*
X313098D02*
X319040D01*
X322405D02*
X323488D01*
X330555D02*
X333396D01*
X1750Y16571D02*
X5259D01*
X10989D02*
X144094D01*
X210131D02*
X216947D01*
X221348D02*
X309449D01*
X313098D02*
X318711D01*
X322734D02*
X324156D01*
X329887D02*
X333396D01*
X1750Y17069D02*
X6269D01*
X9979D02*
X144094D01*
X170266D02*
X170570D01*
X180323D02*
X180413D01*
X190166D02*
X190256D01*
X200008D02*
X200098D01*
X209851D02*
X217250D01*
X221045D02*
X309449D01*
X313098D02*
X318539D01*
X322906D02*
X325167D01*
X328877D02*
X333396D01*
X1750Y17567D02*
X144094D01*
X169896D02*
X170922D01*
X179972D02*
X180765D01*
X189814D02*
X190607D01*
X199657D02*
X200450D01*
X209499D02*
X213426D01*
X214633D02*
X217323D01*
X220972D02*
X309449D01*
X313098D02*
X318488D01*
X322957D02*
X333396D01*
X1750Y18065D02*
X144094D01*
X169428D02*
X171363D01*
X179530D02*
X181206D01*
X189373D02*
X191048D01*
X199215D02*
X200891D01*
X209058D02*
X212466D01*
X215593D02*
X217323D01*
X220972D02*
X309449D01*
X313098D02*
X318550D01*
X322895D02*
X333396D01*
X1750Y18563D02*
X144094D01*
X168818D02*
X171929D01*
X178965D02*
X181771D01*
X188807D02*
X191614D01*
X198650D02*
X201456D01*
X208493D02*
X212022D01*
X216037D02*
X217323D01*
X220972D02*
X309449D01*
X313098D02*
X318734D01*
X322711D02*
X333396D01*
X1750Y19061D02*
X144094D01*
X167956D02*
X172693D01*
X178201D02*
X182536D01*
X188043D02*
X192378D01*
X197885D02*
X202220D01*
X207728D02*
X209543D01*
X211429D02*
X211767D01*
X216293D02*
X217323D01*
X220972D02*
X309449D01*
X313098D02*
X319083D01*
X322362D02*
X333396D01*
X1750Y19559D02*
X144094D01*
X167235D02*
X173932D01*
X176961D02*
X183775D01*
X186804D02*
X193617D01*
X196646D02*
X203460D01*
X206489D02*
X208856D01*
X216420D02*
X217323D01*
X220972D02*
X309449D01*
X313098D02*
X319759D01*
X321686D02*
X333396D01*
X1750Y20057D02*
X144094D01*
X167587D02*
X208503D01*
X216440D02*
X217323D01*
X220972D02*
X309449D01*
X313098D02*
X333396D01*
X1750Y20555D02*
X144094D01*
X167774D02*
X208316D01*
X216356D02*
X217323D01*
X220972D02*
X309449D01*
X313098D02*
X333396D01*
X1750Y21053D02*
X144094D01*
X167839D02*
X208252D01*
X216155D02*
X217323D01*
X220972D02*
X309449D01*
X313098D02*
X333396D01*
X1750Y21551D02*
X144094D01*
X167790D02*
X208301D01*
X215854D02*
X217323D01*
X220972D02*
X309449D01*
X313098D02*
X333396D01*
X1750Y22049D02*
X144094D01*
X167620D02*
X208470D01*
X215854D02*
X217323D01*
X220972D02*
X309449D01*
X313098D02*
X333396D01*
X1750Y22547D02*
X144094D01*
X167295D02*
X208796D01*
X215854D02*
X217323D01*
X220972D02*
X309449D01*
X313098D02*
X333396D01*
X1750Y23045D02*
X144094D01*
X166679D02*
X209411D01*
X215854D02*
X217323D01*
X220972D02*
X309449D01*
X313098D02*
X333396D01*
X1750Y23543D02*
X144094D01*
X215854D02*
X217323D01*
X220972D02*
X309449D01*
X313098D02*
X333396D01*
X1750Y24041D02*
X144094D01*
X215854D02*
X217323D01*
X220972D02*
X309449D01*
X313098D02*
X333396D01*
X1750Y24539D02*
X25045D01*
X105376D02*
X144094D01*
X215854D02*
X217323D01*
X220972D02*
X229769D01*
X313098D02*
X333396D01*
X1750Y25037D02*
X24556D01*
X105866D02*
X144094D01*
X215854D02*
X217323D01*
X220972D02*
X229280D01*
X313098D02*
X333396D01*
X1750Y25535D02*
X24366D01*
X106055D02*
X144094D01*
X215781D02*
X217323D01*
X220972D02*
X229091D01*
X313098D02*
X333396D01*
X1750Y26033D02*
X24341D01*
X106081D02*
X144094D01*
X215550D02*
X217323D01*
X220972D02*
X229065D01*
X313098D02*
X333396D01*
X1750Y26531D02*
X24341D01*
X106081D02*
X144094D01*
X215057D02*
X217323D01*
X220972D02*
X229065D01*
X313098D02*
X333396D01*
X1750Y27030D02*
X24341D01*
X106081D02*
X144094D01*
X157980D02*
X161429D01*
X209389D02*
X217323D01*
X220972D02*
X229065D01*
X313098D02*
X333396D01*
X1750Y27528D02*
X24341D01*
X106081D02*
X144094D01*
X157980D02*
X161035D01*
X209763D02*
X217323D01*
X220972D02*
X229065D01*
X313098D02*
X333396D01*
X1750Y28026D02*
X24341D01*
X106081D02*
X144094D01*
X157980D02*
X160724D01*
X210061D02*
X217323D01*
X220972D02*
X229065D01*
X313098D02*
X333396D01*
X1750Y28524D02*
X24341D01*
X106081D02*
X144094D01*
X157980D02*
X160479D01*
X210296D02*
X217323D01*
X220972D02*
X229065D01*
X313098D02*
X333396D01*
X1750Y29022D02*
X24341D01*
X106081D02*
X144094D01*
X157980D02*
X160292D01*
X210476D02*
X217323D01*
X220972D02*
X229065D01*
X313098D02*
X333396D01*
X1750Y29520D02*
X24341D01*
X106081D02*
X144094D01*
X157980D02*
X160157D01*
X210607D02*
X217323D01*
X220972D02*
X229065D01*
X313098D02*
X333396D01*
X1750Y30018D02*
X24341D01*
X106081D02*
X144094D01*
X157980D02*
X160070D01*
X210691D02*
X217323D01*
X220972D02*
X229065D01*
X313098D02*
X333396D01*
X1750Y30516D02*
X24341D01*
X106081D02*
X144094D01*
X157980D02*
X160028D01*
X210732D02*
X217323D01*
X220972D02*
X229065D01*
X313098D02*
X333396D01*
X1750Y31014D02*
X24341D01*
X106081D02*
X144094D01*
X157980D02*
X160031D01*
X210729D02*
X217323D01*
X220972D02*
X229065D01*
X313098D02*
X333396D01*
X1750Y31512D02*
X24341D01*
X106081D02*
X144094D01*
X157980D02*
X160078D01*
X210683D02*
X217323D01*
X220972D02*
X229065D01*
X313098D02*
X333396D01*
X1750Y32010D02*
X24341D01*
X106081D02*
X144094D01*
X157980D02*
X160172D01*
X210593D02*
X217323D01*
X220972D02*
X229065D01*
X313098D02*
X333396D01*
X1750Y32508D02*
X24341D01*
X106081D02*
X144094D01*
X157980D02*
X160314D01*
X210456D02*
X217323D01*
X220972D02*
X229065D01*
X313098D02*
X333396D01*
X1750Y33006D02*
X24341D01*
X106081D02*
X144094D01*
X157980D02*
X160508D01*
X210269D02*
X217323D01*
X220972D02*
X229065D01*
X313098D02*
X333396D01*
X1750Y33504D02*
X24341D01*
X106081D02*
X144094D01*
X157980D02*
X160761D01*
X210026D02*
X217323D01*
X220972D02*
X229065D01*
X313098D02*
X333396D01*
X1750Y34002D02*
X24341D01*
X106081D02*
X144094D01*
X157980D02*
X161082D01*
X170127D02*
X170703D01*
X190033D02*
X190388D01*
X199876D02*
X200230D01*
X209719D02*
X217323D01*
X220972D02*
X229065D01*
X313098D02*
X333396D01*
X1750Y34500D02*
X24341D01*
X106081D02*
X144094D01*
X157980D02*
X161487D01*
X169721D02*
X171088D01*
X189648D02*
X190773D01*
X199491D02*
X200615D01*
X209333D02*
X217323D01*
X220972D02*
X229065D01*
X313098D02*
X333396D01*
X1750Y34998D02*
X24341D01*
X106081D02*
X144094D01*
X157980D02*
X162006D01*
X169203D02*
X171574D01*
X189163D02*
X191259D01*
X199005D02*
X201101D01*
X208848D02*
X217323D01*
X220972D02*
X229065D01*
X313098D02*
X333396D01*
X1750Y35496D02*
X24341D01*
X106081D02*
X144094D01*
X157980D02*
X162697D01*
X168511D02*
X172206D01*
X188531D02*
X191891D01*
X198373D02*
X201733D01*
X208216D02*
X217323D01*
X220972D02*
X229065D01*
X313098D02*
X333396D01*
X1750Y35994D02*
X24341D01*
X106081D02*
X144094D01*
X157980D02*
X163745D01*
X167464D02*
X173099D01*
X187637D02*
X192785D01*
X197479D02*
X198141D01*
X200784D02*
X202472D01*
X207322D02*
X217323D01*
X220972D02*
X229065D01*
X313098D02*
X333396D01*
X1750Y36492D02*
X24341D01*
X106081D02*
X144094D01*
X157980D02*
X158209D01*
X159614D02*
X169718D01*
X187114D02*
X194988D01*
X195276D02*
X197589D01*
X201337D02*
X201919D01*
X206799D02*
X217323D01*
X220972D02*
X229065D01*
X313098D02*
X333396D01*
X1750Y36990D02*
X24341D01*
X106081D02*
X144094D01*
X160507D02*
X165254D01*
X165954D02*
X169213D01*
X187114D02*
X197276D01*
X206799D02*
X217323D01*
X220972D02*
X229065D01*
X313098D02*
X333396D01*
X1750Y37488D02*
X24341D01*
X106081D02*
X144094D01*
X160937D02*
X164165D01*
X167044D02*
X168976D01*
X187114D02*
X197106D01*
X206799D02*
X217323D01*
X220972D02*
X229065D01*
X313098D02*
X333396D01*
X1750Y37986D02*
X24341D01*
X106081D02*
X144094D01*
X161184D02*
X163726D01*
X167482D02*
X168898D01*
X187114D02*
X197047D01*
X206799D02*
X217323D01*
X220972D02*
X229065D01*
X313098D02*
X333396D01*
X1750Y38484D02*
X24341D01*
X106081D02*
X144094D01*
X161306D02*
X163487D01*
X167722D02*
X168898D01*
X187114D02*
X197093D01*
X206738D02*
X217323D01*
X220972D02*
X229065D01*
X313098D02*
X333396D01*
X1750Y38982D02*
X24341D01*
X106081D02*
X144094D01*
X161320D02*
X163380D01*
X167828D02*
X168898D01*
X187114D02*
X197249D01*
X206522D02*
X217323D01*
X220972D02*
X229065D01*
X313098D02*
X333396D01*
X1750Y39480D02*
X24341D01*
X106081D02*
X144094D01*
X161230D02*
X163388D01*
X167820D02*
X168898D01*
X187114D02*
X197542D01*
X201383D02*
X201872D01*
X206063D02*
X217323D01*
X220972D02*
X229065D01*
X313098D02*
X333396D01*
X1750Y39978D02*
X24341D01*
X106081D02*
X144094D01*
X161022D02*
X163511D01*
X167698D02*
X168898D01*
X187114D02*
X197638D01*
X201287D02*
X202385D01*
X205201D02*
X217323D01*
X220972D02*
X229065D01*
X313098D02*
X333396D01*
X1750Y40476D02*
X24341D01*
X106081D02*
X144094D01*
X160736D02*
X163773D01*
X167436D02*
X168898D01*
X187114D02*
X197638D01*
X201287D02*
X217323D01*
X220972D02*
X229065D01*
X313098D02*
X333396D01*
X1750Y40974D02*
X24341D01*
X106081D02*
X144094D01*
X160736D02*
X164251D01*
X166958D02*
X168898D01*
X187103D02*
X197638D01*
X201287D02*
X217323D01*
X220972D02*
X229065D01*
X313098D02*
X333396D01*
X1750Y41472D02*
X24341D01*
X106081D02*
X144094D01*
X160736D02*
X168898D01*
X186974D02*
X197638D01*
X201287D02*
X217323D01*
X220972D02*
X229065D01*
X313098D02*
X333396D01*
X1750Y41970D02*
X24341D01*
X106081D02*
X144094D01*
X160736D02*
X168898D01*
X186665D02*
X197638D01*
X201287D02*
X217323D01*
X220972D02*
X229065D01*
X313098D02*
X333396D01*
X1750Y42469D02*
X24341D01*
X106081D02*
X144094D01*
X160736D02*
X168898D01*
X185961D02*
X197638D01*
X201287D02*
X217323D01*
X220972D02*
X229065D01*
X313098D02*
X333396D01*
X1750Y42967D02*
X24341D01*
X106081D02*
X144094D01*
X160736D02*
X168898D01*
X178583D02*
X197638D01*
X201287D02*
X217323D01*
X220972D02*
X229065D01*
X313098D02*
X333396D01*
X1750Y43465D02*
X24341D01*
X106081D02*
X144094D01*
X160736D02*
X168898D01*
X178650D02*
X197638D01*
X201287D02*
X217323D01*
X220972D02*
X229065D01*
X313098D02*
X333396D01*
X1750Y43963D02*
X24341D01*
X106081D02*
X144094D01*
X160736D02*
X168950D01*
X178610D02*
X197638D01*
X201287D02*
X217323D01*
X220972D02*
X229065D01*
X313098D02*
X333396D01*
X1750Y44461D02*
X24341D01*
X106081D02*
X144094D01*
X160736D02*
X169154D01*
X178462D02*
X197638D01*
X201287D02*
X217323D01*
X220972D02*
X229065D01*
X313098D02*
X333396D01*
X1750Y44959D02*
X24341D01*
X106081D02*
X144094D01*
X160736D02*
X169590D01*
X178180D02*
X197638D01*
X201287D02*
X217323D01*
X220972D02*
X229065D01*
X313098D02*
X333396D01*
X1750Y45457D02*
X24341D01*
X106081D02*
X144094D01*
X160736D02*
X174781D01*
X177687D02*
X197638D01*
X201287D02*
X217323D01*
X220972D02*
X229065D01*
X313098D02*
X333396D01*
X1750Y45955D02*
X24341D01*
X106081D02*
X135694D01*
X138034D02*
X144094D01*
X160736D02*
X162072D01*
X164412D02*
X197638D01*
X201287D02*
X217323D01*
X220972D02*
X229065D01*
X313098D02*
X333396D01*
X1750Y46453D02*
X24341D01*
X106081D02*
X135128D01*
X138601D02*
X144094D01*
X160736D02*
X161506D01*
X164979D02*
X197638D01*
X201287D02*
X217323D01*
X220972D02*
X229065D01*
X313098D02*
X333396D01*
X1750Y46951D02*
X24341D01*
X106081D02*
X134822D01*
X138906D02*
X144094D01*
X160736D02*
X161200D01*
X165284D02*
X197638D01*
X201287D02*
X217323D01*
X220972D02*
X229065D01*
X313098D02*
X333396D01*
X1750Y47449D02*
X24341D01*
X106081D02*
X134668D01*
X139061D02*
X144094D01*
X160736D02*
X161046D01*
X165439D02*
X197638D01*
X201287D02*
X217323D01*
X220972D02*
X229065D01*
X313098D02*
X333396D01*
X1750Y47947D02*
X24341D01*
X106081D02*
X134631D01*
X139097D02*
X144094D01*
X160736D02*
X161009D01*
X165475D02*
X197638D01*
X201287D02*
X217323D01*
X220972D02*
X229065D01*
X313098D02*
X333396D01*
X1750Y48445D02*
X24341D01*
X106081D02*
X134708D01*
X139020D02*
X144094D01*
X160736D02*
X161086D01*
X165398D02*
X197638D01*
X201287D02*
X217323D01*
X220972D02*
X229065D01*
X313098D02*
X333396D01*
X1750Y48943D02*
X24341D01*
X106081D02*
X134911D01*
X138817D02*
X144094D01*
X160736D02*
X161289D01*
X165195D02*
X197638D01*
X201287D02*
X217323D01*
X220972D02*
X229065D01*
X313098D02*
X333396D01*
X1750Y49441D02*
X24341D01*
X106081D02*
X135287D01*
X138441D02*
X144094D01*
X160736D02*
X161665D01*
X164819D02*
X197638D01*
X201287D02*
X217323D01*
X220972D02*
X229065D01*
X313098D02*
X333396D01*
X1750Y49939D02*
X24341D01*
X106081D02*
X136050D01*
X137678D02*
X144094D01*
X160736D02*
X162428D01*
X164056D02*
X197638D01*
X201287D02*
X217323D01*
X220972D02*
X229065D01*
X313098D02*
X333396D01*
X1750Y50437D02*
X24341D01*
X106081D02*
X144094D01*
X160736D02*
X197638D01*
X201287D02*
X217323D01*
X220972D02*
X229065D01*
X313098D02*
X333396D01*
X1750Y50935D02*
X24341D01*
X106081D02*
X144094D01*
X160736D02*
X197638D01*
X201287D02*
X217323D01*
X220972D02*
X229065D01*
X313098D02*
X333396D01*
X1750Y51433D02*
X24341D01*
X106081D02*
X144094D01*
X160736D02*
X197638D01*
X201287D02*
X217323D01*
X220972D02*
X229065D01*
X313098D02*
X333396D01*
X1750Y51931D02*
X24341D01*
X106081D02*
X144094D01*
X160736D02*
X197638D01*
X201287D02*
X217323D01*
X220972D02*
X229065D01*
X313098D02*
X333396D01*
X1750Y52429D02*
X24341D01*
X106081D02*
X144094D01*
X160736D02*
X197638D01*
X201287D02*
X217323D01*
X220972D02*
X229065D01*
X313098D02*
X333396D01*
X1750Y52927D02*
X24341D01*
X106081D02*
X144094D01*
X160736D02*
X197638D01*
X201287D02*
X203656D01*
X203930D02*
X208381D01*
X208655D02*
X217323D01*
X220972D02*
X229065D01*
X313098D02*
X333396D01*
X1750Y53425D02*
X24341D01*
X106081D02*
X144094D01*
X160736D02*
X197638D01*
X201287D02*
X202319D01*
X205267D02*
X207044D01*
X209992D02*
X217323D01*
X220972D02*
X229065D01*
X313098D02*
X333396D01*
X1750Y53923D02*
X24341D01*
X106081D02*
X144094D01*
X160736D02*
X197638D01*
X201287D02*
X201836D01*
X210475D02*
X217323D01*
X220972D02*
X229065D01*
X313098D02*
X333396D01*
X1750Y54421D02*
X24341D01*
X106081D02*
X144094D01*
X160736D02*
X197638D01*
X201287D02*
X201559D01*
X210752D02*
X217323D01*
X220972D02*
X229065D01*
X313098D02*
X333396D01*
X1750Y54919D02*
X24341D01*
X106081D02*
X144094D01*
X160736D02*
X197638D01*
X201287D02*
X201415D01*
X210896D02*
X217323D01*
X220972D02*
X229065D01*
X313098D02*
X333396D01*
X1750Y55417D02*
X24341D01*
X106081D02*
X144094D01*
X160736D02*
X197638D01*
X201287D02*
X201379D01*
X210932D02*
X217323D01*
X220972D02*
X229065D01*
X313098D02*
X333396D01*
X1750Y55915D02*
X24341D01*
X106081D02*
X144094D01*
X160736D02*
X197638D01*
X201287D02*
X201448D01*
X210863D02*
X217323D01*
X220972D02*
X229065D01*
X313098D02*
X333396D01*
X1750Y56413D02*
X24341D01*
X106081D02*
X144094D01*
X160736D02*
X197638D01*
X201287D02*
X201630D01*
X210681D02*
X217323D01*
X220972D02*
X229065D01*
X313098D02*
X333396D01*
X1750Y56911D02*
X24341D01*
X106081D02*
X144094D01*
X160736D02*
X197638D01*
X201287D02*
X201960D01*
X210351D02*
X217323D01*
X220972D02*
X229065D01*
X313098D02*
X333396D01*
X1750Y57409D02*
X24341D01*
X106081D02*
X144094D01*
X160736D02*
X197638D01*
X201287D02*
X202550D01*
X205036D02*
X207275D01*
X209761D02*
X217323D01*
X220972D02*
X229065D01*
X313098D02*
X333396D01*
X1750Y57907D02*
X24341D01*
X106081D02*
X144094D01*
X160736D02*
X197638D01*
X201287D02*
X217323D01*
X220972D02*
X229065D01*
X313098D02*
X333396D01*
X1750Y58406D02*
X24341D01*
X106081D02*
X144094D01*
X160736D02*
X197638D01*
X201287D02*
X217323D01*
X220972D02*
X229065D01*
X313098D02*
X333396D01*
X1750Y58904D02*
X24341D01*
X106081D02*
X144094D01*
X160736D02*
X169293D01*
X172152D02*
X191340D01*
X194199D02*
X197638D01*
X201287D02*
X217323D01*
X220972D02*
X229065D01*
X313098D02*
X333396D01*
X1750Y59402D02*
X24341D01*
X106081D02*
X144094D01*
X160844D02*
X168790D01*
X194702D02*
X197530D01*
X201395D02*
X217323D01*
X220972D02*
X229065D01*
X313098D02*
X333396D01*
X1750Y59900D02*
X24341D01*
X106081D02*
X144094D01*
X161132D02*
X168502D01*
X194990D02*
X197243D01*
X201683D02*
X217323D01*
X220972D02*
X229065D01*
X313098D02*
X333396D01*
X1750Y60398D02*
X24341D01*
X106081D02*
X144094D01*
X161284D02*
X168350D01*
X195142D02*
X197090D01*
X201835D02*
X217323D01*
X220972D02*
X229065D01*
X313098D02*
X333396D01*
X1750Y60896D02*
X24341D01*
X106081D02*
X144094D01*
X161327D02*
X168307D01*
X195185D02*
X197047D01*
X201878D02*
X217323D01*
X220972D02*
X229065D01*
X313098D02*
X333396D01*
X1750Y61394D02*
X24341D01*
X106081D02*
X144094D01*
X161265D02*
X168369D01*
X195123D02*
X197109D01*
X201816D02*
X217323D01*
X220972D02*
X229065D01*
X313098D02*
X333396D01*
X1750Y61892D02*
X24341D01*
X106081D02*
X135058D01*
X194949D02*
X197283D01*
X201642D02*
X217323D01*
X220972D02*
X229065D01*
X313098D02*
X333396D01*
X1750Y62390D02*
X24341D01*
X106081D02*
X134323D01*
X194631D02*
X197601D01*
X201324D02*
X217323D01*
X220972D02*
X229065D01*
X313098D02*
X333396D01*
X1750Y62888D02*
X24341D01*
X106081D02*
X134006D01*
X185392D02*
X191472D01*
X194067D02*
X198165D01*
X200760D02*
X217323D01*
X220972D02*
X229065D01*
X313098D02*
X333396D01*
X1750Y63386D02*
X24341D01*
X106081D02*
X133872D01*
X185526D02*
X217323D01*
X220972D02*
X229065D01*
X313098D02*
X333396D01*
X1750Y63884D02*
X24341D01*
X106081D02*
X133858D01*
X185539D02*
X217323D01*
X220972D02*
X229065D01*
X313098D02*
X333396D01*
X1750Y64382D02*
X24341D01*
X106081D02*
X133858D01*
X185539D02*
X217323D01*
X220972D02*
X229065D01*
X313098D02*
X333396D01*
X1750Y64880D02*
X24341D01*
X106081D02*
X133858D01*
X185539D02*
X217323D01*
X220972D02*
X229065D01*
X313098D02*
X333396D01*
X1750Y65378D02*
X24341D01*
X106081D02*
X133858D01*
X185539D02*
X217323D01*
X220972D02*
X229065D01*
X313098D02*
X333396D01*
X1750Y65876D02*
X24341D01*
X106081D02*
X133858D01*
X185539D02*
X217323D01*
X220972D02*
X229065D01*
X313098D02*
X333396D01*
X1750Y66374D02*
X24341D01*
X106081D02*
X133858D01*
X185539D02*
X217323D01*
X220972D02*
X229065D01*
X313098D02*
X333396D01*
X1750Y66872D02*
X24341D01*
X106081D02*
X133858D01*
X185539D02*
X217323D01*
X220972D02*
X229065D01*
X313098D02*
X333396D01*
X1750Y67370D02*
X24341D01*
X106081D02*
X133858D01*
X185539D02*
X217323D01*
X220972D02*
X229065D01*
X313098D02*
X333396D01*
X1750Y67868D02*
X24341D01*
X106081D02*
X133858D01*
X185539D02*
X217323D01*
X220972D02*
X229065D01*
X313098D02*
X333396D01*
X1750Y68366D02*
X24341D01*
X106081D02*
X133858D01*
X185539D02*
X217323D01*
X220972D02*
X229065D01*
X313098D02*
X333396D01*
X1750Y68864D02*
X24341D01*
X106081D02*
X133858D01*
X185539D02*
X217323D01*
X220972D02*
X229065D01*
X313098D02*
X333396D01*
X1750Y69362D02*
X24341D01*
X106081D02*
X133858D01*
X185539D02*
X217323D01*
X220972D02*
X229065D01*
X313098D02*
X333396D01*
X1750Y69860D02*
X24341D01*
X106081D02*
X118208D01*
X120875D02*
X133858D01*
X185539D02*
X217323D01*
X220972D02*
X229065D01*
X313098D02*
X333396D01*
X1750Y70358D02*
X24341D01*
X106081D02*
X117661D01*
X121422D02*
X133858D01*
X185539D02*
X217323D01*
X220972D02*
X229065D01*
X313098D02*
X333396D01*
X1750Y70856D02*
X24341D01*
X106081D02*
X117351D01*
X121732D02*
X133858D01*
X185539D02*
X217323D01*
X220972D02*
X229065D01*
X313098D02*
X333396D01*
X1750Y71354D02*
X24341D01*
X106081D02*
X117183D01*
X121900D02*
X133858D01*
X185539D02*
X217323D01*
X220972D02*
X229065D01*
X313098D02*
X333396D01*
X1750Y71852D02*
X24341D01*
X106081D02*
X117126D01*
X121957D02*
X133858D01*
X185539D02*
X217323D01*
X220972D02*
X229065D01*
X313098D02*
X333396D01*
X1750Y72350D02*
X24341D01*
X106081D02*
X117174D01*
X121909D02*
X133858D01*
X185539D02*
X217323D01*
X220972D02*
X229065D01*
X313098D02*
X333396D01*
X1750Y72848D02*
X24341D01*
X106081D02*
X117331D01*
X121751D02*
X133858D01*
X185539D02*
X217323D01*
X220972D02*
X229065D01*
X313098D02*
X333396D01*
X1750Y73346D02*
X24341D01*
X106081D02*
X117627D01*
X121456D02*
X133858D01*
X185539D02*
X217323D01*
X220972D02*
X229065D01*
X313098D02*
X333396D01*
X1750Y73844D02*
X24341D01*
X106081D02*
X117717D01*
X121366D02*
X133858D01*
X185539D02*
X217323D01*
X220972D02*
X229065D01*
X313098D02*
X333396D01*
X1750Y74343D02*
X24341D01*
X106081D02*
X117717D01*
X121366D02*
X133858D01*
X185539D02*
X217323D01*
X220972D02*
X229065D01*
X313098D02*
X333396D01*
X1750Y74841D02*
X24341D01*
X106081D02*
X117717D01*
X121366D02*
X133858D01*
X185539D02*
X217323D01*
X220972D02*
X229065D01*
X313098D02*
X333396D01*
X1750Y75339D02*
X24341D01*
X106081D02*
X117717D01*
X121366D02*
X133858D01*
X185539D02*
X217323D01*
X220972D02*
X229065D01*
X313098D02*
X333396D01*
X1750Y75837D02*
X24341D01*
X106081D02*
X117717D01*
X121366D02*
X133858D01*
X185835D02*
X217323D01*
X220972D02*
X229065D01*
X313098D02*
X333396D01*
X1750Y76335D02*
X24341D01*
X106081D02*
X117717D01*
X121366D02*
X133858D01*
X186039D02*
X217323D01*
X220972D02*
X229065D01*
X313098D02*
X333396D01*
X1750Y76833D02*
X24341D01*
X106081D02*
X117717D01*
X121366D02*
X133858D01*
X186125D02*
X217323D01*
X220972D02*
X229065D01*
X313098D02*
X333396D01*
X1750Y77331D02*
X24341D01*
X106081D02*
X117717D01*
X121366D02*
X133858D01*
X186106D02*
X217323D01*
X220972D02*
X229065D01*
X313098D02*
X333396D01*
X1750Y77829D02*
X24341D01*
X106081D02*
X117717D01*
X121366D02*
X133858D01*
X185980D02*
X217323D01*
X220972D02*
X229065D01*
X313098D02*
X333396D01*
X1750Y78327D02*
X24341D01*
X106081D02*
X117717D01*
X121366D02*
X133858D01*
X185728D02*
X217323D01*
X220972D02*
X229065D01*
X313098D02*
X333396D01*
X1750Y78825D02*
X24341D01*
X106081D02*
X117717D01*
X121366D02*
X133858D01*
X185288D02*
X217123D01*
X221172D02*
X229065D01*
X313098D02*
X333396D01*
X1750Y79323D02*
X24341D01*
X106081D02*
X117717D01*
X121366D02*
X133858D01*
X148979D02*
X153096D01*
X157641D02*
X178581D01*
X184348D02*
X216876D01*
X221420D02*
X229065D01*
X313098D02*
X333396D01*
X1750Y79821D02*
X24341D01*
X106081D02*
X117717D01*
X121366D02*
X133858D01*
X149101D02*
X152974D01*
X157762D02*
X178543D01*
X183374D02*
X216754D01*
X221541D02*
X229065D01*
X313098D02*
X333396D01*
X1750Y80319D02*
X24341D01*
X106081D02*
X117717D01*
X121366D02*
X133858D01*
X149115D02*
X152959D01*
X157777D02*
X178612D01*
X183306D02*
X216739D01*
X221556D02*
X229065D01*
X313098D02*
X333396D01*
X1750Y80817D02*
X24341D01*
X106081D02*
X117717D01*
X121366D02*
X133858D01*
X149026D02*
X153049D01*
X157687D02*
X178793D01*
X183125D02*
X216829D01*
X221467D02*
X229065D01*
X313098D02*
X333396D01*
X1750Y81315D02*
X24341D01*
X106081D02*
X117717D01*
X121366D02*
X133858D01*
X148818D02*
X153257D01*
X157587D02*
X179120D01*
X182797D02*
X203980D01*
X206757D02*
X217036D01*
X221259D02*
X229065D01*
X313098D02*
X333396D01*
X1750Y81813D02*
X24341D01*
X106081D02*
X117717D01*
X121366D02*
X133858D01*
X148450D02*
X153624D01*
X157587D02*
X179706D01*
X182211D02*
X203458D01*
X207278D02*
X217404D01*
X220891D02*
X229065D01*
X313098D02*
X333396D01*
X1750Y82311D02*
X24341D01*
X106081D02*
X117717D01*
X121366D02*
X133858D01*
X137508D02*
X145645D01*
X147769D02*
X153937D01*
X157587D02*
X203161D01*
X207576D02*
X218085D01*
X220210D02*
X229065D01*
X313098D02*
X333396D01*
X1750Y82809D02*
X24341D01*
X106081D02*
X117717D01*
X121366D02*
X133858D01*
X137508D02*
X153937D01*
X157587D02*
X203002D01*
X207735D02*
X229065D01*
X313098D02*
X333396D01*
X1750Y83307D02*
X24341D01*
X106081D02*
X117717D01*
X121366D02*
X133858D01*
X137508D02*
X153937D01*
X157587D02*
X202953D01*
X207783D02*
X229065D01*
X313098D02*
X333396D01*
X1750Y83805D02*
X24341D01*
X106081D02*
X117717D01*
X121366D02*
X133858D01*
X137508D02*
X153937D01*
X157587D02*
X195452D01*
X197962D02*
X203008D01*
X207728D02*
X229065D01*
X313098D02*
X333396D01*
X1750Y84303D02*
X24341D01*
X106081D02*
X117717D01*
X121366D02*
X133858D01*
X137508D02*
X153937D01*
X157587D02*
X194927D01*
X198487D02*
X203175D01*
X207561D02*
X207588D01*
X222440D02*
X229065D01*
X313098D02*
X333396D01*
X1750Y84801D02*
X24341D01*
X106081D02*
X117717D01*
X121366D02*
X133858D01*
X137508D02*
X153937D01*
X157587D02*
X194641D01*
X198772D02*
X203483D01*
X223237D02*
X229065D01*
X313098D02*
X333396D01*
X1750Y85299D02*
X24341D01*
X106081D02*
X117717D01*
X121366D02*
X133858D01*
X137508D02*
X153937D01*
X157587D02*
X194501D01*
X198913D02*
X203543D01*
X223568D02*
X229065D01*
X313098D02*
X333396D01*
X1750Y85797D02*
X24341D01*
X106081D02*
X117717D01*
X121366D02*
X133858D01*
X137508D02*
X153937D01*
X157587D02*
X194477D01*
X198936D02*
X203543D01*
X223711D02*
X229065D01*
X319610D02*
X333396D01*
X1750Y86295D02*
X24341D01*
X106081D02*
X117717D01*
X121366D02*
X133858D01*
X137508D02*
X153937D01*
X157587D02*
X194567D01*
X198847D02*
X203543D01*
X223728D02*
X229065D01*
X319610D02*
X333396D01*
X1750Y86793D02*
X24341D01*
X106081D02*
X117717D01*
X121366D02*
X133858D01*
X137508D02*
X153937D01*
X157587D02*
X194785D01*
X198628D02*
X203543D01*
X223728D02*
X229065D01*
X319610D02*
X333396D01*
X1750Y87291D02*
X24341D01*
X106081D02*
X117717D01*
X121366D02*
X133858D01*
X137508D02*
X153937D01*
X157587D02*
X195187D01*
X198226D02*
X203543D01*
X223728D02*
X229065D01*
X319610D02*
X333396D01*
X1750Y87789D02*
X24341D01*
X106081D02*
X117717D01*
X121366D02*
X133858D01*
X137508D02*
X153937D01*
X157587D02*
X196051D01*
X197363D02*
X203543D01*
X223728D02*
X229065D01*
X319610D02*
X333396D01*
X1750Y88287D02*
X24341D01*
X106081D02*
X117717D01*
X121366D02*
X133858D01*
X137508D02*
X153937D01*
X157587D02*
X203543D01*
X209949D02*
X217694D01*
X223728D02*
X229065D01*
X319610D02*
X333396D01*
X1750Y88785D02*
X24341D01*
X106081D02*
X117717D01*
X121366D02*
X133858D01*
X137508D02*
X153937D01*
X157587D02*
X203543D01*
X209949D02*
X217262D01*
X223728D02*
X229065D01*
X319610D02*
X333396D01*
X1750Y89283D02*
X24341D01*
X106081D02*
X117717D01*
X121366D02*
X133858D01*
X137508D02*
X153937D01*
X157587D02*
X203543D01*
X209949D02*
X217026D01*
X223728D02*
X229065D01*
X319610D02*
X333396D01*
X1750Y89781D02*
X24341D01*
X106081D02*
X117717D01*
X121366D02*
X133858D01*
X137508D02*
X153937D01*
X157587D02*
X203543D01*
X209949D02*
X216922D01*
X223728D02*
X229065D01*
X319610D02*
X333396D01*
X1750Y90280D02*
X24341D01*
X106081D02*
X117717D01*
X121366D02*
X133858D01*
X137508D02*
X153937D01*
X157587D02*
X203543D01*
X209949D02*
X216933D01*
X223728D02*
X229065D01*
X319610D02*
X333396D01*
X1750Y90778D02*
X24341D01*
X106081D02*
X117717D01*
X121366D02*
X133573D01*
X137793D02*
X153937D01*
X157587D02*
X203543D01*
X209949D02*
X217059D01*
X223728D02*
X229065D01*
X319610D02*
X333396D01*
X1750Y91276D02*
X24341D01*
X106081D02*
X117717D01*
X121366D02*
X133365D01*
X138002D02*
X153937D01*
X157587D02*
X203543D01*
X209949D02*
X217324D01*
X223728D02*
X229065D01*
X319610D02*
X333396D01*
X1750Y91774D02*
X24341D01*
X106081D02*
X106087D01*
X112917D02*
X117717D01*
X121366D02*
X133274D01*
X138092D02*
X153937D01*
X157587D02*
X203543D01*
X209949D02*
X217809D01*
X223728D02*
X229065D01*
X319610D02*
X333396D01*
X1750Y92272D02*
X24341D01*
X106081D02*
X106087D01*
X112917D02*
X117717D01*
X121366D02*
X133289D01*
X138077D02*
X153937D01*
X157587D02*
X203543D01*
X209949D02*
X220079D01*
X223728D02*
X229065D01*
X319791D02*
X333396D01*
X1750Y92770D02*
X24341D01*
X106081D02*
X106087D01*
X112917D02*
X115675D01*
X121366D02*
X133410D01*
X137956D02*
X153937D01*
X157587D02*
X203543D01*
X209949D02*
X220079D01*
X223728D02*
X229065D01*
X319791D02*
X333396D01*
X1750Y93268D02*
X24341D01*
X106081D02*
X106087D01*
X112917D02*
X115078D01*
X121366D02*
X133657D01*
X137709D02*
X153937D01*
X157587D02*
X203543D01*
X209949D02*
X220079D01*
X223728D02*
X229065D01*
X319791D02*
X333396D01*
X1750Y93766D02*
X24341D01*
X106081D02*
X106087D01*
X112917D02*
X114760D01*
X121366D02*
X134087D01*
X137279D02*
X153937D01*
X157587D02*
X203543D01*
X209949D02*
X220079D01*
X223728D02*
X229065D01*
X321711D02*
X333396D01*
X1750Y94264D02*
X24341D01*
X106081D02*
X106087D01*
X112917D02*
X114596D01*
X121366D02*
X134981D01*
X136385D02*
X153937D01*
X157587D02*
X203543D01*
X209949D02*
X220079D01*
X223728D02*
X229065D01*
X322225D02*
X333396D01*
X1750Y94762D02*
X24341D01*
X106081D02*
X106087D01*
X112917D02*
X114551D01*
X121366D02*
X153937D01*
X157587D02*
X203543D01*
X209949D02*
X220079D01*
X223728D02*
X229065D01*
X322466D02*
X333396D01*
X1750Y95260D02*
X24341D01*
X106081D02*
X106087D01*
X112917D02*
X114620D01*
X121366D02*
X153937D01*
X157587D02*
X203543D01*
X209949D02*
X220079D01*
X223728D02*
X229065D01*
X322547D02*
X333396D01*
X1750Y95758D02*
X24341D01*
X106081D02*
X106087D01*
X112917D02*
X114813D01*
X121366D02*
X153937D01*
X157587D02*
X203543D01*
X209949D02*
X220079D01*
X223728D02*
X229065D01*
X322547D02*
X333396D01*
X1750Y96256D02*
X24341D01*
X106081D02*
X106087D01*
X112917D02*
X115174D01*
X121366D02*
X153937D01*
X157587D02*
X203543D01*
X209949D02*
X220079D01*
X223728D02*
X229065D01*
X322547D02*
X333396D01*
X1750Y96754D02*
X24341D01*
X106081D02*
X106087D01*
X112917D02*
X115886D01*
X117685D02*
X117717D01*
X121366D02*
X153937D01*
X157587D02*
X203543D01*
X209949D02*
X220079D01*
X223728D02*
X229065D01*
X322547D02*
X333396D01*
X1750Y97252D02*
X24341D01*
X106081D02*
X106087D01*
X112917D02*
X117717D01*
X121366D02*
X153937D01*
X157587D02*
X203543D01*
X209949D02*
X220079D01*
X223728D02*
X229065D01*
X322547D02*
X333396D01*
X1750Y97750D02*
X24341D01*
X106081D02*
X106087D01*
X112917D02*
X117717D01*
X121366D02*
X153937D01*
X157587D02*
X203543D01*
X209949D02*
X220079D01*
X223728D02*
X229065D01*
X322547D02*
X333396D01*
X1750Y98248D02*
X24341D01*
X113098D02*
X117717D01*
X121366D02*
X153937D01*
X157587D02*
X203543D01*
X209949D02*
X220079D01*
X223728D02*
X229065D01*
X322547D02*
X333396D01*
X1750Y98746D02*
X24341D01*
X113098D02*
X117717D01*
X121366D02*
X152158D01*
X153854D02*
X153937D01*
X157587D02*
X203543D01*
X209949D02*
X220079D01*
X223728D02*
X229065D01*
X313098D02*
X318898D01*
X322547D02*
X333396D01*
X1750Y99244D02*
X24341D01*
X113098D02*
X117717D01*
X121366D02*
X151356D01*
X157587D02*
X203543D01*
X209949D02*
X220079D01*
X223728D02*
X229065D01*
X313098D02*
X318898D01*
X322547D02*
X333396D01*
X1750Y99742D02*
X24341D01*
X157587D02*
X203543D01*
X209949D02*
X220079D01*
X223728D02*
X229065D01*
X313098D02*
X318898D01*
X322547D02*
X333396D01*
X1750Y100240D02*
X24341D01*
X157587D02*
X203543D01*
X209949D02*
X220079D01*
X223728D02*
X229065D01*
X313098D02*
X318898D01*
X322547D02*
X333396D01*
X1750Y100738D02*
X24341D01*
X157587D02*
X203543D01*
X209949D02*
X220079D01*
X223728D02*
X229065D01*
X313098D02*
X318898D01*
X322547D02*
X333396D01*
X1750Y101236D02*
X24341D01*
X157587D02*
X203543D01*
X209949D02*
X220079D01*
X223728D02*
X229065D01*
X313098D02*
X318898D01*
X322547D02*
X333396D01*
X1750Y101734D02*
X24341D01*
X157587D02*
X203543D01*
X209949D02*
X220079D01*
X223728D02*
X229065D01*
X313098D02*
X318898D01*
X322547D02*
X333396D01*
X1750Y102232D02*
X24341D01*
X157587D02*
X203543D01*
X209949D02*
X220079D01*
X223728D02*
X229065D01*
X313098D02*
X318898D01*
X322547D02*
X333396D01*
X1750Y102730D02*
X24341D01*
X157587D02*
X203543D01*
X209949D02*
X220079D01*
X223728D02*
X229065D01*
X313098D02*
X318774D01*
X322671D02*
X333396D01*
X1750Y103228D02*
X24341D01*
X113098D02*
X124490D01*
X147487D02*
X152056D01*
X157587D02*
X203543D01*
X209949D02*
X220079D01*
X223728D02*
X229065D01*
X313098D02*
X318493D01*
X322952D02*
X333396D01*
X1750Y103726D02*
X24341D01*
X113098D02*
X124409D01*
X147547D02*
X153937D01*
X157587D02*
X203283D01*
X209949D02*
X220079D01*
X223728D02*
X229065D01*
X313098D02*
X318346D01*
X323099D02*
X333396D01*
X1750Y104224D02*
X24341D01*
X113098D02*
X124409D01*
X147503D02*
X153937D01*
X157587D02*
X203063D01*
X209949D02*
X220079D01*
X223728D02*
X229065D01*
X313098D02*
X318307D01*
X323138D02*
X333396D01*
X1750Y104722D02*
X24341D01*
X106081D02*
X124409D01*
X147349D02*
X153937D01*
X157587D02*
X202963D01*
X209949D02*
X220079D01*
X223728D02*
X229065D01*
X313098D02*
X318374D01*
X323071D02*
X333396D01*
X1750Y105220D02*
X24341D01*
X106081D02*
X124409D01*
X147058D02*
X153937D01*
X157587D02*
X202969D01*
X209949D02*
X220079D01*
X223728D02*
X229065D01*
X313098D02*
X318554D01*
X322891D02*
X333396D01*
X1750Y105719D02*
X24341D01*
X106081D02*
X124409D01*
X128059D02*
X143713D01*
X146550D02*
X153937D01*
X157587D02*
X203080D01*
X209949D02*
X220079D01*
X223728D02*
X229065D01*
X313098D02*
X318879D01*
X322566D02*
X333396D01*
X1750Y106217D02*
X24341D01*
X106081D02*
X124409D01*
X128059D02*
X153937D01*
X157587D02*
X203315D01*
X210029D02*
X220079D01*
X223728D02*
X229065D01*
X313098D02*
X319460D01*
X321985D02*
X333396D01*
X1750Y106715D02*
X24341D01*
X106081D02*
X124409D01*
X128059D02*
X153937D01*
X157587D02*
X203724D01*
X210329D02*
X220079D01*
X223728D02*
X229065D01*
X313098D02*
X333396D01*
X1750Y107213D02*
X24341D01*
X106081D02*
X124409D01*
X128059D02*
X153937D01*
X157587D02*
X204537D01*
X210489D02*
X220079D01*
X223728D02*
X229065D01*
X313098D02*
X333396D01*
X1750Y107711D02*
X24341D01*
X106081D02*
X124409D01*
X128059D02*
X153937D01*
X157587D02*
X205709D01*
X210539D02*
X220079D01*
X223728D02*
X229065D01*
X313098D02*
X333396D01*
X1750Y108209D02*
X24341D01*
X106081D02*
X124409D01*
X128059D02*
X153937D01*
X157587D02*
X205763D01*
X210485D02*
X220079D01*
X223728D02*
X229065D01*
X313098D02*
X333396D01*
X1750Y108707D02*
X24341D01*
X106081D02*
X124409D01*
X128059D02*
X153937D01*
X157587D02*
X205928D01*
X210320D02*
X220079D01*
X223728D02*
X229065D01*
X313098D02*
X333396D01*
X1750Y109205D02*
X24341D01*
X106081D02*
X124409D01*
X128059D02*
X153937D01*
X157587D02*
X206234D01*
X210014D02*
X220079D01*
X223728D02*
X229065D01*
X313098D02*
X333396D01*
X1750Y109703D02*
X24341D01*
X106081D02*
X124409D01*
X128059D02*
X153937D01*
X157587D02*
X206773D01*
X209475D02*
X220079D01*
X223728D02*
X229065D01*
X313098D02*
X333396D01*
X1750Y110201D02*
X24341D01*
X106081D02*
X124409D01*
X128059D02*
X153937D01*
X157587D02*
X220079D01*
X223728D02*
X229065D01*
X313098D02*
X333396D01*
X1750Y110699D02*
X24341D01*
X106081D02*
X124409D01*
X128059D02*
X153937D01*
X157587D02*
X220079D01*
X223728D02*
X229065D01*
X313098D02*
X333396D01*
X1750Y111197D02*
X24341D01*
X106081D02*
X124409D01*
X128059D02*
X153937D01*
X157587D02*
X220079D01*
X223728D02*
X229065D01*
X313098D02*
X333396D01*
X1750Y111695D02*
X24341D01*
X106081D02*
X124409D01*
X128059D02*
X153937D01*
X157587D02*
X220079D01*
X223728D02*
X229065D01*
X313098D02*
X333396D01*
X1750Y112193D02*
X24341D01*
X106081D02*
X124409D01*
X128059D02*
X153937D01*
X157587D02*
X220079D01*
X223728D02*
X229065D01*
X313098D02*
X333396D01*
X1750Y112691D02*
X24364D01*
X106057D02*
X124409D01*
X128059D02*
X153937D01*
X157587D02*
X220079D01*
X223728D02*
X229089D01*
X313098D02*
X333396D01*
X1750Y113189D02*
X24550D01*
X105872D02*
X120931D01*
X123663D02*
X124409D01*
X128059D02*
X153937D01*
X157587D02*
X220079D01*
X223728D02*
X229274D01*
X313098D02*
X333396D01*
X1750Y113687D02*
X25030D01*
X105392D02*
X120400D01*
X124195D02*
X124409D01*
X128059D02*
X153864D01*
X157659D02*
X220079D01*
X223728D02*
X229754D01*
X313098D02*
X333396D01*
X1750Y114185D02*
X120097D01*
X128059D02*
X153561D01*
X157962D02*
X220079D01*
X223728D02*
X309449D01*
X313098D02*
X333396D01*
X1750Y114683D02*
X105835D01*
X128059D02*
X153398D01*
X158125D02*
X220079D01*
X223728D02*
X309449D01*
X313098D02*
X333396D01*
X1750Y115181D02*
X105158D01*
X128059D02*
X153346D01*
X158177D02*
X220079D01*
X223728D02*
X309449D01*
X313098D02*
X333396D01*
X1750Y115679D02*
X104857D01*
X128059D02*
X153398D01*
X158125D02*
X220079D01*
X223728D02*
X309449D01*
X313098D02*
X333396D01*
X1750Y116177D02*
X104734D01*
X128059D02*
X153561D01*
X157962D02*
X220079D01*
X223728D02*
X309449D01*
X313098D02*
X333396D01*
X1750Y116675D02*
X104724D01*
X124195D02*
X124409D01*
X128059D02*
X153864D01*
X157659D02*
X220079D01*
X223728D02*
X309449D01*
X313098D02*
X333396D01*
X1750Y117173D02*
X104724D01*
X124122D02*
X124409D01*
X128059D02*
X154396D01*
X157128D02*
X220079D01*
X223728D02*
X309449D01*
X313098D02*
X333396D01*
X1750Y117671D02*
X104724D01*
X124122D02*
X124409D01*
X128059D02*
X220079D01*
X223728D02*
X309449D01*
X313098D02*
X333396D01*
X1750Y118169D02*
X104724D01*
X124122D02*
X124409D01*
X128059D02*
X220079D01*
X223728D02*
X309449D01*
X313098D02*
X333396D01*
X1750Y118667D02*
X104724D01*
X124122D02*
X124409D01*
X128059D02*
X220079D01*
X223728D02*
X309449D01*
X313098D02*
X333396D01*
X1750Y119165D02*
X104724D01*
X124122D02*
X124409D01*
X128059D02*
X220079D01*
X223728D02*
X309449D01*
X313098D02*
X333396D01*
X1750Y119663D02*
X104724D01*
X124122D02*
X124409D01*
X128059D02*
X220079D01*
X223728D02*
X309449D01*
X313098D02*
X333396D01*
X1750Y120161D02*
X104724D01*
X124122D02*
X124409D01*
X128059D02*
X220079D01*
X223728D02*
X309449D01*
X313098D02*
X333396D01*
X1750Y120659D02*
X104724D01*
X124122D02*
X124409D01*
X128059D02*
X220079D01*
X223728D02*
X309449D01*
X313098D02*
X333396D01*
X1750Y121157D02*
X104724D01*
X124122D02*
X124409D01*
X128059D02*
X220079D01*
X223728D02*
X309449D01*
X313098D02*
X333396D01*
X1750Y121656D02*
X104724D01*
X124122D02*
X124409D01*
X128059D02*
X220079D01*
X223728D02*
X309449D01*
X313098D02*
X333396D01*
X1750Y122154D02*
X104724D01*
X124122D02*
X124409D01*
X128059D02*
X220079D01*
X223728D02*
X309449D01*
X313098D02*
X333396D01*
X1750Y122652D02*
X104724D01*
X124122D02*
X124409D01*
X128059D02*
X220079D01*
X223728D02*
X309449D01*
X313098D02*
X333396D01*
X1750Y123150D02*
X104724D01*
X124122D02*
X124409D01*
X128059D02*
X220079D01*
X223728D02*
X309449D01*
X313098D02*
X333396D01*
X1750Y123648D02*
X104724D01*
X124122D02*
X124409D01*
X128059D02*
X220079D01*
X223728D02*
X309449D01*
X313098D02*
X333396D01*
X1750Y124146D02*
X104724D01*
X124122D02*
X124409D01*
X128059D02*
X220079D01*
X223728D02*
X309449D01*
X313098D02*
X333396D01*
X1750Y124644D02*
X104724D01*
X124122D02*
X124409D01*
X128059D02*
X220079D01*
X223728D02*
X309449D01*
X313098D02*
X333396D01*
X1750Y125142D02*
X104724D01*
X124122D02*
X124409D01*
X128059D02*
X220079D01*
X223728D02*
X309449D01*
X313098D02*
X333396D01*
X1750Y125640D02*
X104724D01*
X124122D02*
X124409D01*
X128059D02*
X220079D01*
X223728D02*
X309449D01*
X313098D02*
X333396D01*
X1750Y126138D02*
X104724D01*
X124122D02*
X124409D01*
X128059D02*
X220079D01*
X223728D02*
X309449D01*
X313098D02*
X322557D01*
X324400D02*
X333396D01*
X1750Y126636D02*
X104724D01*
X124122D02*
X124409D01*
X128059D02*
X220079D01*
X223728D02*
X309449D01*
X313098D02*
X321857D01*
X325100D02*
X333396D01*
X1750Y127134D02*
X24759D01*
X124122D02*
X124409D01*
X208024D02*
X220079D01*
X223728D02*
X229483D01*
X313098D02*
X321500D01*
X325456D02*
X333396D01*
X1750Y127632D02*
X24442D01*
X124122D02*
X124409D01*
X208342D02*
X220079D01*
X223728D02*
X229166D01*
X313098D02*
X321311D01*
X325646D02*
X333396D01*
X1750Y128130D02*
X24341D01*
X124122D02*
X124409D01*
X208443D02*
X220079D01*
X223728D02*
X229065D01*
X313098D02*
X321244D01*
X325713D02*
X333396D01*
X1750Y128628D02*
X24341D01*
X124122D02*
X124409D01*
X208443D02*
X220079D01*
X223728D02*
X229065D01*
X313098D02*
X321291D01*
X325666D02*
X333396D01*
X1750Y129126D02*
X24341D01*
X124122D02*
X124409D01*
X208443D02*
X220079D01*
X223728D02*
X229065D01*
X313098D02*
X321457D01*
X325499D02*
X333396D01*
X1750Y129624D02*
X24341D01*
X124122D02*
X124409D01*
X208443D02*
X220079D01*
X223728D02*
X229065D01*
X313098D02*
X321779D01*
X325178D02*
X333396D01*
X1750Y130122D02*
X24341D01*
X124122D02*
X124409D01*
X208443D02*
X220079D01*
X223728D02*
X229065D01*
X313098D02*
X322386D01*
X324571D02*
X333396D01*
X1750Y130620D02*
X24341D01*
X124122D02*
X124409D01*
X208443D02*
X220079D01*
X223728D02*
X229065D01*
X313098D02*
X333396D01*
X1750Y131118D02*
X24341D01*
X124122D02*
X124409D01*
X208443D02*
X220079D01*
X223728D02*
X229065D01*
X313098D02*
X333396D01*
X1750Y131616D02*
X24341D01*
X124122D02*
X124409D01*
X208443D02*
X220079D01*
X223728D02*
X229065D01*
X313098D02*
X333396D01*
X1750Y132114D02*
X24341D01*
X124122D02*
X124409D01*
X208443D02*
X220079D01*
X223728D02*
X229065D01*
X313098D02*
X333396D01*
X1750Y132612D02*
X24341D01*
X124122D02*
X124409D01*
X208443D02*
X220079D01*
X223728D02*
X229065D01*
X313098D02*
X333396D01*
X1750Y133110D02*
X24341D01*
X124122D02*
X124409D01*
X208443D02*
X220079D01*
X223728D02*
X229065D01*
X313098D02*
X333396D01*
X1750Y133608D02*
X24341D01*
X124122D02*
X124409D01*
X208443D02*
X220079D01*
X223728D02*
X229065D01*
X313098D02*
X333396D01*
X1750Y134106D02*
X24341D01*
X124122D02*
X124409D01*
X208443D02*
X220079D01*
X223728D02*
X229065D01*
X313098D02*
X333396D01*
X1750Y134604D02*
X24341D01*
X124122D02*
X124409D01*
X208443D02*
X220079D01*
X223728D02*
X229065D01*
X313098D02*
X333396D01*
X1750Y135102D02*
X24341D01*
X124122D02*
X124409D01*
X208443D02*
X220079D01*
X223728D02*
X229065D01*
X313098D02*
X333396D01*
X1750Y135600D02*
X24341D01*
X124122D02*
X124409D01*
X208443D02*
X220079D01*
X223728D02*
X229065D01*
X313098D02*
X333396D01*
X1750Y136098D02*
X24341D01*
X124122D02*
X124409D01*
X208443D02*
X220079D01*
X223728D02*
X229065D01*
X313098D02*
X333396D01*
X1750Y136596D02*
X24341D01*
X124122D02*
X124409D01*
X208443D02*
X220079D01*
X223728D02*
X229065D01*
X313098D02*
X333396D01*
X1750Y137094D02*
X24341D01*
X124122D02*
X124409D01*
X208443D02*
X220079D01*
X223728D02*
X229065D01*
X313098D02*
X333396D01*
X1750Y137593D02*
X24341D01*
X124122D02*
X124409D01*
X208443D02*
X220079D01*
X223728D02*
X229065D01*
X313098D02*
X333396D01*
X1750Y138091D02*
X24341D01*
X124122D02*
X124409D01*
X208443D02*
X220079D01*
X223728D02*
X229065D01*
X313098D02*
X333396D01*
X1750Y138589D02*
X24341D01*
X124122D02*
X124409D01*
X208443D02*
X220079D01*
X223728D02*
X229065D01*
X313098D02*
X333396D01*
X1750Y139087D02*
X24341D01*
X124122D02*
X124409D01*
X208443D02*
X220079D01*
X223728D02*
X229065D01*
X313098D02*
X333396D01*
X1750Y139585D02*
X24341D01*
X124122D02*
X124409D01*
X208443D02*
X220079D01*
X223728D02*
X229065D01*
X313098D02*
X333396D01*
X1750Y140083D02*
X24341D01*
X124122D02*
X124409D01*
X208443D02*
X220079D01*
X223728D02*
X229065D01*
X313098D02*
X333396D01*
X1750Y140581D02*
X24341D01*
X124122D02*
X124409D01*
X208443D02*
X220079D01*
X223728D02*
X229065D01*
X313098D02*
X333396D01*
X1750Y141079D02*
X24341D01*
X124122D02*
X124409D01*
X208443D02*
X220079D01*
X223728D02*
X229065D01*
X313098D02*
X333396D01*
X1750Y141577D02*
X24341D01*
X124122D02*
X124409D01*
X208443D02*
X220079D01*
X223728D02*
X229065D01*
X313098D02*
X333396D01*
X1750Y142075D02*
X24341D01*
X124122D02*
X124409D01*
X208443D02*
X220079D01*
X223728D02*
X229065D01*
X313098D02*
X333396D01*
X1750Y142573D02*
X24341D01*
X124122D02*
X124409D01*
X208443D02*
X220079D01*
X223728D02*
X229065D01*
X313098D02*
X333396D01*
X1750Y143071D02*
X24341D01*
X124122D02*
X124409D01*
X208443D02*
X220079D01*
X223728D02*
X229065D01*
X313098D02*
X333396D01*
X1750Y143569D02*
X24341D01*
X124122D02*
X124409D01*
X208443D02*
X220079D01*
X223728D02*
X229065D01*
X313098D02*
X333396D01*
X1750Y144067D02*
X24341D01*
X124122D02*
X124409D01*
X208443D02*
X220079D01*
X223728D02*
X229065D01*
X313098D02*
X333396D01*
X1750Y144565D02*
X24341D01*
X124122D02*
X124409D01*
X208443D02*
X220079D01*
X223728D02*
X229065D01*
X313098D02*
X333396D01*
X1750Y145063D02*
X24341D01*
X124122D02*
X124409D01*
X208443D02*
X220079D01*
X223728D02*
X229065D01*
X313098D02*
X333396D01*
X1750Y145561D02*
X24341D01*
X124122D02*
X124409D01*
X208443D02*
X220079D01*
X223728D02*
X229065D01*
X313098D02*
X333396D01*
X1750Y146059D02*
X24341D01*
X124122D02*
X124409D01*
X208443D02*
X220079D01*
X223728D02*
X229065D01*
X313098D02*
X333396D01*
X1750Y146557D02*
X24341D01*
X124122D02*
X124409D01*
X208443D02*
X220079D01*
X223728D02*
X229065D01*
X313098D02*
X333396D01*
X1750Y147055D02*
X24341D01*
X124122D02*
X124409D01*
X208443D02*
X220079D01*
X223728D02*
X229065D01*
X313098D02*
X333396D01*
X1750Y147553D02*
X24341D01*
X124122D02*
X124409D01*
X208443D02*
X220079D01*
X223728D02*
X229065D01*
X313098D02*
X333396D01*
X1750Y148051D02*
X24341D01*
X124122D02*
X124409D01*
X208443D02*
X220079D01*
X223728D02*
X229065D01*
X313098D02*
X333396D01*
X1750Y148549D02*
X24341D01*
X124122D02*
X124409D01*
X208443D02*
X220079D01*
X223728D02*
X229065D01*
X313098D02*
X333396D01*
X1750Y149047D02*
X24341D01*
X124122D02*
X124409D01*
X208443D02*
X220079D01*
X223728D02*
X229065D01*
X313098D02*
X333396D01*
X1750Y149545D02*
X24341D01*
X124122D02*
X124409D01*
X208443D02*
X220079D01*
X223728D02*
X229065D01*
X313098D02*
X333396D01*
X1750Y150043D02*
X24341D01*
X124122D02*
X124409D01*
X208443D02*
X220079D01*
X223728D02*
X229065D01*
X313098D02*
X333396D01*
X1750Y150541D02*
X24341D01*
X124122D02*
X124409D01*
X208443D02*
X220079D01*
X223728D02*
X229065D01*
X313098D02*
X333396D01*
X1750Y151039D02*
X24341D01*
X124122D02*
X124409D01*
X208443D02*
X220079D01*
X223728D02*
X229065D01*
X313098D02*
X333396D01*
X1750Y151537D02*
X24341D01*
X124122D02*
X124409D01*
X208443D02*
X220079D01*
X223728D02*
X229065D01*
X313098D02*
X333396D01*
X1750Y152035D02*
X24341D01*
X124122D02*
X124409D01*
X208443D02*
X220079D01*
X223728D02*
X229065D01*
X313098D02*
X333396D01*
X1750Y152533D02*
X24341D01*
X124122D02*
X124409D01*
X208443D02*
X220079D01*
X223728D02*
X229065D01*
X313098D02*
X333396D01*
X1750Y153031D02*
X24341D01*
X124122D02*
X124409D01*
X208443D02*
X220079D01*
X223728D02*
X229065D01*
X313098D02*
X333396D01*
X1750Y153530D02*
X24341D01*
X124122D02*
X124409D01*
X208443D02*
X220079D01*
X223728D02*
X229065D01*
X313098D02*
X333396D01*
X1750Y154028D02*
X24341D01*
X124122D02*
X124409D01*
X208443D02*
X220079D01*
X223728D02*
X229065D01*
X313098D02*
X333396D01*
X1750Y154526D02*
X24341D01*
X124122D02*
X124409D01*
X208443D02*
X220079D01*
X223728D02*
X229065D01*
X313098D02*
X333396D01*
X1750Y155024D02*
X24341D01*
X124122D02*
X124409D01*
X208443D02*
X220079D01*
X223728D02*
X229065D01*
X313098D02*
X333396D01*
X1750Y155522D02*
X24341D01*
X124122D02*
X124409D01*
X208443D02*
X220079D01*
X223728D02*
X229065D01*
X313098D02*
X333396D01*
X1750Y156020D02*
X24341D01*
X124122D02*
X124409D01*
X208443D02*
X220079D01*
X223728D02*
X229065D01*
X313098D02*
X333396D01*
X1750Y156518D02*
X24341D01*
X124122D02*
X124409D01*
X208443D02*
X220079D01*
X223728D02*
X229065D01*
X313098D02*
X333396D01*
X1750Y157016D02*
X24341D01*
X124122D02*
X124409D01*
X208443D02*
X220079D01*
X223728D02*
X229065D01*
X313098D02*
X333396D01*
X1750Y157514D02*
X24341D01*
X124122D02*
X124409D01*
X208443D02*
X220079D01*
X223728D02*
X229065D01*
X313098D02*
X333396D01*
X1750Y158012D02*
X24341D01*
X124122D02*
X124409D01*
X208443D02*
X220079D01*
X223728D02*
X229065D01*
X313098D02*
X333396D01*
X1750Y158510D02*
X24341D01*
X124122D02*
X124409D01*
X208443D02*
X220079D01*
X223728D02*
X229065D01*
X313098D02*
X333396D01*
X1750Y159008D02*
X24341D01*
X124122D02*
X124409D01*
X208443D02*
X220079D01*
X223728D02*
X229065D01*
X313098D02*
X333396D01*
X1750Y159506D02*
X24341D01*
X124122D02*
X124409D01*
X208443D02*
X220079D01*
X223728D02*
X229065D01*
X313098D02*
X333396D01*
X1750Y160004D02*
X24341D01*
X124122D02*
X124409D01*
X208443D02*
X220079D01*
X223728D02*
X229065D01*
X313098D02*
X333396D01*
X1750Y160502D02*
X24341D01*
X124122D02*
X124409D01*
X208443D02*
X220079D01*
X223728D02*
X229065D01*
X313098D02*
X333396D01*
X1750Y161000D02*
X24341D01*
X124122D02*
X124409D01*
X208443D02*
X220079D01*
X223728D02*
X229065D01*
X313098D02*
X333396D01*
X1750Y161498D02*
X24341D01*
X124122D02*
X124409D01*
X208443D02*
X220079D01*
X223728D02*
X229065D01*
X313098D02*
X333396D01*
X1750Y161996D02*
X24341D01*
X124122D02*
X124409D01*
X208443D02*
X220079D01*
X223728D02*
X229065D01*
X313098D02*
X333396D01*
X1750Y162494D02*
X24341D01*
X124122D02*
X124409D01*
X208443D02*
X220079D01*
X223728D02*
X229065D01*
X313098D02*
X333396D01*
X1750Y162992D02*
X24341D01*
X124122D02*
X124409D01*
X208443D02*
X220079D01*
X223728D02*
X229065D01*
X313098D02*
X333396D01*
X1750Y163490D02*
X24341D01*
X124122D02*
X124409D01*
X208443D02*
X220079D01*
X223728D02*
X229065D01*
X313098D02*
X333396D01*
X1750Y163988D02*
X24341D01*
X124122D02*
X124409D01*
X208443D02*
X220079D01*
X223728D02*
X229065D01*
X313098D02*
X333396D01*
X1750Y164486D02*
X24341D01*
X124122D02*
X124409D01*
X208443D02*
X220079D01*
X223728D02*
X229065D01*
X313098D02*
X333396D01*
X1750Y164984D02*
X24341D01*
X124122D02*
X124409D01*
X208443D02*
X220079D01*
X223728D02*
X229065D01*
X313098D02*
X333396D01*
X1750Y165482D02*
X24341D01*
X124122D02*
X124409D01*
X208443D02*
X220079D01*
X223728D02*
X229065D01*
X313098D02*
X333396D01*
X1750Y165980D02*
X24341D01*
X124122D02*
X124409D01*
X208443D02*
X220079D01*
X223728D02*
X229065D01*
X313098D02*
X333396D01*
X1750Y166478D02*
X24341D01*
X124122D02*
X124409D01*
X208443D02*
X220079D01*
X223728D02*
X229065D01*
X313098D02*
X333396D01*
X1750Y166976D02*
X24341D01*
X124122D02*
X124409D01*
X208443D02*
X220079D01*
X223728D02*
X229065D01*
X313098D02*
X333396D01*
X1750Y167474D02*
X24341D01*
X124122D02*
X124409D01*
X208443D02*
X220079D01*
X223728D02*
X229065D01*
X313098D02*
X333396D01*
X1750Y167972D02*
X24341D01*
X124122D02*
X124409D01*
X208443D02*
X220079D01*
X223728D02*
X229065D01*
X313098D02*
X333396D01*
X1750Y168470D02*
X24341D01*
X124122D02*
X124409D01*
X208443D02*
X220079D01*
X223728D02*
X229065D01*
X313098D02*
X333396D01*
X1750Y168969D02*
X24341D01*
X124122D02*
X124409D01*
X208443D02*
X220079D01*
X223728D02*
X229065D01*
X313098D02*
X333396D01*
X1750Y169467D02*
X24341D01*
X124122D02*
X124409D01*
X208443D02*
X220079D01*
X223728D02*
X229065D01*
X313098D02*
X333396D01*
X1750Y169965D02*
X24341D01*
X124122D02*
X124409D01*
X208443D02*
X220079D01*
X223728D02*
X229065D01*
X313098D02*
X333396D01*
X1750Y170463D02*
X24341D01*
X124122D02*
X124409D01*
X208443D02*
X220079D01*
X223728D02*
X229065D01*
X313098D02*
X333396D01*
X1750Y170961D02*
X24341D01*
X124122D02*
X124409D01*
X208443D02*
X220079D01*
X223728D02*
X229065D01*
X313098D02*
X333396D01*
X1750Y171459D02*
X24341D01*
X124122D02*
X124409D01*
X208443D02*
X220079D01*
X223728D02*
X229065D01*
X313098D02*
X333396D01*
X1750Y171957D02*
X24341D01*
X124122D02*
X124409D01*
X208443D02*
X220079D01*
X223728D02*
X229065D01*
X313098D02*
X333396D01*
X1750Y172455D02*
X24341D01*
X124122D02*
X124409D01*
X208443D02*
X220079D01*
X223728D02*
X229065D01*
X313098D02*
X333396D01*
X1750Y172953D02*
X24341D01*
X124122D02*
X124409D01*
X208443D02*
X220079D01*
X223728D02*
X229065D01*
X313098D02*
X333396D01*
X1750Y173451D02*
X24341D01*
X124122D02*
X124409D01*
X208443D02*
X220079D01*
X223728D02*
X229065D01*
X313098D02*
X333396D01*
X1750Y173949D02*
X24341D01*
X124122D02*
X124409D01*
X208443D02*
X220079D01*
X223728D02*
X229065D01*
X313098D02*
X333396D01*
X1750Y174447D02*
X24341D01*
X124122D02*
X124409D01*
X208443D02*
X220079D01*
X223728D02*
X229065D01*
X313098D02*
X333396D01*
X1750Y174945D02*
X24341D01*
X124122D02*
X124409D01*
X208443D02*
X220079D01*
X223728D02*
X229065D01*
X313098D02*
X333396D01*
X1750Y175443D02*
X24341D01*
X124122D02*
X124409D01*
X208443D02*
X220079D01*
X223728D02*
X229065D01*
X313098D02*
X333396D01*
X1750Y175941D02*
X24341D01*
X124122D02*
X124409D01*
X208443D02*
X220079D01*
X223728D02*
X229065D01*
X313098D02*
X333396D01*
X1750Y176439D02*
X24341D01*
X124122D02*
X124409D01*
X208443D02*
X220079D01*
X223728D02*
X229065D01*
X313098D02*
X333396D01*
X1750Y176937D02*
X24341D01*
X124122D02*
X124409D01*
X208443D02*
X220079D01*
X223728D02*
X229065D01*
X313098D02*
X333396D01*
X1750Y177435D02*
X24341D01*
X124122D02*
X124409D01*
X208443D02*
X220079D01*
X223728D02*
X229065D01*
X313098D02*
X333396D01*
X1750Y177933D02*
X24341D01*
X124122D02*
X124409D01*
X208443D02*
X220079D01*
X223728D02*
X229065D01*
X313098D02*
X333396D01*
X1750Y178431D02*
X24341D01*
X124122D02*
X124409D01*
X208443D02*
X220079D01*
X223728D02*
X229065D01*
X313098D02*
X333396D01*
X1750Y178929D02*
X24341D01*
X124122D02*
X124409D01*
X208443D02*
X220079D01*
X223728D02*
X229065D01*
X313098D02*
X333396D01*
X1750Y179427D02*
X24341D01*
X124122D02*
X124409D01*
X208443D02*
X220079D01*
X223728D02*
X229065D01*
X313098D02*
X333396D01*
X1750Y179925D02*
X24341D01*
X124122D02*
X124409D01*
X208443D02*
X220079D01*
X223728D02*
X229065D01*
X313098D02*
X333396D01*
X1750Y180423D02*
X24341D01*
X124122D02*
X124409D01*
X208443D02*
X220079D01*
X223728D02*
X229065D01*
X313098D02*
X333396D01*
X1750Y180921D02*
X24341D01*
X124122D02*
X124409D01*
X208443D02*
X220079D01*
X223728D02*
X229065D01*
X313098D02*
X333396D01*
X1750Y181419D02*
X24341D01*
X124122D02*
X124409D01*
X208443D02*
X220079D01*
X223728D02*
X229065D01*
X313098D02*
X333396D01*
X1750Y181917D02*
X24341D01*
X124122D02*
X124409D01*
X208443D02*
X220079D01*
X223728D02*
X229065D01*
X313098D02*
X333396D01*
X1750Y182415D02*
X24341D01*
X124122D02*
X124409D01*
X208443D02*
X220079D01*
X223728D02*
X229065D01*
X313098D02*
X333396D01*
X1750Y182913D02*
X24341D01*
X124122D02*
X124409D01*
X208443D02*
X220079D01*
X223728D02*
X229065D01*
X313098D02*
X333396D01*
X1750Y183411D02*
X24341D01*
X124122D02*
X124409D01*
X208443D02*
X220079D01*
X223728D02*
X229065D01*
X313098D02*
X333396D01*
X1750Y183909D02*
X24341D01*
X124122D02*
X124409D01*
X208443D02*
X220079D01*
X223728D02*
X229065D01*
X313098D02*
X333396D01*
X1750Y184407D02*
X24341D01*
X124122D02*
X124409D01*
X208443D02*
X220079D01*
X223728D02*
X229065D01*
X313098D02*
X333396D01*
X1750Y184906D02*
X24341D01*
X124122D02*
X124409D01*
X208443D02*
X220079D01*
X223728D02*
X229065D01*
X313098D02*
X333396D01*
X1750Y185404D02*
X24341D01*
X124122D02*
X124409D01*
X208443D02*
X220079D01*
X223728D02*
X229065D01*
X313098D02*
X333396D01*
X1750Y185902D02*
X24341D01*
X124122D02*
X124409D01*
X208443D02*
X220079D01*
X223728D02*
X229065D01*
X313098D02*
X333396D01*
X1750Y186400D02*
X24341D01*
X124122D02*
X124409D01*
X208443D02*
X220079D01*
X223728D02*
X229065D01*
X324818D02*
X333396D01*
X1750Y186898D02*
X24341D01*
X124122D02*
X124409D01*
X208443D02*
X220079D01*
X223728D02*
X229065D01*
X325362D02*
X333396D01*
X1750Y187396D02*
X24341D01*
X124122D02*
X124409D01*
X208443D02*
X220079D01*
X223728D02*
X229065D01*
X325670D02*
X333396D01*
X1750Y187894D02*
X24341D01*
X124122D02*
X124409D01*
X208443D02*
X220079D01*
X223728D02*
X229065D01*
X325838D02*
X333396D01*
X1750Y188392D02*
X24341D01*
X124122D02*
X124409D01*
X208443D02*
X210417D01*
X217248D02*
X220079D01*
X223728D02*
X229065D01*
X325894D02*
X333396D01*
X1750Y188890D02*
X24341D01*
X124122D02*
X124409D01*
X208443D02*
X210417D01*
X217248D02*
X220079D01*
X223728D02*
X229065D01*
X325846D02*
X333396D01*
X1750Y189388D02*
X24341D01*
X124122D02*
X124409D01*
X208443D02*
X210417D01*
X217248D02*
X220079D01*
X223728D02*
X229065D01*
X325687D02*
X333396D01*
X1750Y189886D02*
X24341D01*
X124122D02*
X124409D01*
X208443D02*
X210417D01*
X217248D02*
X220079D01*
X223728D02*
X229065D01*
X325390D02*
X333396D01*
X1750Y190384D02*
X24341D01*
X124122D02*
X124409D01*
X208443D02*
X210417D01*
X217248D02*
X220079D01*
X223728D02*
X229065D01*
X324870D02*
X333396D01*
X1750Y190882D02*
X24341D01*
X124122D02*
X124409D01*
X208443D02*
X210417D01*
X217248D02*
X220079D01*
X223728D02*
X229065D01*
X322938D02*
X333396D01*
X1750Y191380D02*
X24341D01*
X124122D02*
X124409D01*
X208443D02*
X210417D01*
X217248D02*
X220079D01*
X223728D02*
X229065D01*
X322946D02*
X333396D01*
X1750Y191878D02*
X24341D01*
X124122D02*
X124409D01*
X208443D02*
X210417D01*
X217248D02*
X220079D01*
X223728D02*
X229065D01*
X322840D02*
X333396D01*
X1750Y192376D02*
X24341D01*
X124122D02*
X124409D01*
X208443D02*
X210417D01*
X217248D02*
X220079D01*
X223728D02*
X229065D01*
X322600D02*
X333396D01*
X1750Y192874D02*
X24341D01*
X124122D02*
X124409D01*
X208443D02*
X210417D01*
X217248D02*
X220079D01*
X223728D02*
X229065D01*
X322162D02*
X333396D01*
X1750Y193372D02*
X24341D01*
X124122D02*
X124409D01*
X208443D02*
X210417D01*
X217248D02*
X220079D01*
X223728D02*
X229065D01*
X319610D02*
X320372D01*
X321072D02*
X333396D01*
X1750Y193870D02*
X24341D01*
X124122D02*
X124409D01*
X208443D02*
X210417D01*
X217248D02*
X220079D01*
X223728D02*
X229065D01*
X319610D02*
X333396D01*
X1750Y194368D02*
X24341D01*
X124122D02*
X124409D01*
X208443D02*
X210236D01*
X217429D02*
X220079D01*
X223728D02*
X229065D01*
X319791D02*
X333396D01*
X1750Y194866D02*
X24341D01*
X124122D02*
X124409D01*
X208443D02*
X210236D01*
X217429D02*
X220079D01*
X223728D02*
X229065D01*
X319791D02*
X333396D01*
X1750Y195364D02*
X24341D01*
X124122D02*
X124409D01*
X208443D02*
X210236D01*
X217429D02*
X220079D01*
X223728D02*
X229065D01*
X319791D02*
X333396D01*
X1750Y195862D02*
X24341D01*
X124122D02*
X124409D01*
X208443D02*
X210236D01*
X223728D02*
X229065D01*
X319791D02*
X333396D01*
X1750Y196360D02*
X24341D01*
X124122D02*
X124409D01*
X208443D02*
X210236D01*
X223728D02*
X229065D01*
X319791D02*
X333396D01*
X1750Y196858D02*
X24341D01*
X124122D02*
X124409D01*
X208443D02*
X210236D01*
X223728D02*
X229065D01*
X319791D02*
X333396D01*
X1750Y197356D02*
X24341D01*
X124122D02*
X124409D01*
X208443D02*
X210236D01*
X223728D02*
X229065D01*
X319791D02*
X333396D01*
X1750Y197854D02*
X24341D01*
X124112D02*
X124409D01*
X208443D02*
X210236D01*
X223718D02*
X229065D01*
X319791D02*
X333396D01*
X1750Y198352D02*
X24341D01*
X123986D02*
X124409D01*
X208443D02*
X210236D01*
X223593D02*
X229065D01*
X319791D02*
X333396D01*
X1750Y198850D02*
X24341D01*
X123681D02*
X124409D01*
X208443D02*
X210236D01*
X223288D02*
X229065D01*
X319791D02*
X333396D01*
X1750Y199348D02*
X24341D01*
X122993D02*
X124409D01*
X208443D02*
X210236D01*
X222599D02*
X229065D01*
X319791D02*
X333396D01*
X1750Y199846D02*
X24341D01*
X114083D02*
X116385D01*
X117186D02*
X124409D01*
X208443D02*
X210236D01*
X220185D02*
X229065D01*
X310805D02*
X312598D01*
X319791D02*
X333396D01*
X1750Y200344D02*
X24341D01*
X114083D02*
X124409D01*
X208443D02*
X210236D01*
X220185D02*
X229065D01*
X310805D02*
X312598D01*
X319791D02*
X333396D01*
X1750Y200843D02*
X24341D01*
X114083D02*
X124409D01*
X208443D02*
X210236D01*
X220185D02*
X229065D01*
X310805D02*
X312598D01*
X319791D02*
X333396D01*
X1750Y201341D02*
X24341D01*
X108374D02*
X124409D01*
X208443D02*
X216535D01*
X220185D02*
X229065D01*
X310805D02*
X333396D01*
X1750Y201839D02*
X24341D01*
X108374D02*
X124409D01*
X208443D02*
X216535D01*
X220185D02*
X229065D01*
X310805D02*
X333396D01*
X1750Y202337D02*
X24341D01*
X108374D02*
X124409D01*
X208443D02*
X216535D01*
X220185D02*
X229065D01*
X310805D02*
X333396D01*
X1750Y202835D02*
X24341D01*
X108374D02*
X124409D01*
X208443D02*
X216535D01*
X220185D02*
X229065D01*
X310805D02*
X333396D01*
X1750Y203333D02*
X24341D01*
X108374D02*
X124409D01*
X208443D02*
X216535D01*
X220185D02*
X229065D01*
X310805D02*
X333396D01*
X1750Y203831D02*
X24341D01*
X108374D02*
X124409D01*
X208443D02*
X216535D01*
X220185D02*
X229065D01*
X310805D02*
X333396D01*
X1750Y204329D02*
X24341D01*
X108374D02*
X124409D01*
X208443D02*
X216535D01*
X220185D02*
X229065D01*
X310805D02*
X333396D01*
X1750Y204827D02*
X24341D01*
X108374D02*
X124409D01*
X208443D02*
X216535D01*
X220185D02*
X229065D01*
X310805D02*
X333396D01*
X1750Y205325D02*
X24341D01*
X108374D02*
X124409D01*
X208443D02*
X216261D01*
X220459D02*
X229065D01*
X310805D02*
X333396D01*
X1750Y205823D02*
X24341D01*
X108374D02*
X124409D01*
X208443D02*
X216048D01*
X220673D02*
X229065D01*
X310805D02*
X333396D01*
X1750Y206321D02*
X24341D01*
X108374D02*
X124409D01*
X208443D02*
X215953D01*
X220767D02*
X229065D01*
X310805D02*
X333396D01*
X1750Y206819D02*
X24341D01*
X108374D02*
X124409D01*
X208443D02*
X215963D01*
X220757D02*
X229065D01*
X310805D02*
X333396D01*
X1750Y207317D02*
X24341D01*
X108374D02*
X124409D01*
X208443D02*
X216080D01*
X220640D02*
X229065D01*
X310805D02*
X333396D01*
X1750Y207815D02*
X24341D01*
X108374D02*
X124409D01*
X208443D02*
X216322D01*
X220399D02*
X229065D01*
X310805D02*
X333396D01*
X1750Y208313D02*
X24341D01*
X108374D02*
X124409D01*
X208443D02*
X216742D01*
X219978D02*
X229065D01*
X310805D02*
X333396D01*
X1750Y208811D02*
X24341D01*
X108374D02*
X124409D01*
X208443D02*
X217596D01*
X219124D02*
X229065D01*
X310805D02*
X333396D01*
X1750Y209309D02*
X24341D01*
X108374D02*
X124409D01*
X208443D02*
X229065D01*
X310805D02*
X333396D01*
X1750Y209807D02*
X24341D01*
X108374D02*
X124409D01*
X208443D02*
X229065D01*
X310805D02*
X333396D01*
X1750Y210305D02*
X24341D01*
X108374D02*
X124409D01*
X208443D02*
X229065D01*
X310805D02*
X333396D01*
X1750Y210803D02*
X24341D01*
X108374D02*
X124409D01*
X208443D02*
X229065D01*
X310805D02*
X333396D01*
X1750Y211301D02*
X24341D01*
X108374D02*
X124409D01*
X208443D02*
X229065D01*
X310805D02*
X333396D01*
X1750Y211799D02*
X24341D01*
X108374D02*
X124409D01*
X208443D02*
X229065D01*
X310805D02*
X333396D01*
X1750Y212297D02*
X24341D01*
X108374D02*
X124409D01*
X208443D02*
X229065D01*
X310805D02*
X333396D01*
X1750Y212795D02*
X24341D01*
X108374D02*
X124409D01*
X208443D02*
X229065D01*
X310805D02*
X333396D01*
X1750Y213293D02*
X24341D01*
X108374D02*
X124409D01*
X208443D02*
X229065D01*
X310805D02*
X333396D01*
X1750Y213791D02*
X24341D01*
X108374D02*
X124409D01*
X208443D02*
X229065D01*
X310805D02*
X333396D01*
X1750Y214289D02*
X24341D01*
X108374D02*
X124409D01*
X208443D02*
X229065D01*
X310805D02*
X333396D01*
X1750Y214787D02*
X24341D01*
X108374D02*
X124409D01*
X208443D02*
X229065D01*
X310805D02*
X322422D01*
X324535D02*
X333396D01*
X1750Y215285D02*
X24426D01*
X108374D02*
X124409D01*
X208358D02*
X229150D01*
X310720D02*
X321796D01*
X325161D02*
X333396D01*
X1750Y215783D02*
X24719D01*
X108374D02*
X124409D01*
X208065D02*
X229443D01*
X310427D02*
X321467D01*
X325490D02*
X333396D01*
X1750Y216281D02*
X25707D01*
X108374D02*
X124409D01*
X128059D02*
X128072D01*
X207076D02*
X230432D01*
X309438D02*
X321295D01*
X325662D02*
X333396D01*
X1750Y216780D02*
X104724D01*
X108374D02*
X124409D01*
X128059D02*
X321244D01*
X325713D02*
X333396D01*
X1750Y217278D02*
X104724D01*
X108374D02*
X124409D01*
X128059D02*
X321306D01*
X325651D02*
X333396D01*
X1750Y217776D02*
X104724D01*
X108374D02*
X124409D01*
X128059D02*
X321490D01*
X325467D02*
X333396D01*
X1750Y218274D02*
X104724D01*
X108374D02*
X124409D01*
X128059D02*
X321839D01*
X325118D02*
X333396D01*
X1750Y218772D02*
X104724D01*
X108374D02*
X124409D01*
X128059D02*
X322515D01*
X324442D02*
X333396D01*
X1750Y219270D02*
X104724D01*
X108374D02*
X124409D01*
X128059D02*
X333396D01*
X1750Y219768D02*
X104724D01*
X108374D02*
X124409D01*
X128059D02*
X333396D01*
X1750Y220266D02*
X104724D01*
X108374D02*
X115006D01*
X116990D02*
X124409D01*
X128059D02*
X319730D01*
X321715D02*
X333396D01*
X1750Y220764D02*
X104724D01*
X108374D02*
X114346D01*
X117650D02*
X124409D01*
X128059D02*
X319070D01*
X322375D02*
X333396D01*
X1750Y221262D02*
X104724D01*
X108374D02*
X114003D01*
X117993D02*
X124409D01*
X128059D02*
X318728D01*
X322717D02*
X333396D01*
X1750Y221760D02*
X104724D01*
X108374D02*
X113822D01*
X118174D02*
X124409D01*
X128059D02*
X318547D01*
X322898D02*
X333396D01*
X1750Y222258D02*
X104724D01*
X108374D02*
X113764D01*
X118232D02*
X124409D01*
X128059D02*
X318488D01*
X322957D02*
X333396D01*
X1750Y222756D02*
X104724D01*
X108374D02*
X113818D01*
X118178D02*
X124409D01*
X128059D02*
X318542D01*
X322903D02*
X333396D01*
X1750Y223254D02*
X104724D01*
X108374D02*
X113993D01*
X118003D02*
X124409D01*
X128059D02*
X318718D01*
X322727D02*
X333396D01*
X1750Y223752D02*
X104724D01*
X108374D02*
X114328D01*
X117668D02*
X124409D01*
X128059D02*
X319052D01*
X322393D02*
X333396D01*
X1750Y224250D02*
X104724D01*
X108374D02*
X114967D01*
X117029D02*
X124409D01*
X128059D02*
X319692D01*
X321753D02*
X333396D01*
X1750Y224748D02*
X104724D01*
X108374D02*
X124409D01*
X128059D02*
X333396D01*
X1750Y225246D02*
X104724D01*
X108374D02*
X124409D01*
X128059D02*
X333396D01*
X1750Y225744D02*
X104724D01*
X108374D02*
X124409D01*
X128059D02*
X333396D01*
X1750Y226242D02*
X104724D01*
X108374D02*
X124409D01*
X128059D02*
X333396D01*
X1750Y226740D02*
X104724D01*
X108374D02*
X124409D01*
X128059D02*
X333396D01*
X1750Y227238D02*
X104724D01*
X108374D02*
X124409D01*
X128059D02*
X209235D01*
X312524D02*
X333396D01*
X1750Y227736D02*
X104724D01*
X108374D02*
X124409D01*
X128059D02*
X208861D01*
X312898D02*
X333396D01*
X1750Y228234D02*
X104724D01*
X108374D02*
X124409D01*
X128059D02*
X208692D01*
X313068D02*
X333396D01*
X1750Y228732D02*
X12317D01*
X14955D02*
X104724D01*
X108374D02*
X124409D01*
X128059D02*
X208661D01*
X313098D02*
X320191D01*
X322829D02*
X333396D01*
X1750Y229230D02*
X11822D01*
X15449D02*
X25101D01*
X108374D02*
X124409D01*
X207682D02*
X208661D01*
X313098D02*
X319696D01*
X323323D02*
X333396D01*
X1750Y229728D02*
X11552D01*
X15719D02*
X24576D01*
X108374D02*
X124409D01*
X208207D02*
X208661D01*
X313098D02*
X319426D01*
X323593D02*
X333396D01*
X1750Y230226D02*
X11423D01*
X15848D02*
X24373D01*
X108374D02*
X124409D01*
X208411D02*
X208661D01*
X313098D02*
X319297D01*
X323722D02*
X333396D01*
X1750Y230724D02*
X11409D01*
X15862D02*
X24341D01*
X108374D02*
X124409D01*
X208443D02*
X208661D01*
X212311D02*
X229065D01*
X313098D02*
X319283D01*
X323736D02*
X333396D01*
X1750Y231222D02*
X11510D01*
X15762D02*
X24341D01*
X108374D02*
X124409D01*
X208443D02*
X208661D01*
X212311D02*
X229065D01*
X313098D02*
X319384D01*
X323636D02*
X333396D01*
X1750Y231720D02*
X11742D01*
X15530D02*
X24341D01*
X108374D02*
X124409D01*
X208443D02*
X208661D01*
X212311D02*
X229065D01*
X313098D02*
X319616D01*
X323404D02*
X333396D01*
X1750Y232219D02*
X12167D01*
X15105D02*
X24341D01*
X108374D02*
X124409D01*
X208443D02*
X208661D01*
X212311D02*
X229065D01*
X313098D02*
X320041D01*
X322979D02*
X333396D01*
X1750Y232717D02*
X13152D01*
X14120D02*
X24341D01*
X108374D02*
X124409D01*
X208443D02*
X208661D01*
X212311D02*
X229065D01*
X313098D02*
X321026D01*
X321994D02*
X333396D01*
X1750Y233215D02*
X24341D01*
X108374D02*
X124409D01*
X208443D02*
X208661D01*
X212311D02*
X229065D01*
X313098D02*
X333396D01*
X1750Y233713D02*
X24341D01*
X108374D02*
X124409D01*
X208443D02*
X208661D01*
X212311D02*
X229065D01*
X313098D02*
X333396D01*
X1750Y234211D02*
X24341D01*
X108374D02*
X124409D01*
X208443D02*
X208661D01*
X212311D02*
X229065D01*
X313098D02*
X333396D01*
X1750Y234709D02*
X24341D01*
X108374D02*
X124409D01*
X208443D02*
X208661D01*
X212311D02*
X229065D01*
X313098D02*
X333396D01*
X1750Y235207D02*
X24341D01*
X108374D02*
X124409D01*
X208443D02*
X208661D01*
X212311D02*
X229065D01*
X313098D02*
X333396D01*
X1750Y235705D02*
X24341D01*
X108374D02*
X124409D01*
X208443D02*
X208661D01*
X212311D02*
X229065D01*
X313098D02*
X333396D01*
X1750Y236203D02*
X24341D01*
X108374D02*
X124409D01*
X208443D02*
X208661D01*
X212311D02*
X229065D01*
X313098D02*
X333396D01*
X1750Y236701D02*
X24341D01*
X108374D02*
X124409D01*
X208443D02*
X208661D01*
X212311D02*
X229065D01*
X313098D02*
X333396D01*
X1750Y237199D02*
X24341D01*
X108374D02*
X124409D01*
X208443D02*
X208661D01*
X212311D02*
X229065D01*
X313098D02*
X333396D01*
X1750Y237697D02*
X24341D01*
X108374D02*
X124409D01*
X208443D02*
X208661D01*
X212311D02*
X229065D01*
X313098D02*
X333396D01*
X1750Y238195D02*
X24341D01*
X108374D02*
X124409D01*
X208443D02*
X208661D01*
X212311D02*
X229065D01*
X313098D02*
X333396D01*
X1750Y238693D02*
X24341D01*
X108374D02*
X124409D01*
X208443D02*
X208661D01*
X212311D02*
X229065D01*
X313098D02*
X333396D01*
X1750Y239191D02*
X24341D01*
X108374D02*
X124409D01*
X208443D02*
X208661D01*
X212311D02*
X229065D01*
X313098D02*
X333396D01*
X1750Y239689D02*
X24341D01*
X108374D02*
X124409D01*
X208443D02*
X208661D01*
X212311D02*
X229065D01*
X313098D02*
X333396D01*
X1750Y240187D02*
X24341D01*
X108374D02*
X124409D01*
X208443D02*
X208661D01*
X212311D02*
X229065D01*
X313098D02*
X333396D01*
X1750Y240685D02*
X24341D01*
X108374D02*
X124409D01*
X208443D02*
X208661D01*
X212311D02*
X229065D01*
X313098D02*
X333396D01*
X1750Y241183D02*
X24341D01*
X108374D02*
X124409D01*
X208443D02*
X208661D01*
X212311D02*
X229065D01*
X313098D02*
X333396D01*
X1750Y241681D02*
X24341D01*
X108374D02*
X124409D01*
X208443D02*
X208661D01*
X212311D02*
X229065D01*
X313098D02*
X333396D01*
X1750Y242179D02*
X24341D01*
X108374D02*
X124409D01*
X208443D02*
X208661D01*
X212311D02*
X229065D01*
X313098D02*
X333396D01*
X1750Y242677D02*
X24341D01*
X108374D02*
X124409D01*
X208443D02*
X208661D01*
X212311D02*
X229065D01*
X313098D02*
X333396D01*
X1750Y243175D02*
X24341D01*
X108374D02*
X124409D01*
X208443D02*
X208661D01*
X212311D02*
X229065D01*
X313098D02*
X333396D01*
X1750Y243673D02*
X24341D01*
X108374D02*
X124409D01*
X208443D02*
X208661D01*
X212311D02*
X229065D01*
X313098D02*
X333396D01*
X1750Y244171D02*
X24341D01*
X108374D02*
X124409D01*
X208443D02*
X208661D01*
X212311D02*
X229065D01*
X313098D02*
X333396D01*
X1750Y244669D02*
X24341D01*
X108374D02*
X124409D01*
X208443D02*
X208661D01*
X212311D02*
X229065D01*
X313098D02*
X333396D01*
X1750Y245167D02*
X24341D01*
X108374D02*
X124409D01*
X208443D02*
X208661D01*
X212311D02*
X229065D01*
X313098D02*
X333396D01*
X1750Y245665D02*
X24341D01*
X108374D02*
X124409D01*
X208443D02*
X208661D01*
X212311D02*
X229065D01*
X313098D02*
X333396D01*
X1750Y246163D02*
X24341D01*
X108374D02*
X124409D01*
X208443D02*
X208661D01*
X212311D02*
X229065D01*
X313098D02*
X333396D01*
X1750Y246661D02*
X24341D01*
X108374D02*
X124409D01*
X208443D02*
X208661D01*
X212311D02*
X229065D01*
X313098D02*
X333396D01*
X1750Y247159D02*
X24341D01*
X108374D02*
X124409D01*
X208443D02*
X208661D01*
X212311D02*
X229065D01*
X313098D02*
X333396D01*
X1750Y247657D02*
X24341D01*
X108374D02*
X124409D01*
X208443D02*
X208661D01*
X212311D02*
X229065D01*
X313098D02*
X333396D01*
X1750Y248156D02*
X24341D01*
X108374D02*
X124409D01*
X208443D02*
X208661D01*
X212311D02*
X229065D01*
X313098D02*
X333396D01*
X1750Y248654D02*
X24341D01*
X108374D02*
X124409D01*
X208443D02*
X208661D01*
X212311D02*
X229065D01*
X313098D02*
X333396D01*
X1750Y249152D02*
X24341D01*
X108374D02*
X124409D01*
X208443D02*
X208661D01*
X212311D02*
X229065D01*
X313098D02*
X333396D01*
X1750Y249650D02*
X24341D01*
X108374D02*
X124409D01*
X208443D02*
X208661D01*
X212311D02*
X229065D01*
X313098D02*
X333396D01*
X1750Y250148D02*
X24341D01*
X108374D02*
X124409D01*
X208443D02*
X208661D01*
X212311D02*
X229065D01*
X313098D02*
X333396D01*
X1750Y250646D02*
X24341D01*
X108374D02*
X124409D01*
X208443D02*
X208661D01*
X212311D02*
X229065D01*
X313098D02*
X333396D01*
X1750Y251144D02*
X24341D01*
X108374D02*
X124409D01*
X208443D02*
X208661D01*
X212311D02*
X229065D01*
X313098D02*
X333396D01*
X1750Y251642D02*
X24341D01*
X108374D02*
X124409D01*
X208443D02*
X208661D01*
X212311D02*
X229065D01*
X313098D02*
X333396D01*
X1750Y252140D02*
X24341D01*
X108374D02*
X124409D01*
X208443D02*
X208661D01*
X212311D02*
X229065D01*
X313098D02*
X333396D01*
X1750Y252638D02*
X24341D01*
X108374D02*
X124409D01*
X208443D02*
X208661D01*
X212311D02*
X229065D01*
X313098D02*
X333396D01*
X1750Y253136D02*
X24341D01*
X108374D02*
X124409D01*
X208443D02*
X208661D01*
X212311D02*
X229065D01*
X313098D02*
X333396D01*
X1750Y253634D02*
X24341D01*
X108374D02*
X124409D01*
X208443D02*
X208661D01*
X212311D02*
X229065D01*
X313098D02*
X333396D01*
X1750Y254132D02*
X24341D01*
X108374D02*
X124409D01*
X208443D02*
X208661D01*
X212311D02*
X229065D01*
X313098D02*
X333396D01*
X1750Y254630D02*
X24341D01*
X108374D02*
X124409D01*
X208443D02*
X208661D01*
X212311D02*
X229065D01*
X313098D02*
X333396D01*
X1750Y255128D02*
X24341D01*
X108374D02*
X124409D01*
X208443D02*
X208661D01*
X212311D02*
X229065D01*
X313098D02*
X333396D01*
X1750Y255626D02*
X24341D01*
X108374D02*
X124409D01*
X208443D02*
X208661D01*
X212311D02*
X229065D01*
X313098D02*
X333396D01*
X1750Y256124D02*
X24341D01*
X108374D02*
X124409D01*
X208443D02*
X208661D01*
X212311D02*
X229065D01*
X313098D02*
X333396D01*
X1750Y256622D02*
X24341D01*
X108374D02*
X124409D01*
X208443D02*
X208661D01*
X212311D02*
X229065D01*
X313098D02*
X333396D01*
X1750Y257120D02*
X24341D01*
X108374D02*
X124409D01*
X208443D02*
X208661D01*
X212311D02*
X229065D01*
X313098D02*
X333396D01*
X1750Y257618D02*
X24341D01*
X108374D02*
X124409D01*
X208443D02*
X208661D01*
X212311D02*
X229065D01*
X313098D02*
X333396D01*
X1750Y258116D02*
X24341D01*
X108374D02*
X124409D01*
X208443D02*
X208661D01*
X212311D02*
X229065D01*
X313098D02*
X333396D01*
X1750Y258614D02*
X24341D01*
X108374D02*
X124409D01*
X208443D02*
X208661D01*
X212311D02*
X229065D01*
X313098D02*
X333396D01*
X1750Y259112D02*
X24341D01*
X108374D02*
X124409D01*
X208443D02*
X208661D01*
X212311D02*
X229065D01*
X313098D02*
X333396D01*
X1750Y259610D02*
X24341D01*
X108374D02*
X124409D01*
X208443D02*
X208661D01*
X212311D02*
X229065D01*
X313098D02*
X333396D01*
X1750Y260108D02*
X24341D01*
X108374D02*
X124409D01*
X208443D02*
X208661D01*
X212311D02*
X229065D01*
X313098D02*
X333396D01*
X1750Y260606D02*
X24341D01*
X108374D02*
X124409D01*
X208443D02*
X208661D01*
X212311D02*
X229065D01*
X313098D02*
X333396D01*
X1750Y261104D02*
X24341D01*
X108374D02*
X124409D01*
X208443D02*
X208661D01*
X212311D02*
X229065D01*
X313098D02*
X333396D01*
X1750Y261602D02*
X24341D01*
X108374D02*
X124409D01*
X208443D02*
X208661D01*
X212311D02*
X229065D01*
X313098D02*
X333396D01*
X1750Y262100D02*
X24341D01*
X108374D02*
X124409D01*
X208443D02*
X208661D01*
X212311D02*
X229065D01*
X313098D02*
X333396D01*
X1750Y262598D02*
X24341D01*
X108374D02*
X124409D01*
X208443D02*
X208661D01*
X212311D02*
X229065D01*
X313098D02*
X333396D01*
X1750Y263096D02*
X24341D01*
X108374D02*
X124409D01*
X208443D02*
X208661D01*
X212311D02*
X229065D01*
X313098D02*
X333396D01*
X1750Y263594D02*
X24341D01*
X108374D02*
X124409D01*
X208443D02*
X208661D01*
X212311D02*
X229065D01*
X313098D02*
X333396D01*
X1750Y264093D02*
X24341D01*
X108374D02*
X124409D01*
X208443D02*
X208661D01*
X212311D02*
X229065D01*
X313098D02*
X333396D01*
X1750Y264591D02*
X24341D01*
X108374D02*
X124409D01*
X208443D02*
X208661D01*
X212311D02*
X229065D01*
X313098D02*
X333396D01*
X1750Y265089D02*
X24341D01*
X108374D02*
X124409D01*
X208443D02*
X208661D01*
X212311D02*
X229065D01*
X313098D02*
X333396D01*
X1750Y265587D02*
X24341D01*
X108374D02*
X124409D01*
X208443D02*
X208661D01*
X212311D02*
X229065D01*
X313098D02*
X333396D01*
X1750Y266085D02*
X24341D01*
X108374D02*
X124409D01*
X208443D02*
X208661D01*
X212311D02*
X229065D01*
X313098D02*
X333396D01*
X1750Y266583D02*
X24341D01*
X108374D02*
X124409D01*
X208443D02*
X208661D01*
X212311D02*
X229065D01*
X313098D02*
X333396D01*
X1750Y267081D02*
X24341D01*
X108374D02*
X124409D01*
X208443D02*
X208661D01*
X212311D02*
X229065D01*
X313098D02*
X333396D01*
X1750Y267579D02*
X24341D01*
X108374D02*
X124409D01*
X208443D02*
X208661D01*
X212311D02*
X229065D01*
X313098D02*
X333396D01*
X1750Y268077D02*
X24341D01*
X108374D02*
X124409D01*
X208443D02*
X208661D01*
X212311D02*
X229065D01*
X313098D02*
X333396D01*
X1750Y268575D02*
X24341D01*
X108374D02*
X124409D01*
X208443D02*
X208661D01*
X212311D02*
X229065D01*
X313098D02*
X333396D01*
X1750Y269073D02*
X24341D01*
X108374D02*
X124409D01*
X208443D02*
X208661D01*
X212311D02*
X229065D01*
X313098D02*
X333396D01*
X1750Y269571D02*
X24341D01*
X108374D02*
X124409D01*
X208443D02*
X208661D01*
X212311D02*
X229065D01*
X313098D02*
X333396D01*
X1750Y270069D02*
X24341D01*
X108374D02*
X124409D01*
X208443D02*
X208661D01*
X212311D02*
X229065D01*
X313098D02*
X333396D01*
X1750Y270567D02*
X24341D01*
X108374D02*
X124409D01*
X208443D02*
X208661D01*
X212311D02*
X229065D01*
X313098D02*
X333396D01*
X1750Y271065D02*
X24341D01*
X108374D02*
X124409D01*
X208443D02*
X208661D01*
X212311D02*
X229065D01*
X313098D02*
X333396D01*
X1750Y271563D02*
X24341D01*
X108374D02*
X124409D01*
X208443D02*
X208661D01*
X212311D02*
X229065D01*
X313098D02*
X333396D01*
X1750Y272061D02*
X24341D01*
X108374D02*
X124409D01*
X208443D02*
X208661D01*
X212311D02*
X229065D01*
X313098D02*
X333396D01*
X1750Y272559D02*
X24341D01*
X108374D02*
X124409D01*
X208443D02*
X208661D01*
X212311D02*
X229065D01*
X313098D02*
X333396D01*
X1750Y273057D02*
X24341D01*
X108374D02*
X124409D01*
X208443D02*
X208661D01*
X212311D02*
X229065D01*
X313098D02*
X333396D01*
X1750Y273555D02*
X24341D01*
X108374D02*
X124409D01*
X208443D02*
X208661D01*
X212311D02*
X229065D01*
X313098D02*
X333396D01*
X1750Y274053D02*
X24341D01*
X108374D02*
X124409D01*
X208443D02*
X208661D01*
X212311D02*
X229065D01*
X313098D02*
X333396D01*
X1750Y274551D02*
X24341D01*
X108374D02*
X124409D01*
X208443D02*
X208661D01*
X212311D02*
X229065D01*
X313098D02*
X333396D01*
X1750Y275049D02*
X24341D01*
X108374D02*
X124409D01*
X208443D02*
X208661D01*
X212311D02*
X229065D01*
X313098D02*
X333396D01*
X1750Y275547D02*
X24341D01*
X108374D02*
X124409D01*
X208443D02*
X208661D01*
X212311D02*
X229065D01*
X313098D02*
X333396D01*
X1750Y276045D02*
X24341D01*
X108374D02*
X124409D01*
X208443D02*
X208661D01*
X212311D02*
X229065D01*
X313098D02*
X333396D01*
X1750Y276543D02*
X24341D01*
X108374D02*
X124409D01*
X208443D02*
X208661D01*
X212311D02*
X229065D01*
X313098D02*
X333396D01*
X1750Y277041D02*
X24341D01*
X108374D02*
X124409D01*
X208443D02*
X208661D01*
X212311D02*
X229065D01*
X313098D02*
X333396D01*
X1750Y277539D02*
X24341D01*
X108374D02*
X124409D01*
X208443D02*
X208661D01*
X212311D02*
X229065D01*
X313098D02*
X333396D01*
X1750Y278037D02*
X24341D01*
X108374D02*
X124409D01*
X208443D02*
X208661D01*
X212311D02*
X229065D01*
X313098D02*
X333396D01*
X1750Y278535D02*
X24341D01*
X108374D02*
X124409D01*
X208443D02*
X208661D01*
X212311D02*
X229065D01*
X313098D02*
X333396D01*
X1750Y279033D02*
X24341D01*
X108374D02*
X124409D01*
X208443D02*
X208661D01*
X212311D02*
X229065D01*
X313098D02*
X333396D01*
X1750Y279531D02*
X24341D01*
X108374D02*
X124409D01*
X208443D02*
X208661D01*
X212311D02*
X229065D01*
X313098D02*
X333396D01*
X1750Y280030D02*
X24341D01*
X108374D02*
X124409D01*
X208443D02*
X208661D01*
X212311D02*
X229065D01*
X313098D02*
X333396D01*
X1750Y280528D02*
X24341D01*
X108374D02*
X124409D01*
X208443D02*
X208661D01*
X212311D02*
X229065D01*
X313098D02*
X333396D01*
X1750Y281026D02*
X24341D01*
X108374D02*
X124409D01*
X208443D02*
X208661D01*
X212311D02*
X229065D01*
X313098D02*
X333396D01*
X1750Y281524D02*
X24341D01*
X108374D02*
X124409D01*
X208443D02*
X208661D01*
X212311D02*
X229065D01*
X313098D02*
X333396D01*
X1750Y282022D02*
X24341D01*
X108374D02*
X124409D01*
X208443D02*
X208661D01*
X212311D02*
X229065D01*
X313098D02*
X333396D01*
X1750Y282520D02*
X24341D01*
X108374D02*
X124409D01*
X208443D02*
X208661D01*
X212311D02*
X229065D01*
X313098D02*
X333396D01*
X1750Y283018D02*
X24341D01*
X108374D02*
X124409D01*
X208443D02*
X208661D01*
X212311D02*
X229065D01*
X313098D02*
X333396D01*
X1750Y283516D02*
X24341D01*
X108374D02*
X124409D01*
X208443D02*
X208661D01*
X212311D02*
X229065D01*
X313098D02*
X333396D01*
X1750Y284014D02*
X24341D01*
X108374D02*
X124409D01*
X208443D02*
X208661D01*
X212311D02*
X229065D01*
X313098D02*
X333396D01*
X1750Y284512D02*
X24341D01*
X108374D02*
X124409D01*
X208443D02*
X208661D01*
X212311D02*
X229065D01*
X313098D02*
X333396D01*
X1750Y285010D02*
X24341D01*
X108374D02*
X124409D01*
X208443D02*
X208661D01*
X212311D02*
X229065D01*
X313098D02*
X333396D01*
X1750Y285508D02*
X24341D01*
X108374D02*
X124409D01*
X208443D02*
X208661D01*
X212311D02*
X229065D01*
X313098D02*
X333396D01*
X1750Y286006D02*
X24341D01*
X108374D02*
X124409D01*
X208443D02*
X208661D01*
X212311D02*
X229065D01*
X313098D02*
X333396D01*
X1750Y286504D02*
X24341D01*
X108374D02*
X124409D01*
X208443D02*
X208661D01*
X212311D02*
X229065D01*
X313098D02*
X333396D01*
X1750Y287002D02*
X24341D01*
X108374D02*
X124409D01*
X208443D02*
X208661D01*
X212311D02*
X218730D01*
X219565D02*
X229065D01*
X313098D02*
X333396D01*
X1750Y287500D02*
X24341D01*
X108374D02*
X124409D01*
X208443D02*
X208661D01*
X212311D02*
X217694D01*
X220601D02*
X229065D01*
X313098D02*
X333396D01*
X1750Y287998D02*
X24341D01*
X108374D02*
X124409D01*
X208443D02*
X208661D01*
X212311D02*
X217262D01*
X221033D02*
X229065D01*
X313098D02*
X333396D01*
X1750Y288496D02*
X24341D01*
X108374D02*
X124409D01*
X208443D02*
X208661D01*
X212311D02*
X217026D01*
X221269D02*
X229065D01*
X313098D02*
X333396D01*
X1750Y288994D02*
X24341D01*
X108374D02*
X124409D01*
X208443D02*
X208661D01*
X212311D02*
X216922D01*
X221373D02*
X229065D01*
X313098D02*
X333396D01*
X1750Y289492D02*
X24341D01*
X108374D02*
X124409D01*
X208443D02*
X208661D01*
X212311D02*
X216933D01*
X221362D02*
X229065D01*
X313098D02*
X333396D01*
X1750Y289990D02*
X24341D01*
X108374D02*
X124409D01*
X208443D02*
X208661D01*
X212311D02*
X217059D01*
X221236D02*
X229065D01*
X313098D02*
X333396D01*
X1750Y290488D02*
X24341D01*
X114886D02*
X124409D01*
X208443D02*
X208661D01*
X217248D02*
X217324D01*
X220971D02*
X229065D01*
X319610D02*
X333396D01*
X1750Y290986D02*
X24341D01*
X114886D02*
X124409D01*
X208443D02*
X208661D01*
X217248D02*
X217810D01*
X220485D02*
X229065D01*
X319610D02*
X333396D01*
X1750Y291484D02*
X24341D01*
X114886D02*
X115882D01*
X117689D02*
X124409D01*
X208443D02*
X208661D01*
X217248D02*
X218244D01*
X220051D02*
X229065D01*
X319610D02*
X333396D01*
X1750Y291982D02*
X24341D01*
X114886D02*
X115172D01*
X118399D02*
X124409D01*
X208443D02*
X208661D01*
X217248D02*
X217534D01*
X220761D02*
X229065D01*
X319610D02*
X333396D01*
X1750Y292480D02*
X24341D01*
X118759D02*
X124409D01*
X208443D02*
X208661D01*
X221121D02*
X229065D01*
X319610D02*
X333396D01*
X1750Y292978D02*
X24341D01*
X118951D02*
X124409D01*
X208443D02*
X208661D01*
X221313D02*
X229065D01*
X319610D02*
X333396D01*
X1750Y293476D02*
X24341D01*
X119020D02*
X124409D01*
X208443D02*
X208661D01*
X221382D02*
X229065D01*
X319610D02*
X333396D01*
X1750Y293974D02*
X24341D01*
X118974D02*
X124409D01*
X208443D02*
X208661D01*
X221337D02*
X229065D01*
X319610D02*
X333396D01*
X1750Y294472D02*
X24341D01*
X118810D02*
X124409D01*
X208443D02*
X208661D01*
X221172D02*
X229065D01*
X319610D02*
X333396D01*
X1750Y294970D02*
X24341D01*
X114886D02*
X115080D01*
X118491D02*
X124409D01*
X208443D02*
X208661D01*
X217248D02*
X217442D01*
X220854D02*
X229065D01*
X319610D02*
X322286D01*
X324671D02*
X333396D01*
X1750Y295469D02*
X24341D01*
X114886D02*
X115679D01*
X117892D02*
X124409D01*
X208443D02*
X208661D01*
X217248D02*
X218041D01*
X220254D02*
X229065D01*
X325285D02*
X333396D01*
X1750Y295967D02*
X24341D01*
X114886D02*
X124409D01*
X208443D02*
X208661D01*
X217248D02*
X229065D01*
X325626D02*
X333396D01*
X1750Y296465D02*
X24341D01*
X114886D02*
X124409D01*
X208443D02*
X208661D01*
X217248D02*
X229065D01*
X325816D02*
X333396D01*
X1750Y296963D02*
X24341D01*
X115067D02*
X124409D01*
X208443D02*
X208661D01*
X217429D02*
X229065D01*
X325891D02*
X333396D01*
X1750Y297461D02*
X24341D01*
X115067D02*
X116300D01*
X117270D02*
X124409D01*
X208443D02*
X208661D01*
X217429D02*
X218663D01*
X219633D02*
X229065D01*
X325862D02*
X333396D01*
X1750Y297959D02*
X24341D01*
X115067D02*
X115254D01*
X118317D02*
X124409D01*
X208443D02*
X208661D01*
X217429D02*
X217617D01*
X220679D02*
X229065D01*
X325725D02*
X333396D01*
X1750Y298457D02*
X24341D01*
X118774D02*
X124409D01*
X208443D02*
X208661D01*
X221137D02*
X229065D01*
X325457D02*
X333396D01*
X1750Y298955D02*
X24341D01*
X119038D02*
X124409D01*
X208443D02*
X208661D01*
X221400D02*
X229065D01*
X324990D02*
X333396D01*
X1750Y299453D02*
X24341D01*
X119172D02*
X124409D01*
X208443D02*
X208661D01*
X221534D02*
X229065D01*
X323896D02*
X333396D01*
X1750Y299951D02*
X24341D01*
X119198D02*
X124409D01*
X208443D02*
X208666D01*
X221560D02*
X229065D01*
X323922D02*
X333396D01*
X1750Y300449D02*
X24341D01*
X119119D02*
X124409D01*
X208443D02*
X208771D01*
X221481D02*
X229065D01*
X323844D02*
X333396D01*
X1750Y300947D02*
X24341D01*
X118925D02*
X124409D01*
X208443D02*
X209046D01*
X221287D02*
X229065D01*
X323650D02*
X333396D01*
X1750Y301445D02*
X24341D01*
X118579D02*
X124409D01*
X208443D02*
X209643D01*
X220941D02*
X229065D01*
X323303D02*
X333396D01*
X1750Y301943D02*
X24341D01*
X106081D02*
X107874D01*
X115067D02*
X115621D01*
X117950D02*
X124409D01*
X208443D02*
X210236D01*
X217429D02*
X217983D01*
X220312D02*
X229065D01*
X319791D02*
X320346D01*
X322674D02*
X333396D01*
X1750Y302441D02*
X24341D01*
X106081D02*
X107874D01*
X115067D02*
X124409D01*
X208443D02*
X210236D01*
X217429D02*
X229065D01*
X319791D02*
X333396D01*
X1750Y302939D02*
X24341D01*
X106081D02*
X107874D01*
X115067D02*
X124409D01*
X208443D02*
X210236D01*
X217429D02*
X229065D01*
X319791D02*
X333396D01*
X1750Y303437D02*
X24341D01*
X106081D02*
X124409D01*
X208443D02*
X229065D01*
X317823D02*
X333396D01*
X1750Y303935D02*
X24341D01*
X106081D02*
X124409D01*
X208443D02*
X229065D01*
X317823D02*
X333396D01*
X1750Y304433D02*
X24341D01*
X106081D02*
X124409D01*
X208443D02*
X229065D01*
X317823D02*
X333396D01*
X1750Y304931D02*
X24341D01*
X106081D02*
X124409D01*
X208443D02*
X229065D01*
X317823D02*
X333396D01*
X1750Y305429D02*
X24341D01*
X106081D02*
X124409D01*
X208443D02*
X229065D01*
X317823D02*
X333396D01*
X1750Y305927D02*
X24341D01*
X106081D02*
X124409D01*
X208443D02*
X229065D01*
X317823D02*
X333396D01*
X1750Y306425D02*
X24341D01*
X106081D02*
X124409D01*
X208443D02*
X229065D01*
X317823D02*
X333396D01*
X1750Y306923D02*
X24341D01*
X106081D02*
X124409D01*
X208443D02*
X229065D01*
X317823D02*
X333396D01*
X1750Y307421D02*
X24341D01*
X106081D02*
X124409D01*
X208443D02*
X229065D01*
X317823D02*
X333396D01*
X1750Y307919D02*
X24341D01*
X106081D02*
X124409D01*
X208443D02*
X229065D01*
X317823D02*
X333396D01*
X1750Y308417D02*
X24341D01*
X106081D02*
X124409D01*
X208443D02*
X229065D01*
X317823D02*
X333396D01*
X1750Y308915D02*
X24341D01*
X106081D02*
X124409D01*
X208443D02*
X229065D01*
X317823D02*
X333396D01*
X1750Y309413D02*
X24341D01*
X106081D02*
X124409D01*
X208443D02*
X229065D01*
X317823D02*
X333396D01*
X1750Y309911D02*
X24341D01*
X106081D02*
X124409D01*
X208443D02*
X229065D01*
X317823D02*
X333396D01*
X1750Y310409D02*
X24341D01*
X106081D02*
X124409D01*
X208443D02*
X229065D01*
X317823D02*
X333396D01*
X1750Y310907D02*
X24341D01*
X106081D02*
X124409D01*
X208443D02*
X229065D01*
X317823D02*
X333396D01*
X1750Y311406D02*
X24341D01*
X106081D02*
X124409D01*
X208443D02*
X229065D01*
X317823D02*
X333396D01*
X1750Y311904D02*
X24341D01*
X106081D02*
X124409D01*
X208443D02*
X229065D01*
X317823D02*
X333396D01*
X1750Y312402D02*
X24341D01*
X106081D02*
X124409D01*
X208443D02*
X229065D01*
X317823D02*
X333396D01*
X1750Y312900D02*
X24341D01*
X106081D02*
X124409D01*
X208443D02*
X229065D01*
X317823D02*
X333396D01*
X1750Y313398D02*
X24341D01*
X106081D02*
X124409D01*
X208443D02*
X229065D01*
X317823D02*
X333396D01*
X1750Y313896D02*
X24341D01*
X106081D02*
X124409D01*
X208443D02*
X229065D01*
X317823D02*
X333396D01*
X1750Y314394D02*
X24341D01*
X106081D02*
X124409D01*
X208443D02*
X229065D01*
X317823D02*
X333396D01*
X1750Y314892D02*
X24341D01*
X106081D02*
X124409D01*
X208443D02*
X229065D01*
X317823D02*
X333396D01*
X1750Y315390D02*
X12259D01*
X15012D02*
X24341D01*
X106081D02*
X124409D01*
X208443D02*
X229065D01*
X317823D02*
X333396D01*
X1750Y315888D02*
X11792D01*
X15480D02*
X24341D01*
X106081D02*
X124409D01*
X208443D02*
X229065D01*
X317823D02*
X333396D01*
X1750Y316386D02*
X11536D01*
X15735D02*
X24341D01*
X106081D02*
X124409D01*
X208443D02*
X229065D01*
X317823D02*
X333396D01*
X1750Y316884D02*
X11417D01*
X15854D02*
X24341D01*
X106081D02*
X124409D01*
X208443D02*
X229065D01*
X317823D02*
X333396D01*
X1750Y317382D02*
X11414D01*
X15858D02*
X24359D01*
X106063D02*
X124409D01*
X317823D02*
X333396D01*
X1750Y317880D02*
X11524D01*
X15747D02*
X24530D01*
X105891D02*
X124409D01*
X317823D02*
X333396D01*
X1750Y318378D02*
X11770D01*
X15502D02*
X24980D01*
X105442D02*
X124409D01*
X317823D02*
X333396D01*
X1750Y318876D02*
X12218D01*
X15054D02*
X124409D01*
X317823D02*
X333396D01*
X1750Y319374D02*
X13426D01*
X13845D02*
X124428D01*
X317805D02*
X333396D01*
X1750Y319872D02*
X124572D01*
X317660D02*
X333396D01*
X1750Y320370D02*
X124907D01*
X317326D02*
X333396D01*
X1750Y320868D02*
X125717D01*
X316515D02*
X333396D01*
X1750Y321366D02*
X333396D01*
X1750Y321864D02*
X333396D01*
X1750Y322362D02*
X333396D01*
X1750Y322860D02*
X333396D01*
X1750Y323358D02*
X333396D01*
X1750Y323856D02*
X333396D01*
X1750Y324354D02*
X333396D01*
X1750Y324852D02*
X333396D01*
X1750Y325350D02*
X333396D01*
X1750Y325848D02*
X6391D01*
X9857D02*
X325289D01*
X328755D02*
X333396D01*
X1750Y326346D02*
X5328D01*
X10920D02*
X324226D01*
X329817D02*
X333396D01*
X1750Y326844D02*
X4641D01*
X11607D02*
X323539D01*
X330505D02*
X333396D01*
X1750Y327343D02*
X4130D01*
X12118D02*
X323028D01*
X331016D02*
X333396D01*
X1750Y327841D02*
X3733D01*
X12515D02*
X322631D01*
X331412D02*
X333396D01*
X1750Y328339D02*
X3422D01*
X12826D02*
X322320D01*
X331723D02*
X333396D01*
X1750Y328837D02*
X3181D01*
X13067D02*
X322078D01*
X331965D02*
X333396D01*
X1750Y329335D02*
X2998D01*
X13250D02*
X321896D01*
X332148D02*
X333396D01*
X1750Y329833D02*
X2869D01*
X13379D02*
X321767D01*
X332277D02*
X333396D01*
X1750Y330331D02*
X2789D01*
X13459D02*
X321687D01*
X332356D02*
X333396D01*
X1750Y330829D02*
X2756D01*
X13492D02*
X321654D01*
X332390D02*
X333396D01*
X1750Y331327D02*
X2770D01*
X13478D02*
X321668D01*
X332375D02*
X333396D01*
X1750Y331825D02*
X2831D01*
X13417D02*
X321729D01*
X332315D02*
X333396D01*
X1750Y332323D02*
X2940D01*
X13308D02*
X321838D01*
X332206D02*
X333396D01*
X1750Y332821D02*
X3100D01*
X13148D02*
X321998D01*
X332045D02*
X333396D01*
X1750Y333319D02*
X3317D01*
X12931D02*
X322215D01*
X331828D02*
X333396D01*
X1750Y333817D02*
X3599D01*
X12649D02*
X322496D01*
X331547D02*
X333396D01*
X1750Y334315D02*
X3958D01*
X12290D02*
X322856D01*
X331187D02*
X333396D01*
X1750Y334813D02*
X4419D01*
X11830D02*
X323316D01*
X330727D02*
X333396D01*
X1750Y335311D02*
X5023D01*
X11225D02*
X323921D01*
X330122D02*
X333396D01*
X1750Y335809D02*
X5887D01*
X10361D02*
X324785D01*
X329258D02*
X333396D01*
X1750Y336307D02*
X333396D01*
X1750Y336805D02*
X333396D01*
X108374Y188045D02*
Y118187D01*
X115357*
X115178Y118354*
X115018Y118539*
X114879Y118741*
X114763Y118956*
X114671Y119183*
X114605Y119419*
X114565Y119661*
X114551Y119906*
X114566Y120160*
X114609Y120411*
X114681Y120656*
X114780Y120891*
X114906Y121113*
X115056Y121320*
X115228Y121507*
X115421Y121674*
X115631Y121819*
X115857Y121937*
X116095Y122030*
X116341Y122095*
X116594Y122131*
X116848Y122139*
X117102Y122117*
X117352Y122067*
X117595Y121988*
X117827Y121882*
X118045Y121750*
X118247Y121595*
X118430Y121417*
X118592Y121220*
X118730Y121006*
X118843Y120777*
X118928Y120537*
X118987Y120288*
X119235Y120333*
X119487Y120352*
X119739Y120344*
X119989Y120310*
X120234Y120250*
X120472Y120166*
Y195837*
X118570*
X118380Y195650*
X118170Y195485*
X117944Y195345*
X117703Y195230*
X117452Y195143*
X117192Y195083*
X116927Y195053*
X116660Y195052*
X116395Y195081*
X116135Y195138*
X115883Y195224*
X115641Y195337*
X115414Y195476*
X115203Y195640*
X114083*
Y194360*
X108374*
Y194285*
X113902*
Y188045*
X108374*
X114551Y191165D02*
X114566Y191425D01*
X114611Y191681*
X114686Y191930*
X114789Y192168*
X114919Y192393*
X115074Y192602*
X115252Y192791*
X115451Y192957*
X115668Y193100*
X115900Y193217*
X116144Y193306*
X116397Y193366*
X116655Y193396*
X116915*
X117173Y193366*
X117426Y193306*
X117670Y193217*
X117902Y193101*
X118119Y192958*
X118318Y192791*
X118496Y192602*
X118652Y192394*
X118781Y192169*
X118885Y191931*
X118959Y191682*
X119005Y191426*
X119020Y191165*
X119005Y190906*
X118959Y190650*
X118885Y190401*
X118782Y190163*
X118652Y189937*
X118497Y189729*
X118319Y189540*
X118120Y189373*
X117903Y189230*
X117670Y189114*
X117426Y189025*
X117174Y188965*
X116916Y188935*
X116656*
X116398Y188965*
X116145Y189024*
X115901Y189113*
X115669Y189230*
X115452Y189372*
X115253Y189539*
X115074Y189728*
X114919Y189937*
X114789Y190161*
X114686Y190400*
X114611Y190649*
X114566Y190905*
X114551Y191165*
X108374Y118321D02*
X115210D01*
X108374Y118819D02*
X114833D01*
X108374Y119317D02*
X114630D01*
X108374Y119815D02*
X114553D01*
X108374Y120313D02*
X114589D01*
X118982D02*
X119107D01*
X119976D02*
X120472D01*
X108374Y120811D02*
X114743D01*
X118828D02*
X120472D01*
X108374Y121309D02*
X115047D01*
X118524D02*
X120472D01*
X108374Y121807D02*
X115613D01*
X117958D02*
X120472D01*
X108374Y122305D02*
X120472D01*
X108374Y122803D02*
X120472D01*
X108374Y123301D02*
X120472D01*
X108374Y123799D02*
X120472D01*
X108374Y124297D02*
X120472D01*
X108374Y124795D02*
X120472D01*
X108374Y125293D02*
X120472D01*
X108374Y125791D02*
X120472D01*
X108374Y126289D02*
X120472D01*
X108374Y126787D02*
X120472D01*
X108374Y127285D02*
X120472D01*
X108374Y127783D02*
X120472D01*
X108374Y128281D02*
X120472D01*
X108374Y128780D02*
X120472D01*
X108374Y129278D02*
X120472D01*
X108374Y129776D02*
X120472D01*
X108374Y130274D02*
X120472D01*
X108374Y130772D02*
X120472D01*
X108374Y131270D02*
X120472D01*
X108374Y131768D02*
X120472D01*
X108374Y132266D02*
X120472D01*
X108374Y132764D02*
X120472D01*
X108374Y133262D02*
X120472D01*
X108374Y133760D02*
X120472D01*
X108374Y134258D02*
X120472D01*
X108374Y134756D02*
X120472D01*
X108374Y135254D02*
X120472D01*
X108374Y135752D02*
X120472D01*
X108374Y136250D02*
X120472D01*
X108374Y136748D02*
X120472D01*
X108374Y137246D02*
X120472D01*
X108374Y137744D02*
X120472D01*
X108374Y138242D02*
X120472D01*
X108374Y138740D02*
X120472D01*
X108374Y139238D02*
X120472D01*
X108374Y139736D02*
X120472D01*
X108374Y140234D02*
X120472D01*
X108374Y140732D02*
X120472D01*
X108374Y141230D02*
X120472D01*
X108374Y141728D02*
X120472D01*
X108374Y142226D02*
X120472D01*
X108374Y142724D02*
X120472D01*
X108374Y143222D02*
X120472D01*
X108374Y143720D02*
X120472D01*
X108374Y144219D02*
X120472D01*
X108374Y144717D02*
X120472D01*
X108374Y145215D02*
X120472D01*
X108374Y145713D02*
X120472D01*
X108374Y146211D02*
X120472D01*
X108374Y146709D02*
X120472D01*
X108374Y147207D02*
X120472D01*
X108374Y147705D02*
X120472D01*
X108374Y148203D02*
X120472D01*
X108374Y148701D02*
X120472D01*
X108374Y149199D02*
X120472D01*
X108374Y149697D02*
X120472D01*
X108374Y150195D02*
X120472D01*
X108374Y150693D02*
X120472D01*
X108374Y151191D02*
X120472D01*
X108374Y151689D02*
X120472D01*
X108374Y152187D02*
X120472D01*
X108374Y152685D02*
X120472D01*
X108374Y153183D02*
X120472D01*
X108374Y153681D02*
X120472D01*
X108374Y154179D02*
X120472D01*
X108374Y154677D02*
X120472D01*
X108374Y155175D02*
X120472D01*
X108374Y155673D02*
X120472D01*
X108374Y156171D02*
X120472D01*
X108374Y156669D02*
X120472D01*
X108374Y157167D02*
X120472D01*
X108374Y157665D02*
X120472D01*
X108374Y158163D02*
X120472D01*
X108374Y158661D02*
X120472D01*
X108374Y159159D02*
X120472D01*
X108374Y159657D02*
X120472D01*
X108374Y160156D02*
X120472D01*
X108374Y160654D02*
X120472D01*
X108374Y161152D02*
X120472D01*
X108374Y161650D02*
X120472D01*
X108374Y162148D02*
X120472D01*
X108374Y162646D02*
X120472D01*
X108374Y163144D02*
X120472D01*
X108374Y163642D02*
X120472D01*
X108374Y164140D02*
X120472D01*
X108374Y164638D02*
X120472D01*
X108374Y165136D02*
X120472D01*
X108374Y165634D02*
X120472D01*
X108374Y166132D02*
X120472D01*
X108374Y166630D02*
X120472D01*
X108374Y167128D02*
X120472D01*
X108374Y167626D02*
X120472D01*
X108374Y168124D02*
X120472D01*
X108374Y168622D02*
X120472D01*
X108374Y169120D02*
X120472D01*
X108374Y169618D02*
X120472D01*
X108374Y170116D02*
X120472D01*
X108374Y170614D02*
X120472D01*
X108374Y171112D02*
X120472D01*
X108374Y171610D02*
X120472D01*
X108374Y172108D02*
X120472D01*
X108374Y172606D02*
X120472D01*
X108374Y173104D02*
X120472D01*
X108374Y173602D02*
X120472D01*
X108374Y174100D02*
X120472D01*
X108374Y174598D02*
X120472D01*
X108374Y175096D02*
X120472D01*
X108374Y175594D02*
X120472D01*
X108374Y176093D02*
X120472D01*
X108374Y176591D02*
X120472D01*
X108374Y177089D02*
X120472D01*
X108374Y177587D02*
X120472D01*
X108374Y178085D02*
X120472D01*
X108374Y178583D02*
X120472D01*
X108374Y179081D02*
X120472D01*
X108374Y179579D02*
X120472D01*
X108374Y180077D02*
X120472D01*
X108374Y180575D02*
X120472D01*
X108374Y181073D02*
X120472D01*
X108374Y181571D02*
X120472D01*
X108374Y182069D02*
X120472D01*
X108374Y182567D02*
X120472D01*
X108374Y183065D02*
X120472D01*
X108374Y183563D02*
X120472D01*
X108374Y184061D02*
X120472D01*
X108374Y184559D02*
X120472D01*
X108374Y185057D02*
X120472D01*
X108374Y185555D02*
X120472D01*
X108374Y186053D02*
X120472D01*
X108374Y186551D02*
X120472D01*
X108374Y187049D02*
X120472D01*
X108374Y187547D02*
X120472D01*
X113902Y188045D02*
X120472D01*
X113902Y188543D02*
X120472D01*
X113902Y189041D02*
X116092D01*
X117479D02*
X120472D01*
X113902Y189539D02*
X115253D01*
X118318D02*
X120472D01*
X113902Y190037D02*
X114857D01*
X118714D02*
X120472D01*
X113902Y190535D02*
X114642D01*
X118929D02*
X120472D01*
X113902Y191033D02*
X114555D01*
X119016D02*
X120472D01*
X113902Y191531D02*
X114581D01*
X118989D02*
X120472D01*
X113902Y192030D02*
X114725D01*
X118846D02*
X120472D01*
X113902Y192528D02*
X115015D01*
X118556D02*
X120472D01*
X113902Y193026D02*
X115548D01*
X118023D02*
X120472D01*
X113902Y193524D02*
X120472D01*
X113902Y194022D02*
X120472D01*
X114083Y194520D02*
X120472D01*
X114083Y195018D02*
X120472D01*
X114083Y195516D02*
X115359D01*
X118212D02*
X120472D01*
X139083Y75157D02*
Y67006D01*
X156156*
X156394Y66990*
X156628Y66944*
X156854Y66867*
X157068Y66761*
X157267Y66629*
X157446Y66471*
X157604Y66292*
X157736Y66093*
X157842Y65879*
X157919Y65653*
X157965Y65419*
X157980Y65181*
Y65176*
X158154Y65266*
X158335Y65338*
X158524Y65389*
X158717Y65420*
X158911Y65431*
X181890*
Y75410*
X181774Y75554*
X181670Y75706*
X181499Y75643*
X181322Y75598*
X181141Y75570*
X180959Y75561*
X141596*
X141384Y75397*
X141156Y75257*
X140913Y75144*
X140659Y75058*
X140397Y75001*
X140130Y74973*
X139862Y74975*
X139596Y75006*
X139335Y75067*
X139083Y75157*
X157980Y65196D02*
X158016D01*
X157907Y65694D02*
X181890D01*
X157674Y66193D02*
X181890D01*
X157181Y66691D02*
X181890D01*
X139083Y67189D02*
X181890D01*
X139083Y67687D02*
X181890D01*
X139083Y68185D02*
X181890D01*
X139083Y68683D02*
X181890D01*
X139083Y69181D02*
X181890D01*
X139083Y69679D02*
X181890D01*
X139083Y70177D02*
X181890D01*
X139083Y70675D02*
X181890D01*
X139083Y71173D02*
X181890D01*
X139083Y71671D02*
X181890D01*
X139083Y72169D02*
X181890D01*
X139083Y72667D02*
X181890D01*
X139083Y73165D02*
X181890D01*
X139083Y73663D02*
X181890D01*
X139083Y74161D02*
X181890D01*
X139083Y74659D02*
X181890D01*
X140945Y75157D02*
X181890D01*
X181537Y75655D02*
X181703D01*
X147744Y63356D02*
Y10313D01*
X161415*
X161159Y10626*
X160926Y10957*
X160719Y11304*
X160536Y11664*
X160380Y12037*
X160252Y12421*
X160152Y12813*
X160080Y13211*
X160037Y13613*
X160024Y14017*
X160040Y14420*
X160085Y14822*
X160159Y15220*
X160261Y15611*
X160392Y15994*
X160550Y16366*
X160735Y16726*
X160945Y17071*
X161180Y17400*
X161437Y17711*
X161717Y18004*
X162017Y18274*
X162336Y18523*
X162672Y18748*
X163024Y18948*
X163389Y19122*
X163765Y19269*
X164152Y19389*
X163965Y19569*
X163799Y19771*
X163658Y19990*
X163543Y20224*
X163457Y20470*
X163400Y20725*
X163372Y20984*
X163376Y21245*
X163409Y21504*
X163472Y21756*
X163565Y22000*
X163685Y22231*
X163832Y22447*
X164002Y22644*
X164195Y22820*
X164407Y22973*
X164635Y23100*
X164876Y23199*
X156156*
X155917Y23215*
X155683Y23261*
X155457Y23338*
X155243Y23443*
X155044Y23576*
X154865Y23733*
X154707Y23913*
X154575Y24111*
X154469Y24326*
X154393Y24552*
X154346Y24786*
X154331Y25024*
Y63356*
X147744*
Y10565D02*
X161206D01*
X147744Y11063D02*
X160859D01*
X147744Y11561D02*
X160585D01*
X147744Y12059D02*
X160372D01*
X147744Y12557D02*
X160213D01*
X147744Y13055D02*
X160104D01*
X147744Y13553D02*
X160041D01*
X147744Y14051D02*
X160024D01*
X147744Y14549D02*
X160051D01*
X147744Y15047D02*
X160123D01*
X147744Y15545D02*
X160242D01*
X147744Y16043D02*
X160411D01*
X147744Y16541D02*
X160636D01*
X147744Y17039D02*
X160924D01*
X147744Y17537D02*
X161288D01*
X147744Y18035D02*
X161750D01*
X147744Y18533D02*
X162350D01*
X147744Y19031D02*
X163190D01*
X147744Y19530D02*
X164002D01*
X147744Y20028D02*
X163637D01*
X147744Y20526D02*
X163442D01*
X147744Y21024D02*
X163370D01*
X147744Y21522D02*
X163413D01*
X147744Y22020D02*
X163574D01*
X147744Y22518D02*
X163889D01*
X147744Y23016D02*
X164477D01*
X147744Y23514D02*
X155131D01*
X147744Y24012D02*
X154637D01*
X147744Y24510D02*
X154405D01*
X147744Y25008D02*
X154331D01*
X147744Y25506D02*
X154331D01*
X147744Y26004D02*
X154331D01*
X147744Y26502D02*
X154331D01*
X147744Y27000D02*
X154331D01*
X147744Y27498D02*
X154331D01*
X147744Y27996D02*
X154331D01*
X147744Y28494D02*
X154331D01*
X147744Y28992D02*
X154331D01*
X147744Y29490D02*
X154331D01*
X147744Y29988D02*
X154331D01*
X147744Y30486D02*
X154331D01*
X147744Y30984D02*
X154331D01*
X147744Y31482D02*
X154331D01*
X147744Y31980D02*
X154331D01*
X147744Y32478D02*
X154331D01*
X147744Y32976D02*
X154331D01*
X147744Y33474D02*
X154331D01*
X147744Y33972D02*
X154331D01*
X147744Y34470D02*
X154331D01*
X147744Y34969D02*
X154331D01*
X147744Y35467D02*
X154331D01*
X147744Y35965D02*
X154331D01*
X147744Y36463D02*
X154331D01*
X147744Y36961D02*
X154331D01*
X147744Y37459D02*
X154331D01*
X147744Y37957D02*
X154331D01*
X147744Y38455D02*
X154331D01*
X147744Y38953D02*
X154331D01*
X147744Y39451D02*
X154331D01*
X147744Y39949D02*
X154331D01*
X147744Y40447D02*
X154331D01*
X147744Y40945D02*
X154331D01*
X147744Y41443D02*
X154331D01*
X147744Y41941D02*
X154331D01*
X147744Y42439D02*
X154331D01*
X147744Y42937D02*
X154331D01*
X147744Y43435D02*
X154331D01*
X147744Y43933D02*
X154331D01*
X147744Y44431D02*
X154331D01*
X147744Y44929D02*
X154331D01*
X147744Y45427D02*
X154331D01*
X147744Y45925D02*
X154331D01*
X147744Y46423D02*
X154331D01*
X147744Y46921D02*
X154331D01*
X147744Y47419D02*
X154331D01*
X147744Y47917D02*
X154331D01*
X147744Y48415D02*
X154331D01*
X147744Y48913D02*
X154331D01*
X147744Y49411D02*
X154331D01*
X147744Y49909D02*
X154331D01*
X147744Y50407D02*
X154331D01*
X147744Y50906D02*
X154331D01*
X147744Y51404D02*
X154331D01*
X147744Y51902D02*
X154331D01*
X147744Y52400D02*
X154331D01*
X147744Y52898D02*
X154331D01*
X147744Y53396D02*
X154331D01*
X147744Y53894D02*
X154331D01*
X147744Y54392D02*
X154331D01*
X147744Y54890D02*
X154331D01*
X147744Y55388D02*
X154331D01*
X147744Y55886D02*
X154331D01*
X147744Y56384D02*
X154331D01*
X147744Y56882D02*
X154331D01*
X147744Y57380D02*
X154331D01*
X147744Y57878D02*
X154331D01*
X147744Y58376D02*
X154331D01*
X147744Y58874D02*
X154331D01*
X147744Y59372D02*
X154331D01*
X147744Y59870D02*
X154331D01*
X147744Y60368D02*
X154331D01*
X147744Y60866D02*
X154331D01*
X147744Y61364D02*
X154331D01*
X147744Y61862D02*
X154331D01*
X147744Y62360D02*
X154331D01*
X147744Y62858D02*
X154331D01*
X314173Y317293D02*
X310798D01*
X310805Y317150*
Y298835*
X311037Y298880*
X311274Y298896*
X312598*
Y303325*
X314173*
Y317293*
X310805Y298866D02*
X310946D01*
X310805Y299364D02*
X312598D01*
X310805Y299862D02*
X312598D01*
X310805Y300360D02*
X312598D01*
X310805Y300858D02*
X312598D01*
X310805Y301356D02*
X312598D01*
X310805Y301854D02*
X312598D01*
X310805Y302352D02*
X312598D01*
X310805Y302850D02*
X312598D01*
X310805Y303348D02*
X314173D01*
X310805Y303846D02*
X314173D01*
X310805Y304344D02*
X314173D01*
X310805Y304843D02*
X314173D01*
X310805Y305341D02*
X314173D01*
X310805Y305839D02*
X314173D01*
X310805Y306337D02*
X314173D01*
X310805Y306835D02*
X314173D01*
X310805Y307333D02*
X314173D01*
X310805Y307831D02*
X314173D01*
X310805Y308329D02*
X314173D01*
X310805Y308827D02*
X314173D01*
X310805Y309325D02*
X314173D01*
X310805Y309823D02*
X314173D01*
X310805Y310321D02*
X314173D01*
X310805Y310819D02*
X314173D01*
X310805Y311317D02*
X314173D01*
X310805Y311815D02*
X314173D01*
X310805Y312313D02*
X314173D01*
X310805Y312811D02*
X314173D01*
X310805Y313309D02*
X314173D01*
X310805Y313807D02*
X314173D01*
X310805Y314305D02*
X314173D01*
X310805Y314803D02*
X314173D01*
X310805Y315301D02*
X314173D01*
X310805Y315799D02*
X314173D01*
X310805Y316297D02*
X314173D01*
X310805Y316795D02*
X314173D01*
D02*
D75*
X13636Y230535D02*
Y317150D01*
X111667Y299827D02*
X116785D01*
X111667D02*
X106549D01*
Y116362*
X119541*
Y117937*
X111667Y299827D02*
X111470Y300024D01*
X114030Y94709D02*
X109502D01*
X114030D02*
Y47858D01*
X136864*
X114030Y94709D02*
X116785D01*
X115998Y293528D02*
X111470D01*
X115998D02*
X116785D01*
X115998D02*
Y222268D01*
X116785Y119906D02*
Y191165D01*
X110486*
X116785Y197465D02*
X110486D01*
Y197661*
X119541Y101205D02*
X109502D01*
X119541D02*
Y71874D01*
Y101205D02*
X153006D01*
Y101008*
X122297Y115181D02*
Y197661D01*
X110486*
X135683Y91953D02*
Y63606D01*
X145919*
Y8488*
X311274*
Y197661*
X312848*
X140014Y77386D02*
X180959D01*
Y79748*
X145132Y103764D02*
X126234D01*
Y319118*
X315998*
Y300024*
X316195*
X146707Y80142D02*
X137258D01*
Y65181*
X156156*
Y25024*
X214030*
Y19906*
X155368Y80142D02*
X155762D01*
Y115181*
X158911Y60850D02*
Y38803D01*
X163242Y47858D02*
X196707D01*
Y85654*
X165604Y39197D02*
Y30732D01*
X170722Y60850D02*
X192770D01*
X173478Y40772D02*
X185289D01*
Y30732*
X176234Y43528D02*
X170722D01*
Y38016*
X175447*
Y30732*
X183715Y76992D02*
Y63606D01*
X158911*
Y60850*
X199463D02*
Y38016D01*
X203793D02*
X204974D01*
Y30732*
X205368Y104945D02*
Y83291D01*
X208518Y55339D02*
X203793D01*
X210486Y21087D02*
X165604D01*
X214030Y299827D02*
X213833Y300024D01*
X214030Y299827D02*
X210486D01*
Y228567*
X311274*
Y297071*
X323478*
X214030Y299827D02*
X219148D01*
X218360Y197661D02*
X213833D01*
X218360D02*
X221904D01*
Y86047*
X208124*
Y107701*
X218360Y197661D02*
Y206520D01*
X219148Y80142D02*
Y15575D01*
Y110457D02*
Y89984D01*
Y110457D02*
X196707D01*
Y85654*
X219148Y110457D02*
Y191165D01*
X213833*
X219148Y289197D02*
Y293528D01*
X213833*
X316195Y197661D02*
X312848D01*
X320722Y88803D02*
X316195D01*
X320722D02*
X323478D01*
Y128173*
X320722Y88803D02*
Y17543D01*
Y104157D02*
Y95299D01*
X316195*
X320722Y191165D02*
X316195D01*
X320722D02*
Y222268D01*
X321510Y230535D02*
Y293528D01*
X316195*
X321510Y299827D02*
Y300024D01*
X316195*
X323478Y188409D02*
Y188016D01*
X312848*
Y197661*
X323478Y216756D02*
X209305D01*
Y191165*
X213833*
D02*
D80*
X165604Y14000D03*
Y30732D03*
X175447Y14000D03*
Y30732D03*
X185289Y14000D03*
Y30732D03*
X195132Y14000D03*
Y30732D03*
X204974Y14000D03*
Y30732D03*
D02*
D86*
X109502Y94709D03*
Y101205D03*
X110486Y191165D03*
Y197661D03*
X111470Y293528D03*
Y300024D03*
X213833Y191165D03*
Y197661D03*
Y293528D03*
Y300024D03*
X316195Y88803D03*
Y95299D03*
Y191165D03*
Y197661D03*
Y293528D03*
Y300024D03*
X0Y0D02*
M02*
