G04 EasyPC Gerber Version 20.0.2 Build 4112 *
%FSLAX35Y35*%
%MOIN*%
%ADD111R,0.02569X0.08513*%
%ADD102R,0.04340X0.04931*%
%ADD112R,0.12411X0.12411*%
%ADD23C,0.08474*%
%ADD100R,0.04931X0.04340*%
%ADD94C,0.09261*%
X0Y0D02*
D02*
D23*
X8124Y12031D03*
Y330929D03*
X327022Y12031D03*
Y330929D03*
D02*
D94*
X165604Y14000D03*
Y30732D03*
X175447Y14000D03*
Y30732D03*
X185289Y14000D03*
Y30732D03*
X195132Y14000D03*
Y30732D03*
X204974Y14000D03*
Y30732D03*
D02*
D100*
X192179Y76992D03*
Y83488D03*
Y89984D03*
X201037Y76992D03*
Y83488D03*
Y89984D03*
X203990Y59669D03*
Y66165D03*
X209896Y76992D03*
Y83488D03*
Y89984D03*
D02*
D102*
X158715Y43528D03*
X165211D03*
X197100Y42543D03*
Y50417D03*
X203596Y42543D03*
Y50417D03*
D02*
D111*
X140014Y54354D03*
Y86598D03*
X142573Y54354D03*
Y86598D03*
X145132Y54354D03*
Y86598D03*
X147691Y54354D03*
Y86598D03*
X150250Y54354D03*
Y86598D03*
X152809Y54354D03*
Y86598D03*
X155368Y54354D03*
Y86598D03*
X157927Y54354D03*
Y86598D03*
X160486Y54354D03*
Y86598D03*
X163045Y54354D03*
Y86598D03*
X165604Y54354D03*
Y86598D03*
X168163Y54354D03*
Y86598D03*
X170722Y54354D03*
Y86598D03*
X173281Y54354D03*
Y86598D03*
D02*
D112*
X21904Y25811D03*
Y112425D03*
Y128173D03*
Y214787D03*
Y230535D03*
Y317150D03*
X108518Y25811D03*
Y112425D03*
Y128173D03*
Y214787D03*
Y230535D03*
Y317150D03*
X124266Y128173D03*
Y214787D03*
Y230535D03*
Y317150D03*
X210880Y128173D03*
Y214787D03*
Y230535D03*
Y317150D03*
X226628Y25811D03*
Y112425D03*
Y128173D03*
Y214787D03*
Y230535D03*
Y317150D03*
X313242Y25811D03*
Y112425D03*
Y128173D03*
Y214787D03*
Y230535D03*
Y317150D03*
X0Y0D02*
M02*
