  0
SECTION
  2
HEADER
  9
$EXTMIN
 10
485.448
 20
461.077
  9
$EXTMAX
 10
513.905
 20
514.341
  9
$LIMMIN
 10
485.448
 20
461.077
  9
$LIMMAX
 10
513.905
 20
514.341
  0
ENDSEC
  0
SECTION
  2
TABLES
  0
TABLE
  2
LAYER
 70
    18
  0
LAYER
  2
0
 70
    64
 62
     7
  6
CONTINUOUS
  0
LAYER
  2
_BOARD
 70
    64
 62
    254
  6
CONTINUOUS
  0
LAYER
  2
_DRILL
 70
    64
 62
    251
  6
CONTINUOUS
  0
ENDTAB
  0
ENDSEC
  0
SECTION
  2
BLOCKS
  0
BLOCK
  8
0
  2
_HOLE
 70
    64
 10
0.000
 20
0.000
  0
CIRCLE
  8
0
 10
0.000
 20
0.000
 40
0.500
  0
ENDBLK
  8
0
  0
ENDSEC
  0
SECTION
  2
ENTITIES
  0
POLYLINE
  8
_BOARD
 66
     1
 62
     3
 10
0.000
 20
0.000
 70
     1
 40
0.000
 41
0.000
  0
VERTEX
  8
_BOARD
 10
0.000
 20
-50.000
 40
0.000
 41
0.000
  0
VERTEX
  8
_BOARD
 10
25.000
 20
-50.000
  0
VERTEX
  8
_BOARD
 10
25.000
 20
-50.000
 40
0.000
 41
0.000
  0
VERTEX
  8
_BOARD
 10
25.000
 20
-25.000
  0
VERTEX
  8
_BOARD
 10
25.000
 20
-25.000
 40
0.000
 41
0.000
  0
VERTEX
  8
_BOARD
 10
0.000
 20
-25.000
  0
VERTEX
  8
_BOARD
 10
0.000
 20
-25.000
 40
0.000
 41
0.000
  0
VERTEX
  8
_BOARD
 10
0.000
 20
-50.000
 40
0.000
 41
0.000
  0
VERTEX
  8
_BOARD
 10
0.000
 20
-50.000
  0
SEQEND
  8
_BOARD
  0
POLYLINE
  8
_BOARD
 66
     1
 62
     3
 10
0.000
 20
0.000
 70
     1
 40
0.000
 41
0.000
  0
VERTEX
  8
_BOARD
 10
0.000
 20
-25.000
 40
0.000
 41
0.000
  0
VERTEX
  8
_BOARD
 10
25.000
 20
-25.000
  0
VERTEX
  8
_BOARD
 10
25.000
 20
-25.000
 40
0.000
 41
0.000
  0
VERTEX
  8
_BOARD
 10
25.000
 20
0.000
  0
VERTEX
  8
_BOARD
 10
25.000
 20
0.000
 40
0.000
 41
0.000
  0
VERTEX
  8
_BOARD
 10
0.000
 20
0.000
  0
VERTEX
  8
_BOARD
 10
0.000
 20
0.000
 40
0.000
 41
0.000
  0
VERTEX
  8
_BOARD
 10
0.000
 20
-25.000
 40
0.000
 41
0.000
  0
VERTEX
  8
_BOARD
 10
0.000
 20
-25.000
  0
SEQEND
  8
_BOARD
  0
INSERT
  8
_DRILL
  2
_HOLE
 10
6.050
 20
-40.300
 41
0.300
 42
0.300
  0
INSERT
  8
_DRILL
  2
_HOLE
 10
4.800
 20
-27.550
 41
0.300
 42
0.300
  0
INSERT
  8
_DRILL
  2
_HOLE
 10
7.000
 20
-39.150
 41
0.300
 42
0.300
  0
INSERT
  8
_DRILL
  2
_HOLE
 10
7.650
 20
-31.300
 41
0.300
 42
0.300
  0
INSERT
  8
_DRILL
  2
_HOLE
 10
7.450
 20
-44.250
 41
0.300
 42
0.300
  0
INSERT
  8
_DRILL
  2
_HOLE
 10
11.050
 20
-26.000
 41
0.300
 42
0.300
  0
INSERT
  8
_DRILL
  2
_HOLE
 10
11.050
 20
-45.700
 41
0.300
 42
0.300
  0
INSERT
  8
_DRILL
  2
_HOLE
 10
18.000
 20
-12.900
 41
0.300
 42
0.300
  0
INSERT
  8
_DRILL
  2
_HOLE
 10
17.800
 20
-8.550
 41
0.300
 42
0.300
  0
INSERT
  8
_DRILL
  2
_HOLE
 10
18.450
 20
-7.900
 41
0.300
 42
0.300
  0
INSERT
  8
_DRILL
  2
_HOLE
 10
16.050
 20
-19.750
 41
0.300
 42
0.300
  0
INSERT
  8
_DRILL
  2
_HOLE
 10
18.650
 20
-31.300
 41
0.300
 42
0.300
  0
INSERT
  8
_DRILL
  2
_HOLE
 10
19.700
 20
-35.950
 41
0.300
 42
0.300
  0
INSERT
  8
_DRILL
  2
_HOLE
 10
14.600
 20
-35.800
 41
0.300
 42
0.300
  0
INSERT
  8
_DRILL
  2
_HOLE
 10
19.300
 20
-34.100
 41
0.300
 42
0.300
  0
INSERT
  8
_DRILL
  2
_HOLE
 10
19.300
 20
-30.400
 41
0.300
 42
0.300
  0
INSERT
  8
_DRILL
  2
_HOLE
 10
15.850
 20
-34.100
 41
0.300
 42
0.300
  0
INSERT
  8
_DRILL
  2
_HOLE
 10
19.050
 20
-36.600
 41
0.300
 42
0.300
  0
INSERT
  8
_DRILL
  2
_HOLE
 10
15.200
 20
-33.450
 41
0.300
 42
0.300
  0
INSERT
  8
_DRILL
  2
_HOLE
 10
20.400
 20
-32.700
 41
0.300
 42
0.300
  0
INSERT
  8
_DRILL
  2
_HOLE
 10
15.450
 20
-32.250
 41
0.300
 42
0.300
  0
INSERT
  8
_DRILL
  2
_HOLE
 10
15.450
 20
-30.200
 41
0.300
 42
0.300
  0
INSERT
  8
_DRILL
  2
_HOLE
 10
16.500
 20
-40.050
 41
0.300
 42
0.300
  0
INSERT
  8
_DRILL
  2
_HOLE
 10
20.400
 20
-40.550
 41
0.300
 42
0.300
  0
INSERT
  8
_DRILL
  2
_HOLE
 10
13.300
 20
-44.750
 41
0.300
 42
0.300
  0
INSERT
  8
_DRILL
  2
_HOLE
 10
13.300
 20
-26.000
 41
0.300
 42
0.300
  0
INSERT
  8
_DRILL
  2
_HOLE
 10
11.350
 20
-17.400
 41
0.300
 42
0.300
  0
INSERT
  8
_DRILL
  2
_HOLE
 10
3.100
 20
-22.200
 41
0.300
 42
0.300
  0
INSERT
  8
_DRILL
  2
_HOLE
 10
6.750
 20
-18.050
 41
0.300
 42
0.300
  0
INSERT
  8
_DRILL
  2
_HOLE
 10
6.750
 20
-15.900
 41
0.300
 42
0.300
  0
INSERT
  8
_DRILL
  2
_HOLE
 10
5.850
 20
-14.400
 41
0.300
 42
0.300
  0
INSERT
  8
_DRILL
  2
_HOLE
 10
9.150
 20
-12.900
 41
0.300
 42
0.300
  0
INSERT
  8
_DRILL
  2
_HOLE
 10
9.150
 20
-18.700
 41
0.300
 42
0.300
  0
INSERT
  8
_DRILL
  2
_HOLE
 10
8.500
 20
-11.400
 41
0.300
 42
0.300
  0
INSERT
  8
_DRILL
  2
_HOLE
 10
8.500
 20
-18.050
 41
0.300
 42
0.300
  0
INSERT
  8
_DRILL
  2
_HOLE
 10
9.350
 20
-21.100
 41
0.300
 42
0.300
  0
INSERT
  8
_DRILL
  2
_HOLE
 10
7.850
 20
-21.100
 41
0.300
 42
0.300
  0
INSERT
  8
_DRILL
  2
_HOLE
 10
7.700
 20
-22.700
 41
0.300
 42
0.300
  0
INSERT
  8
_DRILL
  2
_HOLE
 10
7.450
 20
-9.900
 41
0.300
 42
0.300
  0
INSERT
  8
_DRILL
  2
_HOLE
 10
8.500
 20
-19.350
 41
0.300
 42
0.300
  0
INSERT
  8
_DRILL
  2
_HOLE
 10
10.300
 20
-8.400
 41
0.300
 42
0.300
  0
INSERT
  8
_DRILL
  2
_HOLE
 10
15.400
 20
-11.400
 41
0.300
 42
0.300
  0
INSERT
  8
_DRILL
  2
_HOLE
 10
16.650
 20
-20.400
 41
0.300
 42
0.300
  0
INSERT
  8
_DRILL
  2
_HOLE
 10
19.500
 20
-17.400
 41
0.300
 42
0.300
  0
INSERT
  8
_DRILL
  2
_HOLE
 10
17.350
 20
-30.650
 41
0.300
 42
0.300
  0
INSERT
  8
_DRILL
  2
_HOLE
 10
17.350
 20
-43.000
 41
0.300
 42
0.300
  0
INSERT
  8
_DRILL
  2
_HOLE
 10
20.400
 20
-43.000
 41
0.300
 42
0.300
  0
INSERT
  8
_DRILL
  2
_HOLE
 10
9.500
 20
-43.000
 41
0.300
 42
0.300
  0
INSERT
  8
_DRILL
  2
_HOLE
 10
8.000
 20
-49.000
 41
0.610
 42
0.610
  0
INSERT
  8
_DRILL
  2
_HOLE
 10
21.000
 20
-27.300
 41
0.300
 42
0.300
  0
INSERT
  8
_DRILL
  2
_HOLE
 10
12.050
 20
-2.800
 41
0.300
 42
0.300
  0
INSERT
  8
_DRILL
  2
_HOLE
 10
15.750
 20
-2.800
 41
0.300
 42
0.300
  0
INSERT
  8
_DRILL
  2
_HOLE
 10
21.000
 20
-5.850
 41
0.300
 42
0.300
  0
INSERT
  8
_DRILL
  2
_HOLE
 10
21.000
 20
-20.000
 41
0.300
 42
0.300
  0
INSERT
  8
_DRILL
  2
_HOLE
 10
2.450
 20
-20.100
 41
0.300
 42
0.300
  0
INSERT
  8
_DRILL
  2
_HOLE
 10
4.750
 20
-19.050
 41
0.300
 42
0.300
  0
INSERT
  8
_DRILL
  2
_HOLE
 10
17.500
 20
-6.950
 41
0.610
 42
0.610
  0
INSERT
  8
_DRILL
  2
_HOLE
 10
10.000
 20
-22.150
 41
0.300
 42
0.300
  0
INSERT
  8
_DRILL
  2
_HOLE
 10
13.000
 20
-23.000
 41
0.610
 42
0.610
  0
INSERT
  8
_DRILL
  2
_HOLE
 10
13.000
 20
-9.000
 41
0.610
 42
0.610
  0
INSERT
  8
_DRILL
  2
_HOLE
 10
13.000
 20
-4.000
 41
0.610
 42
0.610
  0
INSERT
  8
_DRILL
  2
_HOLE
 10
1.500
 20
-23.500
 41
1.500
 42
1.500
  0
INSERT
  8
_DRILL
  2
_HOLE
 10
1.500
 20
-1.500
 41
1.500
 42
1.500
  0
INSERT
  8
_DRILL
  2
_HOLE
 10
23.500
 20
-23.500
 41
1.500
 42
1.500
  0
INSERT
  8
_DRILL
  2
_HOLE
 10
21.780
 20
-29.000
 41
1.200
 42
1.200
  0
INSERT
  8
_DRILL
  2
_HOLE
 10
21.780
 20
-31.540
 41
1.200
 42
1.200
  0
INSERT
  8
_DRILL
  2
_HOLE
 10
21.780
 20
-34.080
 41
1.200
 42
1.200
  0
INSERT
  8
_DRILL
  2
_HOLE
 10
21.780
 20
-36.620
 41
1.200
 42
1.200
  0
INSERT
  8
_DRILL
  2
_HOLE
 10
21.780
 20
-39.160
 41
1.200
 42
1.200
  0
INSERT
  8
_DRILL
  2
_HOLE
 10
21.780
 20
-41.700
 41
1.200
 42
1.200
  0
INSERT
  8
_DRILL
  2
_HOLE
 10
21.780
 20
-44.240
 41
1.200
 42
1.200
  0
INSERT
  8
_DRILL
  2
_HOLE
 10
21.780
 20
-46.780
 41
1.200
 42
1.200
  0
INSERT
  8
_DRILL
  2
_HOLE
 10
4.000
 20
-46.780
 41
1.200
 42
1.200
  0
INSERT
  8
_DRILL
  2
_HOLE
 10
4.000
 20
-44.240
 41
1.200
 42
1.200
  0
INSERT
  8
_DRILL
  2
_HOLE
 10
4.000
 20
-41.700
 41
1.200
 42
1.200
  0
INSERT
  8
_DRILL
  2
_HOLE
 10
4.000
 20
-39.160
 41
1.200
 42
1.200
  0
INSERT
  8
_DRILL
  2
_HOLE
 10
4.000
 20
-36.620
 41
1.200
 42
1.200
  0
INSERT
  8
_DRILL
  2
_HOLE
 10
4.000
 20
-34.080
 41
1.200
 42
1.200
  0
INSERT
  8
_DRILL
  2
_HOLE
 10
4.000
 20
-31.540
 41
1.200
 42
1.200
  0
INSERT
  8
_DRILL
  2
_HOLE
 10
4.000
 20
-29.000
 41
1.200
 42
1.200
  0
INSERT
  8
_DRILL
  2
_HOLE
 10
17.120
 20
-46.990
 41
1.200
 42
1.200
  0
INSERT
  8
_DRILL
  2
_HOLE
 10
14.580
 20
-46.990
 41
1.200
 42
1.200
  0
INSERT
  8
_DRILL
  2
_HOLE
 10
12.040
 20
-46.990
 41
1.200
 42
1.200
  0
INSERT
  8
_DRILL
  2
_HOLE
 10
9.500
 20
-46.990
 41
1.200
 42
1.200
  0
INSERT
  8
_DRILL
  2
_HOLE
 10
23.500
 20
-1.500
 41
1.500
 42
1.500
  0
ENDSEC
  0
EOF
