G04 EasyPC Gerber Version 20.0.2 Build 4112 *
%FSLAX35Y35*%
%MOIN*%
%ADD92R,0.08474X0.08474*%
%ADD23C,0.08474*%
%ADD95R,0.15364X0.04143*%
%ADD91R,0.04734X0.04537*%
%ADD96R,0.06702X0.05718*%
%ADD93R,0.04537X0.06506*%
%ADD94C,0.09261*%
X0Y0D02*
D02*
D23*
X43513Y19423D03*
Y216274D03*
X53513Y19423D03*
Y216274D03*
X63513Y19423D03*
Y216274D03*
X73513Y19423D03*
Y216274D03*
X141938Y19423D03*
Y216274D03*
X151938Y19423D03*
Y216274D03*
X161938Y19423D03*
Y216274D03*
X171938Y19423D03*
Y216274D03*
X240363Y19423D03*
Y216274D03*
X250363Y19423D03*
Y216274D03*
X260363Y19423D03*
Y216274D03*
X270363Y19423D03*
Y216274D03*
X338788Y19423D03*
Y216274D03*
X348788Y19423D03*
Y216274D03*
X358788Y19423D03*
Y216274D03*
X368788Y19423D03*
Y216274D03*
D02*
D91*
X19891Y129994D03*
Y135900D03*
Y141805D03*
Y147711D03*
Y153616D03*
Y159522D03*
Y165427D03*
Y171333D03*
Y177238D03*
Y326844D03*
Y332750D03*
Y338656D03*
Y344561D03*
Y350467D03*
Y356372D03*
Y362278D03*
Y368183D03*
Y374089D03*
X90560Y129994D03*
Y135900D03*
Y141805D03*
Y147711D03*
Y153616D03*
Y159522D03*
Y165427D03*
Y171333D03*
Y177238D03*
Y326844D03*
Y332750D03*
Y338656D03*
Y344561D03*
Y350467D03*
Y356372D03*
Y362278D03*
Y368183D03*
Y374089D03*
X118316Y129994D03*
Y135900D03*
Y141805D03*
Y147711D03*
Y153616D03*
Y159522D03*
Y165427D03*
Y171333D03*
Y177238D03*
Y326844D03*
Y332750D03*
Y338656D03*
Y344561D03*
Y350467D03*
Y356372D03*
Y362278D03*
Y368183D03*
Y374089D03*
X188985Y129994D03*
Y135900D03*
Y141805D03*
Y147711D03*
Y153616D03*
Y159522D03*
Y165427D03*
Y171333D03*
Y177238D03*
Y326844D03*
Y332750D03*
Y338656D03*
Y344561D03*
Y350467D03*
Y356372D03*
Y362278D03*
Y368183D03*
Y374089D03*
X216741Y129994D03*
Y135900D03*
Y141805D03*
Y147711D03*
Y153616D03*
Y159522D03*
Y165427D03*
Y171333D03*
Y177238D03*
Y326844D03*
Y332750D03*
Y338656D03*
Y344561D03*
Y350467D03*
Y356372D03*
Y362278D03*
Y368183D03*
Y374089D03*
X287410Y129994D03*
Y135900D03*
Y141805D03*
Y147711D03*
Y153616D03*
Y159522D03*
Y165427D03*
Y171333D03*
Y177238D03*
Y326844D03*
Y332750D03*
Y338656D03*
Y344561D03*
Y350467D03*
Y356372D03*
Y362278D03*
Y368183D03*
Y374089D03*
X315166Y129994D03*
Y135900D03*
Y141805D03*
Y147711D03*
Y153616D03*
Y159522D03*
Y165427D03*
Y171333D03*
Y177238D03*
Y326844D03*
Y332750D03*
Y338656D03*
Y344561D03*
Y350467D03*
Y356372D03*
Y362278D03*
Y368183D03*
Y374089D03*
X385835Y129994D03*
Y135900D03*
Y141805D03*
Y147711D03*
Y153616D03*
Y159522D03*
Y165427D03*
Y171333D03*
Y177238D03*
Y326844D03*
Y332750D03*
Y338656D03*
Y344561D03*
Y350467D03*
Y356372D03*
Y362278D03*
Y368183D03*
Y374089D03*
D02*
D92*
X12017Y111904D03*
Y198518D03*
Y308754D03*
Y395368D03*
X98631Y111904D03*
Y198518D03*
Y308754D03*
Y395368D03*
X110442Y111904D03*
Y198518D03*
Y308754D03*
Y395368D03*
X197056Y111904D03*
Y198518D03*
Y308754D03*
Y395368D03*
X208867Y111904D03*
Y198518D03*
Y308754D03*
Y395368D03*
X295481Y111904D03*
Y198518D03*
Y308754D03*
Y395368D03*
X307292Y111904D03*
Y198518D03*
Y308754D03*
Y395368D03*
X393906Y111904D03*
Y198518D03*
Y308754D03*
Y395368D03*
D02*
D93*
X21859Y102061D03*
Y109935D03*
Y298911D03*
Y306785D03*
X27765Y102061D03*
Y109935D03*
Y298911D03*
Y306785D03*
X33670Y102061D03*
Y109935D03*
Y298911D03*
Y306785D03*
X39576Y102061D03*
Y109935D03*
Y298911D03*
Y306785D03*
X45481Y102061D03*
Y109935D03*
Y298911D03*
Y306785D03*
X65166Y102061D03*
Y109935D03*
Y298911D03*
Y306785D03*
X71072Y102061D03*
Y109935D03*
Y298911D03*
Y306785D03*
X76977Y102061D03*
Y109935D03*
Y298911D03*
Y306785D03*
X82883Y102061D03*
Y109935D03*
Y298911D03*
Y306785D03*
X88788Y102061D03*
Y109935D03*
Y298911D03*
Y306785D03*
X120284Y102061D03*
Y109935D03*
Y298911D03*
Y306785D03*
X126190Y102061D03*
Y109935D03*
Y298911D03*
Y306785D03*
X132095Y102061D03*
Y109935D03*
Y298911D03*
Y306785D03*
X138001Y102061D03*
Y109935D03*
Y298911D03*
Y306785D03*
X143906Y102061D03*
Y109935D03*
Y298911D03*
Y306785D03*
X163591Y102061D03*
Y109935D03*
Y298911D03*
Y306785D03*
X169497Y102061D03*
Y109935D03*
Y298911D03*
Y306785D03*
X175402Y102061D03*
Y109935D03*
Y298911D03*
Y306785D03*
X181308Y102061D03*
Y109935D03*
Y298911D03*
Y306785D03*
X187213Y102061D03*
Y109935D03*
Y298911D03*
Y306785D03*
X218709Y102061D03*
Y109935D03*
Y298911D03*
Y306785D03*
X224615Y102061D03*
Y109935D03*
Y298911D03*
Y306785D03*
X230520Y102061D03*
Y109935D03*
Y298911D03*
Y306785D03*
X236426Y102061D03*
Y109935D03*
Y298911D03*
Y306785D03*
X242331Y102061D03*
Y109935D03*
Y298911D03*
Y306785D03*
X262017Y102061D03*
Y109935D03*
Y298911D03*
Y306785D03*
X267922Y102061D03*
Y109935D03*
Y298911D03*
Y306785D03*
X273828Y102061D03*
Y109935D03*
Y298911D03*
Y306785D03*
X279733Y102061D03*
Y109935D03*
Y298911D03*
Y306785D03*
X285639Y102061D03*
Y109935D03*
Y298911D03*
Y306785D03*
X317135Y102061D03*
Y109935D03*
Y298911D03*
Y306785D03*
X323040Y102061D03*
Y109935D03*
Y298911D03*
Y306785D03*
X328946Y102061D03*
Y109935D03*
Y298911D03*
Y306785D03*
X334851Y102061D03*
Y109935D03*
Y298911D03*
Y306785D03*
X340757Y102061D03*
Y109935D03*
Y298911D03*
Y306785D03*
X360442Y102061D03*
Y109935D03*
Y298911D03*
Y306785D03*
X366347Y102061D03*
Y109935D03*
Y298911D03*
Y306785D03*
X372253Y102061D03*
Y109935D03*
Y298911D03*
Y306785D03*
X378158Y102061D03*
Y109935D03*
Y298911D03*
Y306785D03*
X384064Y102061D03*
Y109935D03*
Y298911D03*
Y306785D03*
D02*
D94*
X21859Y20250D03*
Y30250D03*
Y40250D03*
Y50250D03*
Y60250D03*
Y70250D03*
Y80250D03*
Y90250D03*
Y217100D03*
Y227100D03*
Y237100D03*
Y247100D03*
Y257100D03*
Y267100D03*
Y277100D03*
Y287100D03*
X91859Y20250D03*
Y30250D03*
Y40250D03*
Y50250D03*
Y60250D03*
Y70250D03*
Y80250D03*
Y90250D03*
Y217100D03*
Y227100D03*
Y237100D03*
Y247100D03*
Y257100D03*
Y267100D03*
Y277100D03*
Y287100D03*
X120284Y20250D03*
Y30250D03*
Y40250D03*
Y50250D03*
Y60250D03*
Y70250D03*
Y80250D03*
Y90250D03*
Y217100D03*
Y227100D03*
Y237100D03*
Y247100D03*
Y257100D03*
Y267100D03*
Y277100D03*
Y287100D03*
X190284Y20250D03*
Y30250D03*
Y40250D03*
Y50250D03*
Y60250D03*
Y70250D03*
Y80250D03*
Y90250D03*
Y217100D03*
Y227100D03*
Y237100D03*
Y247100D03*
Y257100D03*
Y267100D03*
Y277100D03*
Y287100D03*
X218709Y20250D03*
Y30250D03*
Y40250D03*
Y50250D03*
Y60250D03*
Y70250D03*
Y80250D03*
Y90250D03*
Y217100D03*
Y227100D03*
Y237100D03*
Y247100D03*
Y257100D03*
Y267100D03*
Y277100D03*
Y287100D03*
X288709Y20250D03*
Y30250D03*
Y40250D03*
Y50250D03*
Y60250D03*
Y70250D03*
Y80250D03*
Y90250D03*
Y217100D03*
Y227100D03*
Y237100D03*
Y247100D03*
Y257100D03*
Y267100D03*
Y277100D03*
Y287100D03*
X317135Y20250D03*
Y30250D03*
Y40250D03*
Y50250D03*
Y60250D03*
Y70250D03*
Y80250D03*
Y90250D03*
Y217100D03*
Y227100D03*
Y237100D03*
Y247100D03*
Y257100D03*
Y267100D03*
Y277100D03*
Y287100D03*
X387135Y20250D03*
Y30250D03*
Y40250D03*
Y50250D03*
Y60250D03*
Y70250D03*
Y80250D03*
Y90250D03*
Y217100D03*
Y227100D03*
Y237100D03*
Y247100D03*
Y257100D03*
Y267100D03*
Y277100D03*
Y287100D03*
D02*
D95*
X47450Y31195D03*
Y41037D03*
Y50880D03*
Y228045D03*
Y237888D03*
Y247730D03*
X67725Y31195D03*
Y41037D03*
Y50880D03*
Y228045D03*
Y237888D03*
Y247730D03*
X145875Y31195D03*
Y41037D03*
Y50880D03*
Y228045D03*
Y237888D03*
Y247730D03*
X166150Y31195D03*
Y41037D03*
Y50880D03*
Y228045D03*
Y237888D03*
Y247730D03*
X244300Y31195D03*
Y41037D03*
Y50880D03*
Y228045D03*
Y237888D03*
Y247730D03*
X264576Y31195D03*
Y41037D03*
Y50880D03*
Y228045D03*
Y237888D03*
Y247730D03*
X342725Y31195D03*
Y41037D03*
Y50880D03*
Y228045D03*
Y237888D03*
Y247730D03*
X363001Y31195D03*
Y41037D03*
Y50880D03*
Y228045D03*
Y237888D03*
Y247730D03*
D02*
D96*
X41643Y59738D03*
Y77455D03*
Y256589D03*
Y274305D03*
X72942Y59738D03*
Y77455D03*
Y256589D03*
Y274305D03*
X140068Y59738D03*
Y77455D03*
Y256589D03*
Y274305D03*
X171367Y59738D03*
Y77455D03*
Y256589D03*
Y274305D03*
X238493Y59738D03*
Y77455D03*
Y256589D03*
Y274305D03*
X269792Y59738D03*
Y77455D03*
Y256589D03*
Y274305D03*
X336918Y59738D03*
Y77455D03*
Y256589D03*
Y274305D03*
X368217Y59738D03*
Y77455D03*
Y256589D03*
Y274305D03*
X0Y0D02*
M02*
