G04 EasyPC Gerber Version 20.0.2 Build 4112 *
%FSLAX35Y35*%
%MOIN*%
%ADD74C,0.00500*%
%ADD10C,0.01200*%
X0Y0D02*
D02*
D10*
X6111Y7573D02*
X104536D01*
Y105998*
X6111*
Y7573*
X399812*
Y401274*
X6111*
Y7573*
Y105998D02*
X104536D01*
Y204423*
X6111*
Y105998*
Y204423D02*
X104536D01*
Y302848*
X6111*
Y204423*
Y302848D02*
X104536D01*
Y401274*
X6111*
Y302848*
X104536Y7573D02*
X202961D01*
Y105998*
X104536*
Y7573*
Y105998D02*
X202961D01*
Y204423*
X104536*
Y105998*
Y204423D02*
X202961D01*
Y302848*
X104536*
Y204423*
Y302848D02*
X202961D01*
Y401274*
X104536*
Y302848*
X202961Y7573D02*
X301387D01*
Y105998*
X202961*
Y7573*
Y105998D02*
X301387D01*
Y204423*
X202961*
Y105998*
Y204423D02*
X301387D01*
Y302848*
X202961*
Y204423*
Y302848D02*
X301387D01*
Y401274*
X202961*
Y302848*
X301387Y7573D02*
X399812D01*
Y105998*
X301387*
Y7573*
Y105998D02*
X399812D01*
Y204423*
X301387*
Y105998*
Y204423D02*
X399812D01*
Y302848*
X301387*
Y204423*
Y302848D02*
X399812D01*
Y401274*
X301387*
Y302848*
D02*
D74*
X13515Y174364D02*
Y176864D01*
Y191864D02*
Y194364D01*
X12265Y193114D02*
X14765D01*
X13515Y371215D02*
Y373715D01*
Y388715D02*
Y391215D01*
X12265Y389965D02*
X14765D01*
X16922Y170943D02*
Y196565D01*
X30733*
Y170943*
X16922*
Y367793D02*
Y393415D01*
X30733*
Y367793*
X16922*
X21646Y115923D02*
Y128159D01*
X27977*
Y115923*
X21646*
Y312774D02*
Y325010D01*
X27977*
Y312774*
X21646*
X27765Y131542D02*
Y135292D01*
X25577*
X24952Y134980*
X24639Y134354*
X24952Y133730*
X25577Y133417*
X27765*
X25577D02*
X24639Y131542D01*
X21202D02*
Y135292D01*
X22765Y132792*
X20265*
X27765Y328392D02*
Y332142D01*
X25577*
X24952Y331830*
X24639Y331205*
X24952Y330580*
X25577Y330267*
X27765*
X25577D02*
X24639Y328392D01*
X21202D02*
Y332142D01*
X22765Y329642*
X20265*
X29520Y115923D02*
Y128159D01*
X35851*
Y115923*
X29520*
Y312774D02*
Y325010D01*
X35851*
Y312774*
X29520*
X33530Y178067D02*
X33217Y178693D01*
X32593Y179005*
X31967Y178693*
X31655Y178067*
Y175880*
X35405*
Y178067*
X35093Y178693*
X34467Y179005*
X33843Y178693*
X33530Y178067*
Y175880*
X31655Y180880D02*
X35405Y182443D01*
X31655Y184005*
X33217Y181505D02*
Y183380D01*
X31655Y187443D02*
X35405D01*
Y185880D02*
Y189005D01*
X31655Y191505D02*
Y192755D01*
Y192130D02*
X35405D01*
X34780Y191505*
X33530Y374918D02*
X33217Y375543D01*
X32593Y375856*
X31967Y375543*
X31655Y374918*
Y372730*
X35405*
Y374918*
X35093Y375543*
X34467Y375856*
X33843Y375543*
X33530Y374918*
Y372730*
X31655Y377730D02*
X35405Y379293D01*
X31655Y380856*
X33217Y378356D02*
Y380230D01*
X31655Y384293D02*
X35405D01*
Y382730D02*
Y385856D01*
X31655Y388356D02*
Y389606D01*
Y388980D02*
X35405D01*
X34780Y388356*
X37607Y131542D02*
Y135292D01*
X35420*
X34794Y134980*
X34482Y134354*
X34794Y133730*
X35420Y133417*
X37607*
X35420D02*
X34482Y131542D01*
X32294Y131854D02*
X31670Y131542D01*
X31044*
X30420Y131854*
X30107Y132480*
X30420Y133104*
X31044Y133417*
X31670*
X31044D02*
X30420Y133730D01*
X30107Y134354*
X30420Y134980*
X31044Y135292*
X31670*
X32294Y134980*
X37607Y328392D02*
Y332142D01*
X35420*
X34794Y331830*
X34482Y331205*
X34794Y330580*
X35420Y330267*
X37607*
X35420D02*
X34482Y328392D01*
X32294Y328705D02*
X31670Y328392D01*
X31044*
X30420Y328705*
X30107Y329330*
X30420Y329955*
X31044Y330267*
X31670*
X31044D02*
X30420Y330580D01*
X30107Y331205*
X30420Y331830*
X31044Y332142*
X31670*
X32294Y331830*
X45891Y198829D02*
Y178719D01*
X37198*
Y198829*
X45891*
Y395679D02*
Y375569D01*
X37198*
Y395679*
X45891*
X48028Y187863D02*
X47715Y187551D01*
X47403Y186926*
Y185988*
X47715Y185363*
X48028Y185051*
X48653Y184738*
X49903*
X50528Y185051*
X50841Y185363*
X51153Y185988*
Y186926*
X50841Y187551*
X50528Y187863*
X47403Y192238D02*
Y189738D01*
X49591Y191926*
X50215Y192238*
X50841Y191926*
X51153Y191301*
Y190363*
X50841Y189738*
X48028Y384714D02*
X47715Y384401D01*
X47403Y383776*
Y382839*
X47715Y382214*
X48028Y381901*
X48653Y381589*
X49903*
X50528Y381901*
X50841Y382214*
X51153Y382839*
Y383776*
X50841Y384401*
X50528Y384714*
X47403Y389089D02*
Y386589D01*
X49591Y388776*
X50215Y389089*
X50841Y388776*
X51153Y388151*
Y387214*
X50841Y386589*
X56308Y110872D02*
Y114622D01*
X54120*
X53495Y114310*
X53183Y113685*
X53495Y113060*
X54120Y112748*
X56308*
X54120D02*
X53183Y110872D01*
X50683D02*
X49433D01*
X50058D02*
Y114622D01*
X50683Y113998*
X56308Y307723D02*
Y311473D01*
X54120*
X53495Y311161*
X53183Y310535*
X53495Y309911*
X54120Y309598*
X56308*
X54120D02*
X53183Y307723D01*
X50683D02*
X49433D01*
X50058D02*
Y311473D01*
X50683Y310848*
X57292Y132526D02*
Y136276D01*
X55105*
X54480Y135964*
X54167Y135339*
X54480Y134714*
X55105Y134401*
X57292*
X55105D02*
X54167Y132526D01*
X52292Y132839D02*
X51667Y132526D01*
X50730*
X50105Y132839*
X49792Y133464*
Y133776*
X50105Y134401*
X50730Y134714*
X52292*
Y136276*
X49792*
X57292Y329376D02*
Y333126D01*
X55105*
X54480Y332814*
X54167Y332189*
X54480Y331564*
X55105Y331252*
X57292*
X55105D02*
X54167Y329376D01*
X52292Y329689D02*
X51667Y329376D01*
X50730*
X50105Y329689*
X49792Y330314*
Y330626*
X50105Y331252*
X50730Y331564*
X52292*
Y333126*
X49792*
X60162Y116612D02*
X47926D01*
Y122943*
X60162*
Y116612*
Y124486D02*
X47926D01*
Y130817*
X60162*
Y124486*
Y313463D02*
X47926D01*
Y319793*
X60162*
Y313463*
Y321337D02*
X47926D01*
Y327667*
X60162*
Y321337*
X62296Y122943D02*
X74532D01*
Y116612*
X62296*
Y122943*
Y319793D02*
X74532D01*
Y313463*
X62296*
Y319793*
X61057Y162679D02*
X61369Y162366D01*
X61994Y162054*
X62932*
X63557Y162366*
X63869Y162679*
X64182Y163304*
Y164554*
X63869Y165179*
X63557Y165491*
X62932Y165804*
X61994*
X61369Y165491*
X61057Y165179*
X58557Y162054D02*
X57307D01*
X57932D02*
Y165804D01*
X58557Y165179*
X61057Y359529D02*
X61369Y359217D01*
X61994Y358904*
X62932*
X63557Y359217*
X63869Y359529*
X64182Y360154*
Y361404*
X63869Y362029*
X63557Y362342*
X62932Y362654*
X61994*
X61369Y362342*
X61057Y362029*
X58557Y358904D02*
X57307D01*
X57932D02*
Y362654D01*
X58557Y362029*
X65576Y192923D02*
Y172813D01*
X56883*
Y192923*
X65576*
Y389774D02*
Y369663D01*
X56883*
Y389774*
X65576*
X72056Y124652D02*
Y128402D01*
X69869*
X69243Y128090*
X68931Y127465*
X69243Y126840*
X69869Y126527*
X72056*
X69869D02*
X68931Y124652D01*
X64556D02*
X67056D01*
X64869Y126840*
X64556Y127465*
X64869Y128090*
X65493Y128402*
X66431*
X67056Y128090*
X72056Y321502D02*
Y325252D01*
X69869*
X69243Y324940*
X68931Y324315*
X69243Y323690*
X69869Y323378*
X72056*
X69869D02*
X68931Y321502D01*
X64556D02*
X67056D01*
X64869Y323690*
X64556Y324315*
X64869Y324940*
X65493Y325252*
X66431*
X67056Y324940*
X77961Y168756D02*
Y165944D01*
X77649Y165319*
X77024Y165006*
X75774*
X75149Y165319*
X74836Y165944*
Y168756*
X70461Y165006D02*
X72961D01*
X70774Y167194*
X70461Y167819*
X70774Y168444*
X71399Y168756*
X72336*
X72961Y168444*
X77961Y365607D02*
Y362794D01*
X77649Y362169*
X77024Y361857*
X75774*
X75149Y362169*
X74836Y362794*
Y365607*
X70461Y361857D02*
X72961D01*
X70774Y364044*
X70461Y364669*
X70774Y365294*
X71399Y365607*
X72336*
X72961Y365294*
X81111Y196598D02*
X69300D01*
Y179669*
X81111*
Y186657*
X79635*
Y189610*
X81111*
Y196598*
Y393449D02*
X69300D01*
Y376520*
X81111*
Y383508*
X79635*
Y386461*
X81111*
Y393449*
X81686Y181868D02*
Y194104D01*
X88017*
Y181868*
X81686*
Y378719D02*
Y390955D01*
X88017*
Y378719*
X81686*
X93476Y184738D02*
X89726D01*
Y187863*
Y190363D02*
Y191613D01*
Y190988D02*
X93476D01*
X92851Y190363*
X93476Y381589D02*
X89726D01*
Y384714*
Y387214D02*
Y388464D01*
Y387839D02*
X93476D01*
X92851Y387214*
X111940Y174364D02*
Y176864D01*
Y191864D02*
Y194364D01*
X110690Y193114D02*
X113190D01*
X111940Y371215D02*
Y373715D01*
Y388715D02*
Y391215D01*
X110690Y389965D02*
X113190D01*
X115347Y170943D02*
Y196565D01*
X129158*
Y170943*
X115347*
Y367793D02*
Y393415D01*
X129158*
Y367793*
X115347*
X120072Y115923D02*
Y128159D01*
X126402*
Y115923*
X120072*
Y312774D02*
Y325010D01*
X126402*
Y312774*
X120072*
X126190Y131542D02*
Y135292D01*
X124002*
X123377Y134980*
X123065Y134354*
X123377Y133730*
X124002Y133417*
X126190*
X124002D02*
X123065Y131542D01*
X119627D02*
Y135292D01*
X121190Y132792*
X118690*
X126190Y328392D02*
Y332142D01*
X124002*
X123377Y331830*
X123065Y331205*
X123377Y330580*
X124002Y330267*
X126190*
X124002D02*
X123065Y328392D01*
X119627D02*
Y332142D01*
X121190Y329642*
X118690*
X127946Y115923D02*
Y128159D01*
X134276*
Y115923*
X127946*
Y312774D02*
Y325010D01*
X134276*
Y312774*
X127946*
X131955Y178067D02*
X131643Y178693D01*
X131018Y179005*
X130393Y178693*
X130080Y178067*
Y175880*
X133830*
Y178067*
X133518Y178693*
X132893Y179005*
X132268Y178693*
X131955Y178067*
Y175880*
X130080Y180880D02*
X133830Y182443D01*
X130080Y184005*
X131643Y181505D02*
Y183380D01*
X130080Y187443D02*
X133830D01*
Y185880D02*
Y189005D01*
X130080Y191505D02*
Y192755D01*
Y192130D02*
X133830D01*
X133205Y191505*
X131955Y374918D02*
X131643Y375543D01*
X131018Y375856*
X130393Y375543*
X130080Y374918*
Y372730*
X133830*
Y374918*
X133518Y375543*
X132893Y375856*
X132268Y375543*
X131955Y374918*
Y372730*
X130080Y377730D02*
X133830Y379293D01*
X130080Y380856*
X131643Y378356D02*
Y380230D01*
X130080Y384293D02*
X133830D01*
Y382730D02*
Y385856D01*
X130080Y388356D02*
Y389606D01*
Y388980D02*
X133830D01*
X133205Y388356*
X136032Y131542D02*
Y135292D01*
X133845*
X133220Y134980*
X132907Y134354*
X133220Y133730*
X133845Y133417*
X136032*
X133845D02*
X132907Y131542D01*
X130720Y131854D02*
X130095Y131542D01*
X129470*
X128845Y131854*
X128532Y132480*
X128845Y133104*
X129470Y133417*
X130095*
X129470D02*
X128845Y133730D01*
X128532Y134354*
X128845Y134980*
X129470Y135292*
X130095*
X130720Y134980*
X136032Y328392D02*
Y332142D01*
X133845*
X133220Y331830*
X132907Y331205*
X133220Y330580*
X133845Y330267*
X136032*
X133845D02*
X132907Y328392D01*
X130720Y328705D02*
X130095Y328392D01*
X129470*
X128845Y328705*
X128532Y329330*
X128845Y329955*
X129470Y330267*
X130095*
X129470D02*
X128845Y330580D01*
X128532Y331205*
X128845Y331830*
X129470Y332142*
X130095*
X130720Y331830*
X144316Y198829D02*
Y178719D01*
X135623*
Y198829*
X144316*
Y395679D02*
Y375569D01*
X135623*
Y395679*
X144316*
X146453Y187863D02*
X146141Y187551D01*
X145828Y186926*
Y185988*
X146141Y185363*
X146453Y185051*
X147078Y184738*
X148328*
X148953Y185051*
X149266Y185363*
X149578Y185988*
Y186926*
X149266Y187551*
X148953Y187863*
X145828Y192238D02*
Y189738D01*
X148016Y191926*
X148641Y192238*
X149266Y191926*
X149578Y191301*
Y190363*
X149266Y189738*
X146453Y384714D02*
X146141Y384401D01*
X145828Y383776*
Y382839*
X146141Y382214*
X146453Y381901*
X147078Y381589*
X148328*
X148953Y381901*
X149266Y382214*
X149578Y382839*
Y383776*
X149266Y384401*
X148953Y384714*
X145828Y389089D02*
Y386589D01*
X148016Y388776*
X148641Y389089*
X149266Y388776*
X149578Y388151*
Y387214*
X149266Y386589*
X154733Y110872D02*
Y114622D01*
X152546*
X151920Y114310*
X151608Y113685*
X151920Y113060*
X152546Y112748*
X154733*
X152546D02*
X151608Y110872D01*
X149108D02*
X147858D01*
X148483D02*
Y114622D01*
X149108Y113998*
X154733Y307723D02*
Y311473D01*
X152546*
X151920Y311161*
X151608Y310535*
X151920Y309911*
X152546Y309598*
X154733*
X152546D02*
X151608Y307723D01*
X149108D02*
X147858D01*
X148483D02*
Y311473D01*
X149108Y310848*
X155717Y132526D02*
Y136276D01*
X153530*
X152905Y135964*
X152592Y135339*
X152905Y134714*
X153530Y134401*
X155717*
X153530D02*
X152592Y132526D01*
X150717Y132839D02*
X150092Y132526D01*
X149155*
X148530Y132839*
X148217Y133464*
Y133776*
X148530Y134401*
X149155Y134714*
X150717*
Y136276*
X148217*
X155717Y329376D02*
Y333126D01*
X153530*
X152905Y332814*
X152592Y332189*
X152905Y331564*
X153530Y331252*
X155717*
X153530D02*
X152592Y329376D01*
X150717Y329689D02*
X150092Y329376D01*
X149155*
X148530Y329689*
X148217Y330314*
Y330626*
X148530Y331252*
X149155Y331564*
X150717*
Y333126*
X148217*
X158587Y116612D02*
X146351D01*
Y122943*
X158587*
Y116612*
Y124486D02*
X146351D01*
Y130817*
X158587*
Y124486*
Y313463D02*
X146351D01*
Y319793*
X158587*
Y313463*
Y321337D02*
X146351D01*
Y327667*
X158587*
Y321337*
X160721Y122943D02*
X172957D01*
Y116612*
X160721*
Y122943*
Y319793D02*
X172957D01*
Y313463*
X160721*
Y319793*
X159482Y162679D02*
X159794Y162366D01*
X160420Y162054*
X161357*
X161982Y162366*
X162294Y162679*
X162607Y163304*
Y164554*
X162294Y165179*
X161982Y165491*
X161357Y165804*
X160420*
X159794Y165491*
X159482Y165179*
X156982Y162054D02*
X155732D01*
X156357D02*
Y165804D01*
X156982Y165179*
X159482Y359529D02*
X159794Y359217D01*
X160420Y358904*
X161357*
X161982Y359217*
X162294Y359529*
X162607Y360154*
Y361404*
X162294Y362029*
X161982Y362342*
X161357Y362654*
X160420*
X159794Y362342*
X159482Y362029*
X156982Y358904D02*
X155732D01*
X156357D02*
Y362654D01*
X156982Y362029*
X164001Y192923D02*
Y172813D01*
X155308*
Y192923*
X164001*
Y389774D02*
Y369663D01*
X155308*
Y389774*
X164001*
X170481Y124652D02*
Y128402D01*
X168294*
X167669Y128090*
X167356Y127465*
X167669Y126840*
X168294Y126527*
X170481*
X168294D02*
X167356Y124652D01*
X162981D02*
X165481D01*
X163294Y126840*
X162981Y127465*
X163294Y128090*
X163919Y128402*
X164856*
X165481Y128090*
X170481Y321502D02*
Y325252D01*
X168294*
X167669Y324940*
X167356Y324315*
X167669Y323690*
X168294Y323378*
X170481*
X168294D02*
X167356Y321502D01*
X162981D02*
X165481D01*
X163294Y323690*
X162981Y324315*
X163294Y324940*
X163919Y325252*
X164856*
X165481Y324940*
X176387Y168756D02*
Y165944D01*
X176074Y165319*
X175449Y165006*
X174199*
X173574Y165319*
X173261Y165944*
Y168756*
X168887Y165006D02*
X171387D01*
X169199Y167194*
X168887Y167819*
X169199Y168444*
X169824Y168756*
X170761*
X171387Y168444*
X176387Y365607D02*
Y362794D01*
X176074Y362169*
X175449Y361857*
X174199*
X173574Y362169*
X173261Y362794*
Y365607*
X168887Y361857D02*
X171387D01*
X169199Y364044*
X168887Y364669*
X169199Y365294*
X169824Y365607*
X170761*
X171387Y365294*
X179536Y196598D02*
X167725D01*
Y179669*
X179536*
Y186657*
X178060*
Y189610*
X179536*
Y196598*
Y393449D02*
X167725D01*
Y376520*
X179536*
Y383508*
X178060*
Y386461*
X179536*
Y393449*
X180111Y181868D02*
Y194104D01*
X186442*
Y181868*
X180111*
Y378719D02*
Y390955D01*
X186442*
Y378719*
X180111*
X191901Y184738D02*
X188151D01*
Y187863*
Y190363D02*
Y191613D01*
Y190988D02*
X191901D01*
X191276Y190363*
X191901Y381589D02*
X188151D01*
Y384714*
Y387214D02*
Y388464D01*
Y387839D02*
X191901D01*
X191276Y387214*
X210365Y174364D02*
Y176864D01*
Y191864D02*
Y194364D01*
X209115Y193114D02*
X211615D01*
X210365Y371215D02*
Y373715D01*
Y388715D02*
Y391215D01*
X209115Y389965D02*
X211615D01*
X213772Y170943D02*
Y196565D01*
X227583*
Y170943*
X213772*
Y367793D02*
Y393415D01*
X227583*
Y367793*
X213772*
X218497Y115923D02*
Y128159D01*
X224828*
Y115923*
X218497*
Y312774D02*
Y325010D01*
X224828*
Y312774*
X218497*
X224615Y131542D02*
Y135292D01*
X222428*
X221802Y134980*
X221490Y134354*
X221802Y133730*
X222428Y133417*
X224615*
X222428D02*
X221490Y131542D01*
X218052D02*
Y135292D01*
X219615Y132792*
X217115*
X224615Y328392D02*
Y332142D01*
X222428*
X221802Y331830*
X221490Y331205*
X221802Y330580*
X222428Y330267*
X224615*
X222428D02*
X221490Y328392D01*
X218052D02*
Y332142D01*
X219615Y329642*
X217115*
X226371Y115923D02*
Y128159D01*
X232702*
Y115923*
X226371*
Y312774D02*
Y325010D01*
X232702*
Y312774*
X226371*
X230380Y178067D02*
X230068Y178693D01*
X229443Y179005*
X228818Y178693*
X228505Y178067*
Y175880*
X232255*
Y178067*
X231943Y178693*
X231318Y179005*
X230693Y178693*
X230380Y178067*
Y175880*
X228505Y180880D02*
X232255Y182443D01*
X228505Y184005*
X230068Y181505D02*
Y183380D01*
X228505Y187443D02*
X232255D01*
Y185880D02*
Y189005D01*
X228505Y191505D02*
Y192755D01*
Y192130D02*
X232255D01*
X231630Y191505*
X230380Y374918D02*
X230068Y375543D01*
X229443Y375856*
X228818Y375543*
X228505Y374918*
Y372730*
X232255*
Y374918*
X231943Y375543*
X231318Y375856*
X230693Y375543*
X230380Y374918*
Y372730*
X228505Y377730D02*
X232255Y379293D01*
X228505Y380856*
X230068Y378356D02*
Y380230D01*
X228505Y384293D02*
X232255D01*
Y382730D02*
Y385856D01*
X228505Y388356D02*
Y389606D01*
Y388980D02*
X232255D01*
X231630Y388356*
X234457Y131542D02*
Y135292D01*
X232270*
X231645Y134980*
X231332Y134354*
X231645Y133730*
X232270Y133417*
X234457*
X232270D02*
X231332Y131542D01*
X229145Y131854D02*
X228520Y131542D01*
X227895*
X227270Y131854*
X226957Y132480*
X227270Y133104*
X227895Y133417*
X228520*
X227895D02*
X227270Y133730D01*
X226957Y134354*
X227270Y134980*
X227895Y135292*
X228520*
X229145Y134980*
X234457Y328392D02*
Y332142D01*
X232270*
X231645Y331830*
X231332Y331205*
X231645Y330580*
X232270Y330267*
X234457*
X232270D02*
X231332Y328392D01*
X229145Y328705D02*
X228520Y328392D01*
X227895*
X227270Y328705*
X226957Y329330*
X227270Y329955*
X227895Y330267*
X228520*
X227895D02*
X227270Y330580D01*
X226957Y331205*
X227270Y331830*
X227895Y332142*
X228520*
X229145Y331830*
X242741Y198829D02*
Y178719D01*
X234048*
Y198829*
X242741*
Y395679D02*
Y375569D01*
X234048*
Y395679*
X242741*
X244878Y187863D02*
X244566Y187551D01*
X244253Y186926*
Y185988*
X244566Y185363*
X244878Y185051*
X245503Y184738*
X246753*
X247378Y185051*
X247691Y185363*
X248003Y185988*
Y186926*
X247691Y187551*
X247378Y187863*
X244253Y192238D02*
Y189738D01*
X246441Y191926*
X247066Y192238*
X247691Y191926*
X248003Y191301*
Y190363*
X247691Y189738*
X244878Y384714D02*
X244566Y384401D01*
X244253Y383776*
Y382839*
X244566Y382214*
X244878Y381901*
X245503Y381589*
X246753*
X247378Y381901*
X247691Y382214*
X248003Y382839*
Y383776*
X247691Y384401*
X247378Y384714*
X244253Y389089D02*
Y386589D01*
X246441Y388776*
X247066Y389089*
X247691Y388776*
X248003Y388151*
Y387214*
X247691Y386589*
X253158Y110872D02*
Y114622D01*
X250971*
X250346Y114310*
X250033Y113685*
X250346Y113060*
X250971Y112748*
X253158*
X250971D02*
X250033Y110872D01*
X247533D02*
X246283D01*
X246908D02*
Y114622D01*
X247533Y113998*
X253158Y307723D02*
Y311473D01*
X250971*
X250346Y311161*
X250033Y310535*
X250346Y309911*
X250971Y309598*
X253158*
X250971D02*
X250033Y307723D01*
X247533D02*
X246283D01*
X246908D02*
Y311473D01*
X247533Y310848*
X254143Y132526D02*
Y136276D01*
X251955*
X251330Y135964*
X251017Y135339*
X251330Y134714*
X251955Y134401*
X254143*
X251955D02*
X251017Y132526D01*
X249143Y132839D02*
X248517Y132526D01*
X247580*
X246955Y132839*
X246643Y133464*
Y133776*
X246955Y134401*
X247580Y134714*
X249143*
Y136276*
X246643*
X254143Y329376D02*
Y333126D01*
X251955*
X251330Y332814*
X251017Y332189*
X251330Y331564*
X251955Y331252*
X254143*
X251955D02*
X251017Y329376D01*
X249143Y329689D02*
X248517Y329376D01*
X247580*
X246955Y329689*
X246643Y330314*
Y330626*
X246955Y331252*
X247580Y331564*
X249143*
Y333126*
X246643*
X257013Y116612D02*
X244776D01*
Y122943*
X257013*
Y116612*
Y124486D02*
X244776D01*
Y130817*
X257013*
Y124486*
Y313463D02*
X244776D01*
Y319793*
X257013*
Y313463*
Y321337D02*
X244776D01*
Y327667*
X257013*
Y321337*
X259146Y122943D02*
X271383D01*
Y116612*
X259146*
Y122943*
Y319793D02*
X271383D01*
Y313463*
X259146*
Y319793*
X257907Y162679D02*
X258220Y162366D01*
X258845Y162054*
X259782*
X260407Y162366*
X260720Y162679*
X261032Y163304*
Y164554*
X260720Y165179*
X260407Y165491*
X259782Y165804*
X258845*
X258220Y165491*
X257907Y165179*
X255407Y162054D02*
X254157D01*
X254782D02*
Y165804D01*
X255407Y165179*
X257907Y359529D02*
X258220Y359217D01*
X258845Y358904*
X259782*
X260407Y359217*
X260720Y359529*
X261032Y360154*
Y361404*
X260720Y362029*
X260407Y362342*
X259782Y362654*
X258845*
X258220Y362342*
X257907Y362029*
X255407Y358904D02*
X254157D01*
X254782D02*
Y362654D01*
X255407Y362029*
X262426Y192923D02*
Y172813D01*
X253733*
Y192923*
X262426*
Y389774D02*
Y369663D01*
X253733*
Y389774*
X262426*
X268906Y124652D02*
Y128402D01*
X266719*
X266094Y128090*
X265781Y127465*
X266094Y126840*
X266719Y126527*
X268906*
X266719D02*
X265781Y124652D01*
X261406D02*
X263906D01*
X261719Y126840*
X261406Y127465*
X261719Y128090*
X262344Y128402*
X263281*
X263906Y128090*
X268906Y321502D02*
Y325252D01*
X266719*
X266094Y324940*
X265781Y324315*
X266094Y323690*
X266719Y323378*
X268906*
X266719D02*
X265781Y321502D01*
X261406D02*
X263906D01*
X261719Y323690*
X261406Y324315*
X261719Y324940*
X262344Y325252*
X263281*
X263906Y324940*
X274812Y168756D02*
Y165944D01*
X274499Y165319*
X273874Y165006*
X272624*
X271999Y165319*
X271687Y165944*
Y168756*
X267312Y165006D02*
X269812D01*
X267624Y167194*
X267312Y167819*
X267624Y168444*
X268249Y168756*
X269187*
X269812Y168444*
X274812Y365607D02*
Y362794D01*
X274499Y362169*
X273874Y361857*
X272624*
X271999Y362169*
X271687Y362794*
Y365607*
X267312Y361857D02*
X269812D01*
X267624Y364044*
X267312Y364669*
X267624Y365294*
X268249Y365607*
X269187*
X269812Y365294*
X277961Y196598D02*
X266150D01*
Y179669*
X277961*
Y186657*
X276485*
Y189610*
X277961*
Y196598*
Y393449D02*
X266150D01*
Y376520*
X277961*
Y383508*
X276485*
Y386461*
X277961*
Y393449*
X278536Y181868D02*
Y194104D01*
X284867*
Y181868*
X278536*
Y378719D02*
Y390955D01*
X284867*
Y378719*
X278536*
X290326Y184738D02*
X286576D01*
Y187863*
Y190363D02*
Y191613D01*
Y190988D02*
X290326D01*
X289701Y190363*
X290326Y381589D02*
X286576D01*
Y384714*
Y387214D02*
Y388464D01*
Y387839D02*
X290326D01*
X289701Y387214*
X308791Y174364D02*
Y176864D01*
Y191864D02*
Y194364D01*
X307541Y193114D02*
X310041D01*
X308791Y371215D02*
Y373715D01*
Y388715D02*
Y391215D01*
X307541Y389965D02*
X310041D01*
X312198Y170943D02*
Y196565D01*
X326009*
Y170943*
X312198*
Y367793D02*
Y393415D01*
X326009*
Y367793*
X312198*
X316922Y115923D02*
Y128159D01*
X323253*
Y115923*
X316922*
Y312774D02*
Y325010D01*
X323253*
Y312774*
X316922*
X323040Y131542D02*
Y135292D01*
X320853*
X320228Y134980*
X319915Y134354*
X320228Y133730*
X320853Y133417*
X323040*
X320853D02*
X319915Y131542D01*
X316478D02*
Y135292D01*
X318040Y132792*
X315540*
X323040Y328392D02*
Y332142D01*
X320853*
X320228Y331830*
X319915Y331205*
X320228Y330580*
X320853Y330267*
X323040*
X320853D02*
X319915Y328392D01*
X316478D02*
Y332142D01*
X318040Y329642*
X315540*
X324796Y115923D02*
Y128159D01*
X331127*
Y115923*
X324796*
Y312774D02*
Y325010D01*
X331127*
Y312774*
X324796*
X328806Y178067D02*
X328493Y178693D01*
X327868Y179005*
X327243Y178693*
X326930Y178067*
Y175880*
X330680*
Y178067*
X330368Y178693*
X329743Y179005*
X329118Y178693*
X328806Y178067*
Y175880*
X326930Y180880D02*
X330680Y182443D01*
X326930Y184005*
X328493Y181505D02*
Y183380D01*
X326930Y187443D02*
X330680D01*
Y185880D02*
Y189005D01*
X326930Y191505D02*
Y192755D01*
Y192130D02*
X330680D01*
X330056Y191505*
X328806Y374918D02*
X328493Y375543D01*
X327868Y375856*
X327243Y375543*
X326930Y374918*
Y372730*
X330680*
Y374918*
X330368Y375543*
X329743Y375856*
X329118Y375543*
X328806Y374918*
Y372730*
X326930Y377730D02*
X330680Y379293D01*
X326930Y380856*
X328493Y378356D02*
Y380230D01*
X326930Y384293D02*
X330680D01*
Y382730D02*
Y385856D01*
X326930Y388356D02*
Y389606D01*
Y388980D02*
X330680D01*
X330056Y388356*
X332883Y131542D02*
Y135292D01*
X330695*
X330070Y134980*
X329757Y134354*
X330070Y133730*
X330695Y133417*
X332883*
X330695D02*
X329757Y131542D01*
X327570Y131854D02*
X326945Y131542D01*
X326320*
X325695Y131854*
X325383Y132480*
X325695Y133104*
X326320Y133417*
X326945*
X326320D02*
X325695Y133730D01*
X325383Y134354*
X325695Y134980*
X326320Y135292*
X326945*
X327570Y134980*
X332883Y328392D02*
Y332142D01*
X330695*
X330070Y331830*
X329757Y331205*
X330070Y330580*
X330695Y330267*
X332883*
X330695D02*
X329757Y328392D01*
X327570Y328705D02*
X326945Y328392D01*
X326320*
X325695Y328705*
X325383Y329330*
X325695Y329955*
X326320Y330267*
X326945*
X326320D02*
X325695Y330580D01*
X325383Y331205*
X325695Y331830*
X326320Y332142*
X326945*
X327570Y331830*
X341166Y198829D02*
Y178719D01*
X332473*
Y198829*
X341166*
Y395679D02*
Y375569D01*
X332473*
Y395679*
X341166*
X343304Y187863D02*
X342991Y187551D01*
X342678Y186926*
Y185988*
X342991Y185363*
X343304Y185051*
X343928Y184738*
X345178*
X345804Y185051*
X346116Y185363*
X346428Y185988*
Y186926*
X346116Y187551*
X345804Y187863*
X342678Y192238D02*
Y189738D01*
X344866Y191926*
X345491Y192238*
X346116Y191926*
X346428Y191301*
Y190363*
X346116Y189738*
X343304Y384714D02*
X342991Y384401D01*
X342678Y383776*
Y382839*
X342991Y382214*
X343304Y381901*
X343928Y381589*
X345178*
X345804Y381901*
X346116Y382214*
X346428Y382839*
Y383776*
X346116Y384401*
X345804Y384714*
X342678Y389089D02*
Y386589D01*
X344866Y388776*
X345491Y389089*
X346116Y388776*
X346428Y388151*
Y387214*
X346116Y386589*
X351583Y110872D02*
Y114622D01*
X349396*
X348771Y114310*
X348458Y113685*
X348771Y113060*
X349396Y112748*
X351583*
X349396D02*
X348458Y110872D01*
X345958D02*
X344708D01*
X345333D02*
Y114622D01*
X345958Y113998*
X351583Y307723D02*
Y311473D01*
X349396*
X348771Y311161*
X348458Y310535*
X348771Y309911*
X349396Y309598*
X351583*
X349396D02*
X348458Y307723D01*
X345958D02*
X344708D01*
X345333D02*
Y311473D01*
X345958Y310848*
X352568Y132526D02*
Y136276D01*
X350380*
X349755Y135964*
X349443Y135339*
X349755Y134714*
X350380Y134401*
X352568*
X350380D02*
X349443Y132526D01*
X347568Y132839D02*
X346943Y132526D01*
X346005*
X345380Y132839*
X345068Y133464*
Y133776*
X345380Y134401*
X346005Y134714*
X347568*
Y136276*
X345068*
X352568Y329376D02*
Y333126D01*
X350380*
X349755Y332814*
X349443Y332189*
X349755Y331564*
X350380Y331252*
X352568*
X350380D02*
X349443Y329376D01*
X347568Y329689D02*
X346943Y329376D01*
X346005*
X345380Y329689*
X345068Y330314*
Y330626*
X345380Y331252*
X346005Y331564*
X347568*
Y333126*
X345068*
X355438Y116612D02*
X343202D01*
Y122943*
X355438*
Y116612*
Y124486D02*
X343202D01*
Y130817*
X355438*
Y124486*
Y313463D02*
X343202D01*
Y319793*
X355438*
Y313463*
Y321337D02*
X343202D01*
Y327667*
X355438*
Y321337*
X357572Y122943D02*
X369808D01*
Y116612*
X357572*
Y122943*
Y319793D02*
X369808D01*
Y313463*
X357572*
Y319793*
X356332Y162679D02*
X356645Y162366D01*
X357270Y162054*
X358207*
X358832Y162366*
X359145Y162679*
X359457Y163304*
Y164554*
X359145Y165179*
X358832Y165491*
X358207Y165804*
X357270*
X356645Y165491*
X356332Y165179*
X353832Y162054D02*
X352582D01*
X353207D02*
Y165804D01*
X353832Y165179*
X356332Y359529D02*
X356645Y359217D01*
X357270Y358904*
X358207*
X358832Y359217*
X359145Y359529*
X359457Y360154*
Y361404*
X359145Y362029*
X358832Y362342*
X358207Y362654*
X357270*
X356645Y362342*
X356332Y362029*
X353832Y358904D02*
X352582D01*
X353207D02*
Y362654D01*
X353832Y362029*
X360851Y192923D02*
Y172813D01*
X352158*
Y192923*
X360851*
Y389774D02*
Y369663D01*
X352158*
Y389774*
X360851*
X367331Y124652D02*
Y128402D01*
X365144*
X364519Y128090*
X364206Y127465*
X364519Y126840*
X365144Y126527*
X367331*
X365144D02*
X364206Y124652D01*
X359831D02*
X362331D01*
X360144Y126840*
X359831Y127465*
X360144Y128090*
X360769Y128402*
X361706*
X362331Y128090*
X367331Y321502D02*
Y325252D01*
X365144*
X364519Y324940*
X364206Y324315*
X364519Y323690*
X365144Y323378*
X367331*
X365144D02*
X364206Y321502D01*
X359831D02*
X362331D01*
X360144Y323690*
X359831Y324315*
X360144Y324940*
X360769Y325252*
X361706*
X362331Y324940*
X373237Y168756D02*
Y165944D01*
X372924Y165319*
X372300Y165006*
X371050*
X370424Y165319*
X370112Y165944*
Y168756*
X365737Y165006D02*
X368237D01*
X366050Y167194*
X365737Y167819*
X366050Y168444*
X366674Y168756*
X367612*
X368237Y168444*
X373237Y365607D02*
Y362794D01*
X372924Y362169*
X372300Y361857*
X371050*
X370424Y362169*
X370112Y362794*
Y365607*
X365737Y361857D02*
X368237D01*
X366050Y364044*
X365737Y364669*
X366050Y365294*
X366674Y365607*
X367612*
X368237Y365294*
X376387Y196598D02*
X364576D01*
Y179669*
X376387*
Y186657*
X374910*
Y189610*
X376387*
Y196598*
Y393449D02*
X364576D01*
Y376520*
X376387*
Y383508*
X374910*
Y386461*
X376387*
Y393449*
X376961Y181868D02*
Y194104D01*
X383292*
Y181868*
X376961*
Y378719D02*
Y390955D01*
X383292*
Y378719*
X376961*
X388751Y184738D02*
X385001D01*
Y187863*
Y190363D02*
Y191613D01*
Y190988D02*
X388751D01*
X388126Y190363*
X388751Y381589D02*
X385001D01*
Y384714*
Y387214D02*
Y388464D01*
Y387839D02*
X388751D01*
X388126Y387214*
X0Y0D02*
M02*
