G04 EasyPC Gerber Version 20.0.2 Build 4112 *
%FSLAX35Y35*%
%MOIN*%
%ADD74C,0.00500*%
%ADD11C,0.01000*%
X0Y0D02*
D02*
D11*
X33721Y80167D02*
X33707Y80054D01*
X33667Y79946*
X33601Y79852*
X33515Y79776*
X33414Y79722*
X33302Y79695*
X33188*
X33076Y79722*
X32975Y79776*
X32889Y79852*
X32824Y79946*
X32783Y80053*
X32769Y80167*
X33721D02*
X33707Y80054D01*
X33667Y79946*
X33601Y79852*
X33515Y79776*
X33414Y79722*
X33302Y79695*
X33188*
X33076Y79722*
X32975Y79776*
X32889Y79852*
X32824Y79946*
X32783Y80053*
X32769Y80167*
X32783Y80281*
X32823Y80389*
X32889Y80483*
X32974Y80559*
X33076Y80612*
X33187Y80640*
X33302*
X33413Y80612*
X33515Y80559*
X33601Y80483*
X33666Y80389*
X33707Y80281*
X33721Y80167*
Y277018D02*
X33707Y276904D01*
X33667Y276796*
X33601Y276702*
X33515Y276626*
X33414Y276573*
X33302Y276545*
X33188*
X33076Y276573*
X32975Y276626*
X32889Y276702*
X32824Y276796*
X32783Y276904*
X32769Y277018*
X33721D02*
X33707Y276904D01*
X33667Y276796*
X33601Y276702*
X33515Y276626*
X33414Y276573*
X33302Y276545*
X33188*
X33076Y276573*
X32975Y276626*
X32889Y276702*
X32824Y276796*
X32783Y276904*
X32769Y277018*
X32783Y277131*
X32823Y277239*
X32889Y277333*
X32974Y277409*
X33076Y277463*
X33187Y277490*
X33302*
X33413Y277463*
X33515Y277409*
X33601Y277333*
X33666Y277239*
X33707Y277132*
X33721Y277018*
X45481Y56785D02*
X69103D01*
Y80407*
X45481*
Y56785*
Y253636D02*
X69103D01*
Y277258*
X45481*
Y253636*
X132146Y80167D02*
X132132Y80054D01*
X132092Y79946*
X132026Y79852*
X131941Y79776*
X131839Y79722*
X131728Y79695*
X131613*
X131502Y79722*
X131400Y79776*
X131314Y79852*
X131249Y79946*
X131208Y80053*
X131194Y80167*
X132146D02*
X132132Y80054D01*
X132092Y79946*
X132026Y79852*
X131941Y79776*
X131839Y79722*
X131728Y79695*
X131613*
X131502Y79722*
X131400Y79776*
X131314Y79852*
X131249Y79946*
X131208Y80053*
X131194Y80167*
X131208Y80281*
X131248Y80389*
X131314Y80483*
X131400Y80559*
X131501Y80612*
X131613Y80640*
X131727*
X131839Y80612*
X131940Y80559*
X132026Y80483*
X132091Y80389*
X132132Y80281*
X132146Y80167*
Y277018D02*
X132132Y276904D01*
X132092Y276796*
X132026Y276702*
X131941Y276626*
X131839Y276573*
X131728Y276545*
X131613*
X131502Y276573*
X131400Y276626*
X131314Y276702*
X131249Y276796*
X131208Y276904*
X131194Y277018*
X132146D02*
X132132Y276904D01*
X132092Y276796*
X132026Y276702*
X131941Y276626*
X131839Y276573*
X131728Y276545*
X131613*
X131502Y276573*
X131400Y276626*
X131314Y276702*
X131249Y276796*
X131208Y276904*
X131194Y277018*
X131208Y277131*
X131248Y277239*
X131314Y277333*
X131400Y277409*
X131501Y277463*
X131613Y277490*
X131727*
X131839Y277463*
X131940Y277409*
X132026Y277333*
X132091Y277239*
X132132Y277132*
X132146Y277018*
X143906Y56785D02*
X167528D01*
Y80407*
X143906*
Y56785*
Y253636D02*
X167528D01*
Y277258*
X143906*
Y253636*
X230571Y80167D02*
X230557Y80054D01*
X230517Y79946*
X230452Y79852*
X230366Y79776*
X230264Y79722*
X230153Y79695*
X230038*
X229927Y79722*
X229825Y79776*
X229739Y79852*
X229674Y79946*
X229633Y80053*
X229619Y80167*
X230571D02*
X230557Y80054D01*
X230517Y79946*
X230452Y79852*
X230366Y79776*
X230264Y79722*
X230153Y79695*
X230038*
X229927Y79722*
X229825Y79776*
X229739Y79852*
X229674Y79946*
X229633Y80053*
X229619Y80167*
X229633Y80281*
X229674Y80389*
X229739Y80483*
X229825Y80559*
X229926Y80612*
X230038Y80640*
X230152*
X230264Y80612*
X230365Y80559*
X230451Y80483*
X230517Y80389*
X230557Y80281*
X230571Y80167*
Y277018D02*
X230557Y276904D01*
X230517Y276796*
X230452Y276702*
X230366Y276626*
X230264Y276573*
X230153Y276545*
X230038*
X229927Y276573*
X229825Y276626*
X229739Y276702*
X229674Y276796*
X229633Y276904*
X229619Y277018*
X230571D02*
X230557Y276904D01*
X230517Y276796*
X230452Y276702*
X230366Y276626*
X230264Y276573*
X230153Y276545*
X230038*
X229927Y276573*
X229825Y276626*
X229739Y276702*
X229674Y276796*
X229633Y276904*
X229619Y277018*
X229633Y277131*
X229674Y277239*
X229739Y277333*
X229825Y277409*
X229926Y277463*
X230038Y277490*
X230152*
X230264Y277463*
X230365Y277409*
X230451Y277333*
X230517Y277239*
X230557Y277132*
X230571Y277018*
X242331Y56785D02*
X265954D01*
Y80407*
X242331*
Y56785*
Y253636D02*
X265954D01*
Y277258*
X242331*
Y253636*
X328996Y80167D02*
X328983Y80054D01*
X328942Y79946*
X328877Y79852*
X328791Y79776*
X328689Y79722*
X328578Y79695*
X328463*
X328352Y79722*
X328250Y79776*
X328165Y79852*
X328099Y79946*
X328059Y80053*
X328044Y80167*
X328996D02*
X328983Y80054D01*
X328942Y79946*
X328877Y79852*
X328791Y79776*
X328689Y79722*
X328578Y79695*
X328463*
X328352Y79722*
X328250Y79776*
X328165Y79852*
X328099Y79946*
X328059Y80053*
X328044Y80167*
X328058Y80281*
X328099Y80389*
X328164Y80483*
X328250Y80559*
X328352Y80612*
X328463Y80640*
X328578*
X328689Y80612*
X328791Y80559*
X328876Y80483*
X328942Y80389*
X328982Y80281*
X328996Y80167*
Y277018D02*
X328983Y276904D01*
X328942Y276796*
X328877Y276702*
X328791Y276626*
X328689Y276573*
X328578Y276545*
X328463*
X328352Y276573*
X328250Y276626*
X328165Y276702*
X328099Y276796*
X328059Y276904*
X328044Y277018*
X328996D02*
X328983Y276904D01*
X328942Y276796*
X328877Y276702*
X328791Y276626*
X328689Y276573*
X328578Y276545*
X328463*
X328352Y276573*
X328250Y276626*
X328165Y276702*
X328099Y276796*
X328059Y276904*
X328044Y277018*
X328058Y277131*
X328099Y277239*
X328164Y277333*
X328250Y277409*
X328352Y277463*
X328463Y277490*
X328578*
X328689Y277463*
X328791Y277409*
X328876Y277333*
X328942Y277239*
X328982Y277132*
X328996Y277018*
X340757Y56785D02*
X364379D01*
Y80407*
X340757*
Y56785*
Y253636D02*
X364379D01*
Y277258*
X340757*
Y253636*
D02*
D74*
X13001Y118746D02*
Y122496D01*
Y120622D02*
X16126D01*
Y118746D02*
Y122496D01*
X18001Y120934D02*
X18626Y121246D01*
X19563*
X20188Y120934*
X20501Y120309*
Y119372*
X20188Y119059*
X19563Y118746*
X18938*
X18313Y119059*
X18001Y119372*
Y119684*
X18313Y119996*
X18938Y120309*
X19563*
X20188Y119996*
X20501Y119684*
Y119372D02*
Y118746D01*
X23313Y118122D02*
X23938Y117809D01*
X24563Y118122*
X24876Y118746*
Y121246*
Y122184D02*
X29251Y118746*
Y121246D01*
Y122184D02*
X33001Y118746*
Y121246D01*
Y120934D02*
X33313Y121246D01*
X33938*
X34251Y120934*
Y119996*
Y120934D02*
X34563Y121246D01*
X35188*
X35501Y120934*
Y118746*
X38001Y120934D02*
X38626Y121246D01*
X39563*
X40188Y120934*
X40501Y120309*
Y119372*
X40188Y119059*
X39563Y118746*
X38938*
X38313Y119059*
X38001Y119372*
Y119684*
X38313Y119996*
X38938Y120309*
X39563*
X40188Y119996*
X40501Y119684*
Y119372D02*
Y118746D01*
X43001D02*
Y121246D01*
Y120309D02*
X43313Y120934D01*
X43938Y121246*
X44563*
X45188Y120934*
X49251Y118746D02*
Y121246D01*
Y122184D02*
X53001Y118746*
Y121246D01*
Y120309D02*
X53313Y120934D01*
X53938Y121246*
X54563*
X55188Y120934*
X55501Y120309*
Y118746*
X58001Y119684D02*
X58313Y119059D01*
X58938Y118746*
X59563*
X60188Y119059*
X60501Y119684*
Y120309*
X60188Y120934*
X59563Y121246*
X58938*
X58313Y120934*
X58001Y120309*
Y119684*
X63001Y118746D02*
Y122496D01*
X66126*
X65501Y120622D02*
X63001D01*
Y118746D02*
X66126D01*
X69251D02*
Y121246D01*
Y122184D02*
X73001Y119059*
X73626Y118746D01*
X74876*
X75501Y119059*
Y119684*
X74876Y119996*
X73626*
X73001Y120309*
Y120934*
X73626Y121246*
X74876*
X75501Y120934*
X80501Y119059D02*
X80188Y118746D01*
X79563*
X78938*
X78313Y119059*
X78001Y119684*
Y120622*
X78313Y120934*
X78938Y121246*
X79563*
X80188Y120934*
X80501Y120622*
Y120309*
X80188Y119996*
X79563Y119684*
X78938*
X78313Y119996*
X78001Y120309*
X84251Y118746D02*
Y121246D01*
Y122184D02*
X88001Y118746*
X91126D01*
X93001Y122496D02*
X94563Y118746D01*
X96126Y122496*
X98626Y118746D02*
X99876D01*
X99251D02*
Y122496D01*
X98626Y121872*
X13001Y315597D02*
Y319347D01*
Y317472D02*
X16126D01*
Y315597D02*
Y319347D01*
X18001Y317785D02*
X18626Y318097D01*
X19563*
X20188Y317785*
X20501Y317159*
Y316222*
X20188Y315909*
X19563Y315597*
X18938*
X18313Y315909*
X18001Y316222*
Y316535*
X18313Y316847*
X18938Y317159*
X19563*
X20188Y316847*
X20501Y316535*
Y316222D02*
Y315597D01*
X23313Y314972D02*
X23938Y314659D01*
X24563Y314972*
X24876Y315597*
Y318097*
Y319035D02*
X29251Y315597*
Y318097D01*
Y319035D02*
X33001Y315597*
Y318097D01*
Y317785D02*
X33313Y318097D01*
X33938*
X34251Y317785*
Y316847*
Y317785D02*
X34563Y318097D01*
X35188*
X35501Y317785*
Y315597*
X38001Y317785D02*
X38626Y318097D01*
X39563*
X40188Y317785*
X40501Y317159*
Y316222*
X40188Y315909*
X39563Y315597*
X38938*
X38313Y315909*
X38001Y316222*
Y316535*
X38313Y316847*
X38938Y317159*
X39563*
X40188Y316847*
X40501Y316535*
Y316222D02*
Y315597D01*
X43001D02*
Y318097D01*
Y317159D02*
X43313Y317785D01*
X43938Y318097*
X44563*
X45188Y317785*
X49251Y315597D02*
Y318097D01*
Y319035D02*
X53001Y315597*
Y318097D01*
Y317159D02*
X53313Y317785D01*
X53938Y318097*
X54563*
X55188Y317785*
X55501Y317159*
Y315597*
X58001Y316535D02*
X58313Y315909D01*
X58938Y315597*
X59563*
X60188Y315909*
X60501Y316535*
Y317159*
X60188Y317785*
X59563Y318097*
X58938*
X58313Y317785*
X58001Y317159*
Y316535*
X63001Y315597D02*
Y319347D01*
X66126*
X65501Y317472D02*
X63001D01*
Y315597D02*
X66126D01*
X69251D02*
Y318097D01*
Y319035D02*
X73001Y315909*
X73626Y315597D01*
X74876*
X75501Y315909*
Y316535*
X74876Y316847*
X73626*
X73001Y317159*
Y317785*
X73626Y318097*
X74876*
X75501Y317785*
X80501Y315909D02*
X80188Y315597D01*
X79563*
X78938*
X78313Y315909*
X78001Y316535*
Y317472*
X78313Y317785*
X78938Y318097*
X79563*
X80188Y317785*
X80501Y317472*
Y317159*
X80188Y316847*
X79563Y316535*
X78938*
X78313Y316847*
X78001Y317159*
X84251Y315597D02*
Y318097D01*
Y319035D02*
X88001Y315597*
X91126D01*
X93001Y319347D02*
X94563Y315597D01*
X96126Y319347*
X98626Y315597D02*
X99876D01*
X99251D02*
Y319347D01*
X98626Y318722*
X37607Y25329D02*
X79418D01*
Y13518*
X40107*
X37607Y16018*
Y25329*
Y222179D02*
X79418D01*
Y210368*
X40107*
X37607Y212868*
Y222179*
X49418Y68503D02*
X49731Y67878D01*
X50356Y67565*
X51606*
X52231Y67878*
X52543Y68503*
X52231Y69128*
X51606Y69441*
X50356*
X49731Y69753*
X49418Y70378*
X49731Y71003*
X50356Y71315*
X51606*
X52231Y71003*
X52543Y70378*
X54418Y71315D02*
X54731Y67565D01*
X55981Y69441*
X57231Y67565*
X57543Y71315*
X60043Y67565D02*
X61293D01*
X60668D02*
Y71315D01*
X60043Y70691*
X49418Y265354D02*
X49731Y264728D01*
X50356Y264416*
X51606*
X52231Y264728*
X52543Y265354*
X52231Y265978*
X51606Y266291*
X50356*
X49731Y266604*
X49418Y267228*
X49731Y267854*
X50356Y268166*
X51606*
X52231Y267854*
X52543Y267228*
X54418Y268166D02*
X54731Y264416D01*
X55981Y266291*
X57231Y264416*
X57543Y268166*
X60043Y264416D02*
X61293D01*
X60668D02*
Y268166D01*
X60043Y267541*
X51387Y197300D02*
Y194487D01*
X51699Y193862*
X52324Y193550*
X53574*
X54199Y193862*
X54512Y194487*
Y197300*
X57012Y193550D02*
X58262D01*
X57637D02*
Y197300D01*
X57012Y196675*
X51387Y394150D02*
Y391338D01*
X51699Y390713*
X52324Y390400*
X53574*
X54199Y390713*
X54512Y391338*
Y394150*
X57012Y390400D02*
X58262D01*
X57637D02*
Y394150D01*
X57012Y393525*
X56480Y10120D02*
X56168Y9807D01*
X55543Y9494*
X54605*
X53980Y9807*
X53668Y10120*
X53355Y10744*
Y11994*
X53668Y12620*
X53980Y12932*
X54605Y13244*
X55543*
X56168Y12932*
X56480Y12620*
X58355Y9494D02*
Y13244D01*
X61480Y9494*
Y13244*
X63980Y9494D02*
X65230D01*
X64605D02*
Y13244D01*
X63980Y12620*
X56480Y206970D02*
X56168Y206657D01*
X55543Y206345*
X54605*
X53980Y206657*
X53668Y206970*
X53355Y207595*
Y208845*
X53668Y209470*
X53980Y209783*
X54605Y210095*
X55543*
X56168Y209783*
X56480Y209470*
X58355Y206345D02*
Y210095D01*
X61480Y206345*
Y210095*
X63980Y206345D02*
X65230D01*
X64605D02*
Y210095D01*
X63980Y209470*
X54339Y36018D02*
X54487Y35722D01*
X54782Y35575*
X55373*
X55668Y35722*
X55816Y36018*
X55668Y36313*
X55373Y36461*
X54782*
X54487Y36608*
X54339Y36904*
X54487Y37199*
X54782Y37346*
X55373*
X55668Y37199*
X55816Y36904*
X56702Y37346D02*
X56849Y35575D01*
X57440Y36461*
X58030Y35575*
X58178Y37346*
X60245Y35575D02*
X59064D01*
X60097Y36608*
X60245Y36904*
X60097Y37199*
X59802Y37346*
X59359*
X59064Y37199*
X54339Y232868D02*
X54487Y232573D01*
X54782Y232425*
X55373*
X55668Y232573*
X55816Y232868*
X55668Y233163*
X55373Y233311*
X54782*
X54487Y233459*
X54339Y233754*
X54487Y234049*
X54782Y234197*
X55373*
X55668Y234049*
X55816Y233754*
X56702Y234197D02*
X56849Y232425D01*
X57440Y233311*
X58030Y232425*
X58178Y234197*
X60245Y232425D02*
X59064D01*
X60097Y233459*
X60245Y233754*
X60097Y234049*
X59802Y234197*
X59359*
X59064Y234049*
X76091Y53636D02*
Y28380D01*
X39083*
Y53636*
X56111*
Y52159*
X59064*
Y53636*
X76091*
Y250486D02*
Y225230D01*
X39083*
Y250486*
X56111*
Y249010*
X59064*
Y250486*
X76091*
X93611Y202238D02*
Y127041D01*
X16839*
Y202238*
X53749*
Y200762*
X56702*
Y202238*
X93611*
Y399089D02*
Y323892D01*
X16839*
Y399089*
X53749*
Y397612*
X56702*
Y399089*
X93611*
X96662Y188582D02*
X96975Y187957D01*
X97600Y187644*
X98850*
X99475Y187957*
X99787Y188582*
X99475Y189207*
X98850Y189519*
X97600*
X96975Y189832*
X96662Y190457*
X96975Y191082*
X97600Y191394*
X98850*
X99475Y191082*
X99787Y190457*
X96662Y385432D02*
X96975Y384807D01*
X97600Y384494*
X98850*
X99475Y384807*
X99787Y385432*
X99475Y386057*
X98850Y386370*
X97600*
X96975Y386682*
X96662Y387307*
X96975Y387932*
X97600Y388244*
X98850*
X99475Y387932*
X99787Y387307*
X111426Y118746D02*
Y122496D01*
Y120622D02*
X114551D01*
Y118746D02*
Y122496D01*
X116426Y120934D02*
X117051Y121246D01*
X117989*
X118613Y120934*
X118926Y120309*
Y119372*
X118613Y119059*
X117989Y118746*
X117363*
X116739Y119059*
X116426Y119372*
Y119684*
X116739Y119996*
X117363Y120309*
X117989*
X118613Y119996*
X118926Y119684*
Y119372D02*
Y118746D01*
X121739Y118122D02*
X122363Y117809D01*
X122989Y118122*
X123301Y118746*
Y121246*
Y122184D02*
X127676Y118746*
Y121246D01*
Y122184D02*
X131426Y118746*
Y121246D01*
Y120934D02*
X131739Y121246D01*
X132363*
X132676Y120934*
Y119996*
Y120934D02*
X132989Y121246D01*
X133613*
X133926Y120934*
Y118746*
X136426Y120934D02*
X137051Y121246D01*
X137989*
X138613Y120934*
X138926Y120309*
Y119372*
X138613Y119059*
X137989Y118746*
X137363*
X136739Y119059*
X136426Y119372*
Y119684*
X136739Y119996*
X137363Y120309*
X137989*
X138613Y119996*
X138926Y119684*
Y119372D02*
Y118746D01*
X141426D02*
Y121246D01*
Y120309D02*
X141739Y120934D01*
X142363Y121246*
X142989*
X143613Y120934*
X147676Y118746D02*
Y121246D01*
Y122184D02*
X151426Y118746*
Y121246D01*
Y120309D02*
X151739Y120934D01*
X152363Y121246*
X152989*
X153613Y120934*
X153926Y120309*
Y118746*
X156426Y119684D02*
X156739Y119059D01*
X157363Y118746*
X157989*
X158613Y119059*
X158926Y119684*
Y120309*
X158613Y120934*
X157989Y121246*
X157363*
X156739Y120934*
X156426Y120309*
Y119684*
X161426Y118746D02*
Y122496D01*
X164551*
X163926Y120622D02*
X161426D01*
Y118746D02*
X164551D01*
X167676D02*
Y121246D01*
Y122184D02*
X171426Y119059*
X172051Y118746D01*
X173301*
X173926Y119059*
Y119684*
X173301Y119996*
X172051*
X171426Y120309*
Y120934*
X172051Y121246*
X173301*
X173926Y120934*
X178926Y119059D02*
X178613Y118746D01*
X177989*
X177363*
X176739Y119059*
X176426Y119684*
Y120622*
X176739Y120934*
X177363Y121246*
X177989*
X178613Y120934*
X178926Y120622*
Y120309*
X178613Y119996*
X177989Y119684*
X177363*
X176739Y119996*
X176426Y120309*
X182676Y118746D02*
Y121246D01*
Y122184D02*
X186426Y118746*
X189551D01*
X191426Y122496D02*
X192989Y118746D01*
X194551Y122496*
X197051Y118746D02*
X198301D01*
X197676D02*
Y122496D01*
X197051Y121872*
X111426Y315597D02*
Y319347D01*
Y317472D02*
X114551D01*
Y315597D02*
Y319347D01*
X116426Y317785D02*
X117051Y318097D01*
X117989*
X118613Y317785*
X118926Y317159*
Y316222*
X118613Y315909*
X117989Y315597*
X117363*
X116739Y315909*
X116426Y316222*
Y316535*
X116739Y316847*
X117363Y317159*
X117989*
X118613Y316847*
X118926Y316535*
Y316222D02*
Y315597D01*
X121739Y314972D02*
X122363Y314659D01*
X122989Y314972*
X123301Y315597*
Y318097*
Y319035D02*
X127676Y315597*
Y318097D01*
Y319035D02*
X131426Y315597*
Y318097D01*
Y317785D02*
X131739Y318097D01*
X132363*
X132676Y317785*
Y316847*
Y317785D02*
X132989Y318097D01*
X133613*
X133926Y317785*
Y315597*
X136426Y317785D02*
X137051Y318097D01*
X137989*
X138613Y317785*
X138926Y317159*
Y316222*
X138613Y315909*
X137989Y315597*
X137363*
X136739Y315909*
X136426Y316222*
Y316535*
X136739Y316847*
X137363Y317159*
X137989*
X138613Y316847*
X138926Y316535*
Y316222D02*
Y315597D01*
X141426D02*
Y318097D01*
Y317159D02*
X141739Y317785D01*
X142363Y318097*
X142989*
X143613Y317785*
X147676Y315597D02*
Y318097D01*
Y319035D02*
X151426Y315597*
Y318097D01*
Y317159D02*
X151739Y317785D01*
X152363Y318097*
X152989*
X153613Y317785*
X153926Y317159*
Y315597*
X156426Y316535D02*
X156739Y315909D01*
X157363Y315597*
X157989*
X158613Y315909*
X158926Y316535*
Y317159*
X158613Y317785*
X157989Y318097*
X157363*
X156739Y317785*
X156426Y317159*
Y316535*
X161426Y315597D02*
Y319347D01*
X164551*
X163926Y317472D02*
X161426D01*
Y315597D02*
X164551D01*
X167676D02*
Y318097D01*
Y319035D02*
X171426Y315909*
X172051Y315597D01*
X173301*
X173926Y315909*
Y316535*
X173301Y316847*
X172051*
X171426Y317159*
Y317785*
X172051Y318097*
X173301*
X173926Y317785*
X178926Y315909D02*
X178613Y315597D01*
X177989*
X177363*
X176739Y315909*
X176426Y316535*
Y317472*
X176739Y317785*
X177363Y318097*
X177989*
X178613Y317785*
X178926Y317472*
Y317159*
X178613Y316847*
X177989Y316535*
X177363*
X176739Y316847*
X176426Y317159*
X182676Y315597D02*
Y318097D01*
Y319035D02*
X186426Y315597*
X189551D01*
X191426Y319347D02*
X192989Y315597D01*
X194551Y319347*
X197051Y315597D02*
X198301D01*
X197676D02*
Y319347D01*
X197051Y318722*
X136032Y25329D02*
X177843D01*
Y13518*
X138532*
X136032Y16018*
Y25329*
Y222179D02*
X177843D01*
Y210368*
X138532*
X136032Y212868*
Y222179*
X147843Y68503D02*
X148156Y67878D01*
X148781Y67565*
X150031*
X150656Y67878*
X150969Y68503*
X150656Y69128*
X150031Y69441*
X148781*
X148156Y69753*
X147843Y70378*
X148156Y71003*
X148781Y71315*
X150031*
X150656Y71003*
X150969Y70378*
X152843Y71315D02*
X153156Y67565D01*
X154406Y69441*
X155656Y67565*
X155969Y71315*
X158469Y67565D02*
X159719D01*
X159093D02*
Y71315D01*
X158469Y70691*
X147843Y265354D02*
X148156Y264728D01*
X148781Y264416*
X150031*
X150656Y264728*
X150969Y265354*
X150656Y265978*
X150031Y266291*
X148781*
X148156Y266604*
X147843Y267228*
X148156Y267854*
X148781Y268166*
X150031*
X150656Y267854*
X150969Y267228*
X152843Y268166D02*
X153156Y264416D01*
X154406Y266291*
X155656Y264416*
X155969Y268166*
X158469Y264416D02*
X159719D01*
X159093D02*
Y268166D01*
X158469Y267541*
X149812Y197300D02*
Y194487D01*
X150124Y193862*
X150749Y193550*
X151999*
X152624Y193862*
X152937Y194487*
Y197300*
X155437Y193550D02*
X156687D01*
X156062D02*
Y197300D01*
X155437Y196675*
X149812Y394150D02*
Y391338D01*
X150124Y390713*
X150749Y390400*
X151999*
X152624Y390713*
X152937Y391338*
Y394150*
X155437Y390400D02*
X156687D01*
X156062D02*
Y394150D01*
X155437Y393525*
X154906Y10120D02*
X154593Y9807D01*
X153968Y9494*
X153030*
X152406Y9807*
X152093Y10120*
X151780Y10744*
Y11994*
X152093Y12620*
X152406Y12932*
X153030Y13244*
X153968*
X154593Y12932*
X154906Y12620*
X156780Y9494D02*
Y13244D01*
X159906Y9494*
Y13244*
X162406Y9494D02*
X163656D01*
X163030D02*
Y13244D01*
X162406Y12620*
X154906Y206970D02*
X154593Y206657D01*
X153968Y206345*
X153030*
X152406Y206657*
X152093Y206970*
X151780Y207595*
Y208845*
X152093Y209470*
X152406Y209783*
X153030Y210095*
X153968*
X154593Y209783*
X154906Y209470*
X156780Y206345D02*
Y210095D01*
X159906Y206345*
Y210095*
X162406Y206345D02*
X163656D01*
X163030D02*
Y210095D01*
X162406Y209470*
X152765Y36018D02*
X152912Y35722D01*
X153207Y35575*
X153798*
X154093Y35722*
X154241Y36018*
X154093Y36313*
X153798Y36461*
X153207*
X152912Y36608*
X152765Y36904*
X152912Y37199*
X153207Y37346*
X153798*
X154093Y37199*
X154241Y36904*
X155127Y37346D02*
X155274Y35575D01*
X155865Y36461*
X156456Y35575*
X156603Y37346*
X158670Y35575D02*
X157489D01*
X158522Y36608*
X158670Y36904*
X158522Y37199*
X158227Y37346*
X157784*
X157489Y37199*
X152765Y232868D02*
X152912Y232573D01*
X153207Y232425*
X153798*
X154093Y232573*
X154241Y232868*
X154093Y233163*
X153798Y233311*
X153207*
X152912Y233459*
X152765Y233754*
X152912Y234049*
X153207Y234197*
X153798*
X154093Y234049*
X154241Y233754*
X155127Y234197D02*
X155274Y232425D01*
X155865Y233311*
X156456Y232425*
X156603Y234197*
X158670Y232425D02*
X157489D01*
X158522Y233459*
X158670Y233754*
X158522Y234049*
X158227Y234197*
X157784*
X157489Y234049*
X174517Y53636D02*
Y28380D01*
X137509*
Y53636*
X154536*
Y52159*
X157489*
Y53636*
X174517*
Y250486D02*
Y225230D01*
X137509*
Y250486*
X154536*
Y249010*
X157489*
Y250486*
X174517*
X192036Y202238D02*
Y127041D01*
X115265*
Y202238*
X152174*
Y200762*
X155127*
Y202238*
X192036*
Y399089D02*
Y323892D01*
X115265*
Y399089*
X152174*
Y397612*
X155127*
Y399089*
X192036*
X195087Y188582D02*
X195400Y187957D01*
X196025Y187644*
X197275*
X197900Y187957*
X198213Y188582*
X197900Y189207*
X197275Y189519*
X196025*
X195400Y189832*
X195087Y190457*
X195400Y191082*
X196025Y191394*
X197275*
X197900Y191082*
X198213Y190457*
X195087Y385432D02*
X195400Y384807D01*
X196025Y384494*
X197275*
X197900Y384807*
X198213Y385432*
X197900Y386057*
X197275Y386370*
X196025*
X195400Y386682*
X195087Y387307*
X195400Y387932*
X196025Y388244*
X197275*
X197900Y387932*
X198213Y387307*
X209851Y118746D02*
Y122496D01*
Y120622D02*
X212976D01*
Y118746D02*
Y122496D01*
X214851Y120934D02*
X215476Y121246D01*
X216414*
X217039Y120934*
X217351Y120309*
Y119372*
X217039Y119059*
X216414Y118746*
X215789*
X215164Y119059*
X214851Y119372*
Y119684*
X215164Y119996*
X215789Y120309*
X216414*
X217039Y119996*
X217351Y119684*
Y119372D02*
Y118746D01*
X220164Y118122D02*
X220789Y117809D01*
X221414Y118122*
X221726Y118746*
Y121246*
Y122184D02*
X226101Y118746*
Y121246D01*
Y122184D02*
X229851Y118746*
Y121246D01*
Y120934D02*
X230164Y121246D01*
X230789*
X231101Y120934*
Y119996*
Y120934D02*
X231414Y121246D01*
X232039*
X232351Y120934*
Y118746*
X234851Y120934D02*
X235476Y121246D01*
X236414*
X237039Y120934*
X237351Y120309*
Y119372*
X237039Y119059*
X236414Y118746*
X235789*
X235164Y119059*
X234851Y119372*
Y119684*
X235164Y119996*
X235789Y120309*
X236414*
X237039Y119996*
X237351Y119684*
Y119372D02*
Y118746D01*
X239851D02*
Y121246D01*
Y120309D02*
X240164Y120934D01*
X240789Y121246*
X241414*
X242039Y120934*
X246101Y118746D02*
Y121246D01*
Y122184D02*
X249851Y118746*
Y121246D01*
Y120309D02*
X250164Y120934D01*
X250789Y121246*
X251414*
X252039Y120934*
X252351Y120309*
Y118746*
X254851Y119684D02*
X255164Y119059D01*
X255789Y118746*
X256414*
X257039Y119059*
X257351Y119684*
Y120309*
X257039Y120934*
X256414Y121246*
X255789*
X255164Y120934*
X254851Y120309*
Y119684*
X259851Y118746D02*
Y122496D01*
X262976*
X262351Y120622D02*
X259851D01*
Y118746D02*
X262976D01*
X266101D02*
Y121246D01*
Y122184D02*
X269851Y119059*
X270476Y118746D01*
X271726*
X272351Y119059*
Y119684*
X271726Y119996*
X270476*
X269851Y120309*
Y120934*
X270476Y121246*
X271726*
X272351Y120934*
X277351Y119059D02*
X277039Y118746D01*
X276414*
X275789*
X275164Y119059*
X274851Y119684*
Y120622*
X275164Y120934*
X275789Y121246*
X276414*
X277039Y120934*
X277351Y120622*
Y120309*
X277039Y119996*
X276414Y119684*
X275789*
X275164Y119996*
X274851Y120309*
X281101Y118746D02*
Y121246D01*
Y122184D02*
X284851Y118746*
X287976D01*
X289851Y122496D02*
X291414Y118746D01*
X292976Y122496*
X295476Y118746D02*
X296726D01*
X296101D02*
Y122496D01*
X295476Y121872*
X209851Y315597D02*
Y319347D01*
Y317472D02*
X212976D01*
Y315597D02*
Y319347D01*
X214851Y317785D02*
X215476Y318097D01*
X216414*
X217039Y317785*
X217351Y317159*
Y316222*
X217039Y315909*
X216414Y315597*
X215789*
X215164Y315909*
X214851Y316222*
Y316535*
X215164Y316847*
X215789Y317159*
X216414*
X217039Y316847*
X217351Y316535*
Y316222D02*
Y315597D01*
X220164Y314972D02*
X220789Y314659D01*
X221414Y314972*
X221726Y315597*
Y318097*
Y319035D02*
X226101Y315597*
Y318097D01*
Y319035D02*
X229851Y315597*
Y318097D01*
Y317785D02*
X230164Y318097D01*
X230789*
X231101Y317785*
Y316847*
Y317785D02*
X231414Y318097D01*
X232039*
X232351Y317785*
Y315597*
X234851Y317785D02*
X235476Y318097D01*
X236414*
X237039Y317785*
X237351Y317159*
Y316222*
X237039Y315909*
X236414Y315597*
X235789*
X235164Y315909*
X234851Y316222*
Y316535*
X235164Y316847*
X235789Y317159*
X236414*
X237039Y316847*
X237351Y316535*
Y316222D02*
Y315597D01*
X239851D02*
Y318097D01*
Y317159D02*
X240164Y317785D01*
X240789Y318097*
X241414*
X242039Y317785*
X246101Y315597D02*
Y318097D01*
Y319035D02*
X249851Y315597*
Y318097D01*
Y317159D02*
X250164Y317785D01*
X250789Y318097*
X251414*
X252039Y317785*
X252351Y317159*
Y315597*
X254851Y316535D02*
X255164Y315909D01*
X255789Y315597*
X256414*
X257039Y315909*
X257351Y316535*
Y317159*
X257039Y317785*
X256414Y318097*
X255789*
X255164Y317785*
X254851Y317159*
Y316535*
X259851Y315597D02*
Y319347D01*
X262976*
X262351Y317472D02*
X259851D01*
Y315597D02*
X262976D01*
X266101D02*
Y318097D01*
Y319035D02*
X269851Y315909*
X270476Y315597D01*
X271726*
X272351Y315909*
Y316535*
X271726Y316847*
X270476*
X269851Y317159*
Y317785*
X270476Y318097*
X271726*
X272351Y317785*
X277351Y315909D02*
X277039Y315597D01*
X276414*
X275789*
X275164Y315909*
X274851Y316535*
Y317472*
X275164Y317785*
X275789Y318097*
X276414*
X277039Y317785*
X277351Y317472*
Y317159*
X277039Y316847*
X276414Y316535*
X275789*
X275164Y316847*
X274851Y317159*
X281101Y315597D02*
Y318097D01*
Y319035D02*
X284851Y315597*
X287976D01*
X289851Y319347D02*
X291414Y315597D01*
X292976Y319347*
X295476Y315597D02*
X296726D01*
X296101D02*
Y319347D01*
X295476Y318722*
X234457Y25329D02*
X276269D01*
Y13518*
X236957*
X234457Y16018*
Y25329*
Y222179D02*
X276269D01*
Y210368*
X236957*
X234457Y212868*
Y222179*
X246269Y68503D02*
X246581Y67878D01*
X247206Y67565*
X248456*
X249081Y67878*
X249394Y68503*
X249081Y69128*
X248456Y69441*
X247206*
X246581Y69753*
X246269Y70378*
X246581Y71003*
X247206Y71315*
X248456*
X249081Y71003*
X249394Y70378*
X251269Y71315D02*
X251581Y67565D01*
X252831Y69441*
X254081Y67565*
X254394Y71315*
X256894Y67565D02*
X258144D01*
X257519D02*
Y71315D01*
X256894Y70691*
X246269Y265354D02*
X246581Y264728D01*
X247206Y264416*
X248456*
X249081Y264728*
X249394Y265354*
X249081Y265978*
X248456Y266291*
X247206*
X246581Y266604*
X246269Y267228*
X246581Y267854*
X247206Y268166*
X248456*
X249081Y267854*
X249394Y267228*
X251269Y268166D02*
X251581Y264416D01*
X252831Y266291*
X254081Y264416*
X254394Y268166*
X256894Y264416D02*
X258144D01*
X257519D02*
Y268166D01*
X256894Y267541*
X248237Y197300D02*
Y194487D01*
X248550Y193862*
X249174Y193550*
X250424*
X251050Y193862*
X251362Y194487*
Y197300*
X253862Y193550D02*
X255112D01*
X254487D02*
Y197300D01*
X253862Y196675*
X248237Y394150D02*
Y391338D01*
X248550Y390713*
X249174Y390400*
X250424*
X251050Y390713*
X251362Y391338*
Y394150*
X253862Y390400D02*
X255112D01*
X254487D02*
Y394150D01*
X253862Y393525*
X253331Y10120D02*
X253018Y9807D01*
X252393Y9494*
X251456*
X250831Y9807*
X250518Y10120*
X250206Y10744*
Y11994*
X250518Y12620*
X250831Y12932*
X251456Y13244*
X252393*
X253018Y12932*
X253331Y12620*
X255206Y9494D02*
Y13244D01*
X258331Y9494*
Y13244*
X260831Y9494D02*
X262081D01*
X261456D02*
Y13244D01*
X260831Y12620*
X253331Y206970D02*
X253018Y206657D01*
X252393Y206345*
X251456*
X250831Y206657*
X250518Y206970*
X250206Y207595*
Y208845*
X250518Y209470*
X250831Y209783*
X251456Y210095*
X252393*
X253018Y209783*
X253331Y209470*
X255206Y206345D02*
Y210095D01*
X258331Y206345*
Y210095*
X260831Y206345D02*
X262081D01*
X261456D02*
Y210095D01*
X260831Y209470*
X251190Y36018D02*
X251337Y35722D01*
X251633Y35575*
X252223*
X252519Y35722*
X252666Y36018*
X252519Y36313*
X252223Y36461*
X251633*
X251337Y36608*
X251190Y36904*
X251337Y37199*
X251633Y37346*
X252223*
X252519Y37199*
X252666Y36904*
X253552Y37346D02*
X253700Y35575D01*
X254290Y36461*
X254881Y35575*
X255028Y37346*
X257095Y35575D02*
X255914D01*
X256948Y36608*
X257095Y36904*
X256948Y37199*
X256652Y37346*
X256209*
X255914Y37199*
X251190Y232868D02*
X251337Y232573D01*
X251633Y232425*
X252223*
X252519Y232573*
X252666Y232868*
X252519Y233163*
X252223Y233311*
X251633*
X251337Y233459*
X251190Y233754*
X251337Y234049*
X251633Y234197*
X252223*
X252519Y234049*
X252666Y233754*
X253552Y234197D02*
X253700Y232425D01*
X254290Y233311*
X254881Y232425*
X255028Y234197*
X257095Y232425D02*
X255914D01*
X256948Y233459*
X257095Y233754*
X256948Y234049*
X256652Y234197*
X256209*
X255914Y234049*
X272942Y53636D02*
Y28380D01*
X235934*
Y53636*
X252961*
Y52159*
X255914*
Y53636*
X272942*
Y250486D02*
Y225230D01*
X235934*
Y250486*
X252961*
Y249010*
X255914*
Y250486*
X272942*
X290461Y202238D02*
Y127041D01*
X213690*
Y202238*
X250599*
Y200762*
X253552*
Y202238*
X290461*
Y399089D02*
Y323892D01*
X213690*
Y399089*
X250599*
Y397612*
X253552*
Y399089*
X290461*
X293513Y188582D02*
X293825Y187957D01*
X294450Y187644*
X295700*
X296325Y187957*
X296638Y188582*
X296325Y189207*
X295700Y189519*
X294450*
X293825Y189832*
X293513Y190457*
X293825Y191082*
X294450Y191394*
X295700*
X296325Y191082*
X296638Y190457*
X293513Y385432D02*
X293825Y384807D01*
X294450Y384494*
X295700*
X296325Y384807*
X296638Y385432*
X296325Y386057*
X295700Y386370*
X294450*
X293825Y386682*
X293513Y387307*
X293825Y387932*
X294450Y388244*
X295700*
X296325Y387932*
X296638Y387307*
X308276Y118746D02*
Y122496D01*
Y120622D02*
X311402D01*
Y118746D02*
Y122496D01*
X313276Y120934D02*
X313902Y121246D01*
X314839*
X315464Y120934*
X315776Y120309*
Y119372*
X315464Y119059*
X314839Y118746*
X314214*
X313589Y119059*
X313276Y119372*
Y119684*
X313589Y119996*
X314214Y120309*
X314839*
X315464Y119996*
X315776Y119684*
Y119372D02*
Y118746D01*
X318589Y118122D02*
X319214Y117809D01*
X319839Y118122*
X320152Y118746*
Y121246*
Y122184D02*
X324526Y118746*
Y121246D01*
Y122184D02*
X328276Y118746*
Y121246D01*
Y120934D02*
X328589Y121246D01*
X329214*
X329526Y120934*
Y119996*
Y120934D02*
X329839Y121246D01*
X330464*
X330776Y120934*
Y118746*
X333276Y120934D02*
X333902Y121246D01*
X334839*
X335464Y120934*
X335776Y120309*
Y119372*
X335464Y119059*
X334839Y118746*
X334214*
X333589Y119059*
X333276Y119372*
Y119684*
X333589Y119996*
X334214Y120309*
X334839*
X335464Y119996*
X335776Y119684*
Y119372D02*
Y118746D01*
X338276D02*
Y121246D01*
Y120309D02*
X338589Y120934D01*
X339214Y121246*
X339839*
X340464Y120934*
X344526Y118746D02*
Y121246D01*
Y122184D02*
X348276Y118746*
Y121246D01*
Y120309D02*
X348589Y120934D01*
X349214Y121246*
X349839*
X350464Y120934*
X350776Y120309*
Y118746*
X353276Y119684D02*
X353589Y119059D01*
X354214Y118746*
X354839*
X355464Y119059*
X355776Y119684*
Y120309*
X355464Y120934*
X354839Y121246*
X354214*
X353589Y120934*
X353276Y120309*
Y119684*
X358276Y118746D02*
Y122496D01*
X361402*
X360776Y120622D02*
X358276D01*
Y118746D02*
X361402D01*
X364526D02*
Y121246D01*
Y122184D02*
X368276Y119059*
X368902Y118746D01*
X370152*
X370776Y119059*
Y119684*
X370152Y119996*
X368902*
X368276Y120309*
Y120934*
X368902Y121246*
X370152*
X370776Y120934*
X375776Y119059D02*
X375464Y118746D01*
X374839*
X374214*
X373589Y119059*
X373276Y119684*
Y120622*
X373589Y120934*
X374214Y121246*
X374839*
X375464Y120934*
X375776Y120622*
Y120309*
X375464Y119996*
X374839Y119684*
X374214*
X373589Y119996*
X373276Y120309*
X379526Y118746D02*
Y121246D01*
Y122184D02*
X383276Y118746*
X386402D01*
X388276Y122496D02*
X389839Y118746D01*
X391402Y122496*
X393902Y118746D02*
X395152D01*
X394526D02*
Y122496D01*
X393902Y121872*
X308276Y315597D02*
Y319347D01*
Y317472D02*
X311402D01*
Y315597D02*
Y319347D01*
X313276Y317785D02*
X313902Y318097D01*
X314839*
X315464Y317785*
X315776Y317159*
Y316222*
X315464Y315909*
X314839Y315597*
X314214*
X313589Y315909*
X313276Y316222*
Y316535*
X313589Y316847*
X314214Y317159*
X314839*
X315464Y316847*
X315776Y316535*
Y316222D02*
Y315597D01*
X318589Y314972D02*
X319214Y314659D01*
X319839Y314972*
X320152Y315597*
Y318097*
Y319035D02*
X324526Y315597*
Y318097D01*
Y319035D02*
X328276Y315597*
Y318097D01*
Y317785D02*
X328589Y318097D01*
X329214*
X329526Y317785*
Y316847*
Y317785D02*
X329839Y318097D01*
X330464*
X330776Y317785*
Y315597*
X333276Y317785D02*
X333902Y318097D01*
X334839*
X335464Y317785*
X335776Y317159*
Y316222*
X335464Y315909*
X334839Y315597*
X334214*
X333589Y315909*
X333276Y316222*
Y316535*
X333589Y316847*
X334214Y317159*
X334839*
X335464Y316847*
X335776Y316535*
Y316222D02*
Y315597D01*
X338276D02*
Y318097D01*
Y317159D02*
X338589Y317785D01*
X339214Y318097*
X339839*
X340464Y317785*
X344526Y315597D02*
Y318097D01*
Y319035D02*
X348276Y315597*
Y318097D01*
Y317159D02*
X348589Y317785D01*
X349214Y318097*
X349839*
X350464Y317785*
X350776Y317159*
Y315597*
X353276Y316535D02*
X353589Y315909D01*
X354214Y315597*
X354839*
X355464Y315909*
X355776Y316535*
Y317159*
X355464Y317785*
X354839Y318097*
X354214*
X353589Y317785*
X353276Y317159*
Y316535*
X358276Y315597D02*
Y319347D01*
X361402*
X360776Y317472D02*
X358276D01*
Y315597D02*
X361402D01*
X364526D02*
Y318097D01*
Y319035D02*
X368276Y315909*
X368902Y315597D01*
X370152*
X370776Y315909*
Y316535*
X370152Y316847*
X368902*
X368276Y317159*
Y317785*
X368902Y318097*
X370152*
X370776Y317785*
X375776Y315909D02*
X375464Y315597D01*
X374839*
X374214*
X373589Y315909*
X373276Y316535*
Y317472*
X373589Y317785*
X374214Y318097*
X374839*
X375464Y317785*
X375776Y317472*
Y317159*
X375464Y316847*
X374839Y316535*
X374214*
X373589Y316847*
X373276Y317159*
X379526Y315597D02*
Y318097D01*
Y319035D02*
X383276Y315597*
X386402D01*
X388276Y319347D02*
X389839Y315597D01*
X391402Y319347*
X393902Y315597D02*
X395152D01*
X394526D02*
Y319347D01*
X393902Y318722*
X332883Y25329D02*
X374694D01*
Y13518*
X335383*
X332883Y16018*
Y25329*
Y222179D02*
X374694D01*
Y210368*
X335383*
X332883Y212868*
Y222179*
X344694Y68503D02*
X345006Y67878D01*
X345631Y67565*
X346881*
X347506Y67878*
X347819Y68503*
X347506Y69128*
X346881Y69441*
X345631*
X345006Y69753*
X344694Y70378*
X345006Y71003*
X345631Y71315*
X346881*
X347506Y71003*
X347819Y70378*
X349694Y71315D02*
X350006Y67565D01*
X351256Y69441*
X352506Y67565*
X352819Y71315*
X355319Y67565D02*
X356569D01*
X355944D02*
Y71315D01*
X355319Y70691*
X344694Y265354D02*
X345006Y264728D01*
X345631Y264416*
X346881*
X347506Y264728*
X347819Y265354*
X347506Y265978*
X346881Y266291*
X345631*
X345006Y266604*
X344694Y267228*
X345006Y267854*
X345631Y268166*
X346881*
X347506Y267854*
X347819Y267228*
X349694Y268166D02*
X350006Y264416D01*
X351256Y266291*
X352506Y264416*
X352819Y268166*
X355319Y264416D02*
X356569D01*
X355944D02*
Y268166D01*
X355319Y267541*
X346662Y197300D02*
Y194487D01*
X346975Y193862*
X347600Y193550*
X348850*
X349475Y193862*
X349787Y194487*
Y197300*
X352287Y193550D02*
X353537D01*
X352912D02*
Y197300D01*
X352287Y196675*
X346662Y394150D02*
Y391338D01*
X346975Y390713*
X347600Y390400*
X348850*
X349475Y390713*
X349787Y391338*
Y394150*
X352287Y390400D02*
X353537D01*
X352912D02*
Y394150D01*
X352287Y393525*
X351756Y10120D02*
X351443Y9807D01*
X350818Y9494*
X349881*
X349256Y9807*
X348943Y10120*
X348631Y10744*
Y11994*
X348943Y12620*
X349256Y12932*
X349881Y13244*
X350818*
X351443Y12932*
X351756Y12620*
X353631Y9494D02*
Y13244D01*
X356756Y9494*
Y13244*
X359256Y9494D02*
X360506D01*
X359881D02*
Y13244D01*
X359256Y12620*
X351756Y206970D02*
X351443Y206657D01*
X350818Y206345*
X349881*
X349256Y206657*
X348943Y206970*
X348631Y207595*
Y208845*
X348943Y209470*
X349256Y209783*
X349881Y210095*
X350818*
X351443Y209783*
X351756Y209470*
X353631Y206345D02*
Y210095D01*
X356756Y206345*
Y210095*
X359256Y206345D02*
X360506D01*
X359881D02*
Y210095D01*
X359256Y209470*
X349615Y36018D02*
X349763Y35722D01*
X350058Y35575*
X350648*
X350944Y35722*
X351091Y36018*
X350944Y36313*
X350648Y36461*
X350058*
X349763Y36608*
X349615Y36904*
X349763Y37199*
X350058Y37346*
X350648*
X350944Y37199*
X351091Y36904*
X351977Y37346D02*
X352125Y35575D01*
X352715Y36461*
X353306Y35575*
X353454Y37346*
X355520Y35575D02*
X354339D01*
X355373Y36608*
X355520Y36904*
X355373Y37199*
X355078Y37346*
X354635*
X354339Y37199*
X349615Y232868D02*
X349763Y232573D01*
X350058Y232425*
X350648*
X350944Y232573*
X351091Y232868*
X350944Y233163*
X350648Y233311*
X350058*
X349763Y233459*
X349615Y233754*
X349763Y234049*
X350058Y234197*
X350648*
X350944Y234049*
X351091Y233754*
X351977Y234197D02*
X352125Y232425D01*
X352715Y233311*
X353306Y232425*
X353454Y234197*
X355520Y232425D02*
X354339D01*
X355373Y233459*
X355520Y233754*
X355373Y234049*
X355078Y234197*
X354635*
X354339Y234049*
X371367Y53636D02*
Y28380D01*
X334359*
Y53636*
X351387*
Y52159*
X354339*
Y53636*
X371367*
Y250486D02*
Y225230D01*
X334359*
Y250486*
X351387*
Y249010*
X354339*
Y250486*
X371367*
X388887Y202238D02*
Y127041D01*
X312115*
Y202238*
X349024*
Y200762*
X351977*
Y202238*
X388887*
Y399089D02*
Y323892D01*
X312115*
Y399089*
X349024*
Y397612*
X351977*
Y399089*
X388887*
X391938Y188582D02*
X392250Y187957D01*
X392875Y187644*
X394125*
X394750Y187957*
X395063Y188582*
X394750Y189207*
X394125Y189519*
X392875*
X392250Y189832*
X391938Y190457*
X392250Y191082*
X392875Y191394*
X394125*
X394750Y191082*
X395063Y190457*
X391938Y385432D02*
X392250Y384807D01*
X392875Y384494*
X394125*
X394750Y384807*
X395063Y385432*
X394750Y386057*
X394125Y386370*
X392875*
X392250Y386682*
X391938Y387307*
X392250Y387932*
X392875Y388244*
X394125*
X394750Y387932*
X395063Y387307*
X0Y0D02*
M02*
